<svg width="14" height="48" viewBox="0 0 14 48" fill="none" xmlns="http://www.w3.org/2000/svg">
<path d="M12.868 0.471996L11.588 31.128H2.308L1.028 0.471996H12.868ZM7.108 47.512C5.188 47.512 3.60933 46.9573 2.372 45.848C1.17733 44.696 0.58 43.288 0.58 41.624C0.58 39.9173 1.17733 38.488 2.372 37.336C3.60933 36.184 5.188 35.608 7.108 35.608C8.98533 35.608 10.5213 36.184 11.716 37.336C12.9533 38.488 13.572 39.9173 13.572 41.624C13.572 43.288 12.9533 44.696 11.716 45.848C10.5213 46.9573 8.98533 47.512 7.108 47.512Z" fill="#FFAF38"/>
</svg>
