<svg width="178" height="90" viewBox="0 0 178 90" fill="none" xmlns="http://www.w3.org/2000/svg">
<path d="M22.1904 26.3032V57.0519L28.7474 49.719C29.2917 49.1104 29.5926 48.3223 29.5926 47.505V35.4607C29.5926 34.6124 29.2682 33.796 28.6861 33.1797L22.1904 26.3032Z" fill="#5A7EFF"/>
<path d="M54.0228 20.361L28.528 20.358L36.5333 27.1378C37.1312 27.6441 37.889 27.922 38.672 27.922L52.9422 27.9226L40.7816 33.3567C39.5875 33.8901 38.8183 35.0775 38.8183 36.3873V43.8538C38.8183 45.2242 39.659 46.4535 40.9346 46.9485L52.6991 51.5128L31.9502 51.5125C31.0121 51.5125 30.118 51.9108 29.4896 52.6088L23.3647 59.4135L54.0497 59.4161C55.8687 59.4164 57.3476 57.9474 57.3628 56.1255L57.44 46.8871C57.4511 45.5288 56.635 44.3006 55.3796 43.7872L46.5614 40.1802C46.1054 39.9937 46.1222 39.341 46.5875 39.1785L55.1136 36.199C56.4441 35.734 57.3353 34.477 57.3353 33.0656V23.6795C57.3353 21.8469 55.8523 20.3612 54.0228 20.361Z" fill="#8BABFF"/>
<path d="M73.6776 42.9144C71.5434 42.9144 69.9044 44.2125 69.5232 46.5795H77.6792C77.6792 44.2507 75.85 42.9144 73.6776 42.9144ZM83.8535 52.2298C82.8245 56.3914 79.0513 59.5982 73.7538 59.5982C67.5033 59.5982 63.0061 55.3988 63.0061 48.6411C63.0061 41.8836 67.4271 37.6839 73.7538 37.6839C79.9662 37.6839 84.3491 41.8073 84.3491 48.2977C84.3491 48.9084 84.311 49.5573 84.2347 50.2065H69.4851C69.7138 52.9936 71.429 54.2913 73.5251 54.2913C75.3544 54.2913 76.3837 53.3751 76.9171 52.2298H83.8535ZM88.8161 51.8861V43.4108H86.2247V37.9894H88.8161V32.7974H95.3335V37.9894H99.602V43.4108H95.3335V51.9625C95.3335 53.2224 95.8672 53.757 97.3152 53.757H99.6401V59.2927H96.3244C91.9034 59.2927 88.8161 57.4221 88.8161 51.8861Z" fill="#5A7EFF"/>
<path d="M134.6 38.8313V41.475L138.119 39.125L134.6 38.8313Z" fill="#11256B"/>
<path d="M150.435 47.9375L149.262 44.7062L151.755 44.4125C152.781 45.0978 154.876 46.9396 153.954 47.35C152.634 47.9375 151.168 47.7906 150.435 47.9375Z" fill="#11256B"/>
<path d="M150.435 47.9375L149.262 44.7062L151.755 44.4125C152.781 45.0978 154.876 46.9396 153.954 47.35C152.634 47.9375 151.168 47.7906 150.435 47.9375Z" fill="#1A3183"/>
<path d="M123.692 38.2487V59.5521H117.175V56.6507C115.879 58.4831 113.592 59.7812 110.734 59.7812C105.817 59.7812 102.501 56.3834 102.501 50.6949V38.2487H108.98V49.8166C108.98 52.7183 110.619 54.3216 113.058 54.3216C115.574 54.3216 117.175 52.7183 117.175 49.8166V38.2487H123.692ZM134.89 41.2647C136.072 39.3941 138.32 37.9432 141.446 37.9432C146.667 37.9432 150.821 42.143 150.821 48.8622C150.821 55.5815 146.667 59.8576 141.446 59.8576C138.32 59.8576 136.072 58.3686 134.89 56.5743V69.7073H128.373V38.2487H134.89V41.2647ZM144.19 48.8622C144.19 45.4644 141.979 43.6317 139.502 43.6317C137.063 43.6317 134.852 45.5026 134.852 48.9004C134.852 52.2982 137.063 54.1691 139.502 54.1691C141.979 54.1691 144.19 52.26 144.19 48.8622Z" fill="#5A7EFF"/>
<path d="M140.512 28.1405L136.359 36.0827L152.069 41.28C152.692 39.6793 153.936 36.4951 154.752 34.4247C155.065 33.6328 155.105 32.7342 154.664 32.0057C152.786 28.8963 148.678 27.2869 146.16 26.6989C144.878 26.3996 143.461 26.4648 142.371 26.6591C141.546 26.8061 140.901 27.3976 140.512 28.1405Z" fill="url(#paint0_linear_1330_5383)"/>
<path d="M132.7 34.5196C130.977 35.1412 132.434 38.0796 133.573 39.4188L135.86 37.7573L146.915 40.9951C148.685 42.0311 152.912 45.1049 154.98 46.7625C158.425 42.8774 150.927 39.0848 147.92 38.7934C143.478 38.3631 140.31 37.2395 139.018 36.8505C138.013 36.5483 134.423 33.8966 132.7 34.5196Z" fill="#6282F4"/>
<path d="M132.827 35.9099C131.197 36.6078 133.458 39.6705 134.477 40.8751C140.793 39.1996 147.319 43.5535 150.754 46.0492C151.934 46.9067 152.75 47.5444 153.067 47.6437C156.794 46.6467 155.785 44.3834 154.814 43.2618C153.989 42.2234 151.41 40.5147 147.825 40.1466C144.185 39.7727 140.253 38.7757 138.506 38.0284C137.05 37.4071 134.341 35.7104 132.827 35.9099Z" fill="url(#paint1_linear_1330_5383)"/>
<path d="M135.007 69.7461H128.49V38.2872H135.007C135.007 76.4089 135.007 49.215 135.007 69.7461Z" fill="#5A7EFF"/>
<defs>
<linearGradient id="paint0_linear_1330_5383" x1="144.364" y1="21.997" x2="162.816" y2="31.2685" gradientUnits="userSpaceOnUse">
<stop stop-color="#31378A"/>
<stop offset="0.160416" stop-color="#6282F4"/>
<stop offset="0.249856" stop-color="#B0C1FF"/>
<stop offset="0.405488" stop-color="#6282F4"/>
<stop offset="0.810604" stop-color="#0C1265"/>
</linearGradient>
<linearGradient id="paint1_linear_1330_5383" x1="144.57" y1="42.5031" x2="153.382" y2="34.1463" gradientUnits="userSpaceOnUse">
<stop stop-color="#11256B"/>
<stop offset="1" stop-color="#4369EF"/>
</linearGradient>
</defs>
</svg>
