<svg width="59" height="16" viewBox="0 0 59 16" fill="none" xmlns="http://www.w3.org/2000/svg">
<path d="M3.91534 1L0 12H2.32804L3.38624 8.79167H6.56085L7.67196 12H10L6.13757 1H3.91534ZM5.97884 6.95833H3.96825L4.81481 4.56481C4.92063 4.41204 4.97355 4.20833 4.97355 4.05556C5.02645 4.20833 5.07937 4.41204 5.13228 4.56481L5.97884 6.95833Z" fill="white"/>
<path d="M13.7081 7.07317C12.6175 6.68293 12.5084 6.53659 12.5084 6.2439C12.5084 5.85366 12.8356 5.65854 13.3809 5.65854C13.9807 5.65854 14.526 5.85366 14.7442 6.04878L15.1804 6.29268L15.7802 4.63415L15.5076 4.4878C15.0168 4.19512 14.1443 4 13.3809 4C11.5814 4 10.2727 5.02439 10.2727 6.43902C10.2727 7.7561 11.5269 8.43902 12.672 8.78049C13.7626 9.17073 13.8171 9.41463 13.8171 9.70732C13.8171 10.2927 13.1082 10.3415 12.7265 10.3415C12.1267 10.3415 11.4178 10.0976 11.0361 9.90244L10.5998 9.65854L10 11.3171L10.2727 11.4634C10.927 11.8049 11.7995 12 12.672 12C14.6896 12 15.9984 10.9756 15.9984 9.5122C16.0529 8 14.7442 7.41463 13.7081 7.07317Z" fill="white"/>
<path d="M19.15 2L17.1 2.64677V3.89055H16V5.63184H17.1V9.16418C17.1 10.1592 17.3 10.806 17.7 11.3035C18.1 11.7512 18.7 12 19.4 12C20.05 12 20.45 11.8507 20.7 11.801L21 11.7015L20.85 9.91045L20.35 10.01C20.2 10.0597 20.05 10.0597 19.7 10.0597C19.45 10.0597 19.1 10.0597 19.1 9.06468V5.63184H20.95V3.89055H19.1L19.15 2Z" fill="white"/>
<path d="M27 4.09816L26.5556 4.04908C26.3889 4 26.3333 4 26.1111 4C25.3889 4 24.7222 4.2454 24.2222 4.7362L24.1667 4.19632H22L22.0556 4.58896C22.1111 5.22699 22.1111 5.91411 22.1111 6.74847V12H24.4444V7.8773C24.4444 7.68098 24.5 7.48466 24.5 7.33742C24.6667 6.55215 25.2222 6.01227 26 6.01227C26.1667 6.01227 26.2778 6.01227 26.3889 6.06135L26.8889 6.15951L27 4.09816Z" fill="white"/>
<path d="M31.0255 4C28.6306 4 27 5.89759 27 8.55422C27 11.1566 28.6306 13 30.9236 13C32.9108 13 35 11.5361 35 8.44578C35 5.84337 33.3185 4 31.0255 4ZM32.8089 8.5C32.8089 10.0181 32.0446 11.1024 30.9745 11.1024C29.9045 11.1024 29.1911 10.0181 29.1911 8.55422C29.1911 7.57831 29.5987 5.95181 31.0255 5.95181C32.4522 5.95181 32.8089 7.63253 32.8089 8.5Z" fill="white"/>
<path d="M41.9 1.91244C41.2 1.25346 40.15 1 38.85 1C37.95 1 37.1 1.05069 36.3 1.20277L36 1.25346V12H38.1V7.99539C38.3 8.04608 38.55 8.04608 38.75 8.04608C40.15 8.04608 41.35 7.58986 42.1 6.7788C42.7 6.17051 43 5.35945 43 4.34562C42.85 3.38249 42.5 2.52074 41.9 1.91244ZM40.8 4.447C40.8 5.96774 39.45 6.2212 38.7 6.2212C38.45 6.2212 38.25 6.2212 38.05 6.17051V2.87558C38.25 2.82488 38.5 2.82488 38.85 2.82488C39.75 2.82488 40.8 3.07834 40.8 4.447Z" fill="white"/>
<path d="M49.8939 10.506V7.57831C49.8939 5.24699 48.7273 4 46.553 4C45.5985 4 44.5379 4.27108 43.7955 4.75904L43.5303 4.92169L44.1136 6.71084L44.5379 6.38554C45.0152 6.06024 45.6515 5.89759 46.2879 5.89759C46.7121 5.89759 47.0833 6.00602 47.2424 6.22289C47.4015 6.38554 47.5076 6.65663 47.5606 7.03615C45.8106 7.09036 44.5909 7.5241 43.7955 8.28313C43.2652 8.8253 43 9.53012 43 10.3434C43 11.6988 43.9545 13 45.7576 13C46.553 13 47.2424 12.7831 47.8258 12.2952L47.8788 12.7831H50L49.947 12.2952C49.8939 11.9157 49.8939 11.2651 49.8939 10.506ZM46.1818 11.1024C45.8636 11.1024 45.3333 10.9398 45.3333 10.1807C45.3333 9.85542 45.4394 9.63856 45.5985 9.42169C45.8636 9.1506 46.447 8.87952 47.7197 8.8253V9.74699C47.7197 9.80121 47.7197 9.96386 47.6667 10.0723C47.5076 10.5602 47.0303 11.1024 46.1818 11.1024Z" fill="white"/>
<path d="M55.7722 4L54.2532 8.75771C54.2025 8.9163 54.2025 8.96916 54.1013 9.12775C54.0506 8.96916 54.0506 8.9163 53.9494 8.81057L52.2785 4.05286H50L52.8861 11.6123C52.9367 11.7181 52.9367 11.7709 52.9367 11.7709C52.8861 11.8238 52.8861 11.9295 52.8861 11.9295C52.6329 12.511 52.2278 12.9868 51.8734 13.3568C51.4684 13.7269 51.0127 13.8855 50.8608 13.9383L50.4557 14.0969L51.0127 16L51.3671 15.8414C51.5696 15.7885 52.3291 15.63 53.1899 14.8899C54.2025 13.9383 54.8608 12.4053 55.7722 9.97357L58 4H55.7722Z" fill="white"/>
<path d="M8.03896 4.62162C9.44156 3.16216 11.8312 2.24324 14.3766 2.24324C15.4156 2.24324 16.3506 2.40541 17.2857 2.67568L17.3377 2.72973L19 2.18919L18.2727 1.86486C16.8701 1.32432 15.2597 1 13.5974 1C11.1558 1 8.92208 1.59459 7.20779 2.72973L7 2.89189L7.67532 5L8.03896 4.62162Z" fill="#FF0000"/>
</svg>
