<svg width="64" height="59" viewBox="0 0 78 74" fill="none" xmlns="http://www.w3.org/2000/svg">
<path d="M50.6 19.5C53.7 19.5 56.2001 22 56.2001 25.1V28.6C56.2001 31.7 53.7 34.2 50.6 34.2H26.5C23.4 34.2 20.9 31.7 20.9 28.6V25.1C20.9 22 23.4 19.5 26.5 19.5H50.6ZM50.6 16.8H26.5C21.9 16.8 18.3 20.5 18.3 25V28.6C18.3 33.2 22 36.8 26.5 36.8H50.7001C55.3 36.8 58.9001 33.1 58.9001 28.6V25.1C58.9001 20.5 55.2 16.8 50.6 16.8Z" fill="white"/>
<path d="M53.8005 2.09999C53.7005 2.09999 53.6005 2.09999 53.5005 2.19999H53.4005L46.1005 6.69999C46.0005 6.79999 45.8005 6.79999 45.7005 6.79999C45.5005 6.79999 45.3005 6.79999 45.2005 6.59999L39.0005 1.89999C39.0005 1.89999 39.0005 1.89999 38.9005 1.89999C38.8005 1.89999 38.7005 1.79999 38.5005 1.79999C38.3005 1.79999 38.1005 1.79999 38.0005 1.99999L31.8005 6.69999C31.7005 6.79999 31.5005 6.89999 31.3005 6.89999C31.2005 6.89999 31.0005 6.89999 30.9005 6.79999L23.6005 2.19999C23.5005 2.19999 23.4005 2.09999 23.3005 2.09999C23.0005 2.09999 22.6005 2.39999 22.7005 2.69999L23.7005 11.5C23.8005 12.6 24.7005 13.3 25.8005 13.3H51.4005C52.5005 13.3 53.4005 12.5 53.5005 11.5L54.5005 2.69999C54.4005 2.39999 54.2005 2.09999 53.8005 2.09999ZM25.3005 6.39999C25.3005 6.09999 25.6005 5.99999 25.8005 6.09999L29.9005 8.59999C30.4005 8.89999 30.9005 8.99999 31.5005 8.99999C32.2005 8.99999 32.8005 8.79999 33.3005 8.39999L38.1005 4.69999C38.3005 4.49999 38.6005 4.69999 38.6005 4.99999V10.9C38.6005 11.1 38.5005 11.2 38.3005 11.2H26.1005C25.9005 11.2 25.8005 11.1 25.8005 10.9L25.3005 6.39999Z" fill="white"/>
<path d="M30.1004 29.7C31.7021 29.7 33.0004 28.4016 33.0004 26.8C33.0004 25.1983 31.7021 23.9 30.1004 23.9C28.4988 23.9 27.2004 25.1983 27.2004 26.8C27.2004 28.4016 28.4988 29.7 30.1004 29.7Z" fill="white"/>
<path d="M47.0008 29.7C48.6025 29.7 49.9008 28.4016 49.9008 26.8C49.9008 25.1983 48.6025 23.9 47.0008 23.9C45.3992 23.9 44.1008 25.1983 44.1008 26.8C44.1008 28.4016 45.3992 29.7 47.0008 29.7Z" fill="white"/>
<path d="M9.14985 67.8C9.14985 67.8 9.24986 67.8 9.24986 67.9L7.44985 73.2C7.44985 73.2 7.44985 73.2 7.34985 73.2H6.64985H6.54985L5.14985 69.1C5.14985 69 5.04985 69 4.94985 69.1L3.54985 73.2C3.54985 73.2 3.54985 73.2 3.44985 73.2H2.74986H2.64985L0.849854 67.9C0.849854 67.9 0.849852 67.8 0.949852 67.8H1.54985H1.64985L3.04985 72C3.04985 72.1 3.14986 72.1 3.24986 72L4.64985 67.8C4.64985 67.8 4.64986 67.8 4.74986 67.8H5.34985H5.44985L6.84985 72C6.84985 72.1 6.94985 72.1 7.04985 72L8.44985 67.8C8.44985 67.8 8.44985 67.8 8.54985 67.8H9.14985Z" fill="white"/>
<path d="M14.0499 67.8H14.4499C14.5499 67.8 14.6499 67.9 14.6499 68V73.1C14.6499 73.2 14.5499 73.3 14.4499 73.3H14.0499C13.9499 73.3 13.8499 73.2 13.8499 73.1V68C13.8499 67.9 13.9499 67.8 14.0499 67.8Z" fill="white"/>
<path d="M24.6499 67.9V73.2C24.6499 73.2 24.6499 73.3 24.5499 73.3H24.0499L20.8499 69.4H20.7499V73.2C20.7499 73.2 20.7499 73.3 20.6499 73.3H19.9499C19.9499 73.3 19.8499 73.3 19.8499 73.2V67.9C19.8499 67.9 19.8499 67.8 19.9499 67.8H20.4499L23.6499 71.7H23.7499V67.9C23.7499 67.9 23.7499 67.8 23.8499 67.8L24.6499 67.9C24.6499 67.9 24.6499 67.8 24.6499 67.9Z" fill="white"/>
<path d="M35.9498 67.8H36.3498C36.4498 67.8 36.5498 67.9 36.5498 68V73.1C36.5498 73.2 36.4498 73.3 36.3498 73.3H35.9498C35.8498 73.3 35.7498 73.2 35.7498 73.1V68C35.7498 67.9 35.8498 67.8 35.9498 67.8Z" fill="white"/>
<path d="M42.8499 68.5H41.2499C41.1499 68.5 41.1499 68.5 41.1499 68.4V67.9C41.1499 67.8 41.1499 67.8 41.2499 67.8H45.5499C45.6499 67.8 45.6499 67.8 45.6499 67.9V68.3C45.6499 68.4 45.6499 68.4 45.5499 68.4H43.9499C43.8499 68.4 43.8499 68.4 43.8499 68.5V73.1C43.8499 73.2 43.8499 73.2 43.7499 73.2H43.2499C43.1499 73.2 43.1499 73.2 43.1499 73.1V68.5C42.9499 68.6 42.9499 68.5 42.8499 68.5Z" fill="white"/>
<path d="M59.3499 71.9H56.5499C56.5499 71.9 56.4499 71.9 56.4499 72L55.9499 73.2C55.9499 73.2 55.9499 73.3 55.8499 73.3H55.2499L55.1499 73.2L57.5499 67.9C57.5499 67.9 57.5499 67.9 57.6499 67.9H58.2499H58.3499L60.7499 73.2C60.7499 73.3 60.7499 73.4 60.6499 73.4H60.0499C60.0499 73.4 59.9499 73.4 59.9499 73.3L59.4499 72.1C59.4499 72 59.4499 71.9 59.3499 71.9ZM59.0499 71.1L58.0499 68.8C58.0499 68.7 57.8499 68.7 57.8499 68.8L56.8499 71.1C56.8499 71.2 56.8499 71.3 56.9499 71.3H58.9499C59.0499 71.3 59.1499 71.2 59.0499 71.1Z" fill="white"/>
<path d="M65.4498 67.8H65.9498C66.0498 67.8 66.0498 67.8 66.0498 67.9V72.4C66.0498 72.5 66.0498 72.5 66.1498 72.5H68.8498C68.9498 72.5 68.9498 72.5 68.9498 72.6V73C68.9498 73.1 68.9498 73.1 68.8498 73.1H65.3498C65.2498 73.1 65.2498 73.1 65.2498 73V67.9C65.3498 67.9 65.4498 67.8 65.4498 67.8Z" fill="white"/>
<path d="M73.8499 67.8H74.3499C74.4499 67.8 74.4499 67.8 74.4499 67.9V72.4C74.4499 72.5 74.4499 72.5 74.5499 72.5H77.2499C77.3499 72.5 77.3499 72.5 77.3499 72.6V73C77.3499 73.1 77.3499 73.1 77.2499 73.1H73.7499C73.6499 73.1 73.6499 73.1 73.6499 73V67.9C73.6499 67.9 73.7499 67.8 73.8499 67.8Z" fill="white"/>
<path d="M10.6499 55.2C10.6499 55.2 10.5499 55.1 10.6499 55.1C11.5499 54.4 12.0499 53.4 12.0499 52.2C12.0499 49.9 10.1499 48.5 6.9499 48.5H1.2499C0.949905 48.5 0.649902 48.8 0.649902 49.1V61.9C0.649902 62.2 0.949905 62.5 1.2499 62.5H7.3499C10.8499 62.5 12.7499 61.1 12.7499 58.6C12.7499 57 12.0499 55.8 10.6499 55.2ZM6.7499 54.4H2.9499V50.4H6.7499C8.0499 50.4 9.6499 50.8 9.6499 52.4C9.7499 54 8.1499 54.4 6.7499 54.4ZM3.0499 56.3H7.3499C10.1499 56.3 10.4499 57.5 10.4499 58.4C10.4499 59.3 10.1499 60.5 7.3499 60.5H3.0499V56.3Z" fill="white"/>
<path d="M19.35 51.6C16.25 51.6 13.95 53.9 13.95 57.1C13.95 60.3 16.35 62.6 19.65 62.6C21.45 62.6 22.9499 61.6 23.5499 61.1C23.7499 60.9 23.8499 60.6 23.5499 60.4L22.95 59.7C22.75 59.5 22.45 59.4 22.25 59.6C21.75 60 20.85 60.6 19.65 60.6C17.85 60.6 16.45 59.6 16.15 58H23.75C24.15 58 24.5499 57.6 24.5499 57.3C24.65 53.9 22.45 51.6 19.35 51.6ZM19.35 53.6C20.95 53.6 22.15 54.6 22.45 56.1H16.35C16.55 54.6 17.75 53.6 19.35 53.6Z" fill="white"/>
<path d="M38.3499 62.5H39.7499C40.0499 62.5 40.2499 62.3 40.2499 62V48.9C40.2499 48.6 40.0499 48.4 39.7499 48.4H38.3499C38.0499 48.4 37.8499 48.6 37.8499 48.9V62C37.8499 62.2 38.1499 62.5 38.3499 62.5Z" fill="white"/>
<path d="M47.15 60.6C46.25 60.6 45.75 60.1 45.75 59.1V54C45.75 53.8 45.85 53.7 46.05 53.7H48.35C48.55 53.7 48.65 53.6 48.65 53.4V52.1C48.65 51.9 48.55 51.8 48.35 51.8H46.05C45.85 51.8 45.75 51.7 45.75 51.5V49.8C45.75 49.6 45.65 49.5 45.45 49.5H43.75C43.55 49.5 43.45 49.6 43.45 49.8V51.4C43.45 51.6 43.35 51.7 43.15 51.7H42.05C41.85 51.7 41.75 51.8 41.75 52V53.3C41.75 53.5 41.85 53.6 42.05 53.6H43.15C43.35 53.6 43.45 53.7 43.45 53.9V59.1C43.45 61.3 44.75 62.6 46.95 62.6C48.25 62.6 49.05 62.1 49.35 61.9C49.45 61.8 49.45 61.7 49.35 61.6L48.75 60.3C48.75 60.2 48.55 60.1 48.35 60.2C48.15 60.3 47.75 60.6 47.15 60.6Z" fill="white"/>
<path d="M29.9498 60.6C29.0498 60.6 28.5498 60.1 28.5498 59.1V54C28.5498 53.8 28.6498 53.7 28.8498 53.7H31.1498C31.3498 53.7 31.4498 53.6 31.4498 53.4V52.1C31.4498 51.9 31.3498 51.8 31.1498 51.8H28.8498C28.6498 51.8 28.5498 51.7 28.5498 51.5V49.8C28.5498 49.6 28.4498 49.5 28.2498 49.5H26.5498C26.3498 49.5 26.2498 49.6 26.2498 49.8V51.4C26.2498 51.6 26.1498 51.7 25.9498 51.7H24.8498C24.6498 51.7 24.5498 51.8 24.5498 52V53.3C24.5498 53.5 24.6498 53.6 24.8498 53.6H25.9498C26.1498 53.6 26.2498 53.7 26.2498 53.9V59.1C26.2498 61.3 27.5498 62.6 29.7498 62.6C31.0498 62.6 31.8498 62.1 32.1498 61.9C32.2498 61.8 32.2498 61.7 32.1498 61.6L31.5498 60.3C31.5498 60.2 31.3498 60.1 31.1498 60.2C30.9498 60.3 30.4498 60.6 29.9498 60.6Z" fill="white"/>
<path d="M59.8499 49L53.9499 62.1C53.8499 62.2 53.9499 62.4 54.1499 62.4H56.1499C56.2499 62.4 56.3499 62.4 56.3499 62.3L57.7499 59H64.7499L66.1499 62.3C66.1499 62.4 66.2499 62.4 66.3499 62.4H68.3499C68.5499 62.4 68.6499 62.2 68.5499 62.1L62.5499 49C62.3499 48.6 61.9499 48.4 61.5499 48.4H60.7499C60.4499 48.4 60.0499 48.7 59.8499 49ZM63.8499 57.1H58.5499L61.1499 51.1L63.8499 57.1Z" fill="white"/>
<path d="M70.0498 62.5H71.3498C71.6498 62.5 71.8498 62.3 71.8498 62V48.1C71.8498 47.8 71.6498 47.6 71.3498 47.6H70.0498C69.7498 47.6 69.5498 47.8 69.5498 48.1V61.9C69.5498 62.2 69.7498 62.5 70.0498 62.5Z" fill="white"/>
<path d="M74.1499 48.1V61.9C74.1499 62.2 74.3499 62.4 74.6499 62.4H75.9499C76.2499 62.4 76.4499 62.2 76.4499 61.9V48.1C76.4499 47.8 76.2499 47.6 75.9499 47.6H74.6499C74.3499 47.6 74.1499 47.8 74.1499 48.1Z" fill="white"/>
</svg>
