<svg width="62" height="20" viewBox="0 0 62 20" fill="none" xmlns="http://www.w3.org/2000/svg">
<path d="M15.7605 11.9353C14.6919 16.221 10.3507 18.8292 6.064 17.7605C1.77906 16.692 -0.829473 12.3511 0.23964 8.0656C1.30775 3.77938 5.64899 1.17091 9.93444 2.2394C14.2209 3.30788 16.8292 7.64935 15.7605 11.9353Z" fill="#F7841A"/>
<path d="M11.9791 9.02021C12.1456 7.96942 11.2984 7.40454 10.1399 7.02775L10.5157 5.60433L9.59824 5.38842L9.23239 6.77429C8.99121 6.71754 8.74346 6.664 8.49731 6.61096L8.86573 5.21592L7.94876 5L7.57276 6.42287C7.3731 6.37996 7.1771 6.3375 6.98687 6.29283L6.98792 6.28842L5.72261 5.99004L5.47853 6.91546C5.47853 6.91546 6.15929 7.06279 6.14489 7.07192C6.51651 7.1595 6.58367 7.39171 6.57243 7.57583L6.14438 9.19737C6.16998 9.20354 6.20316 9.21242 6.23975 9.22625C6.20918 9.21908 6.17651 9.21117 6.14282 9.20354L5.54282 11.4751C5.49735 11.5817 5.38211 11.7416 5.12236 11.6809C5.1315 11.6935 4.4555 11.5237 4.4555 11.5237L4 12.5155L5.19398 12.7965C5.41609 12.8491 5.63377 12.9042 5.84805 12.956L5.46834 14.3957L6.3848 14.6116L6.76085 13.1872C7.01116 13.2514 7.2542 13.3106 7.49201 13.3664L7.11727 14.7841L8.03474 15L8.41445 13.563C9.97896 13.8426 11.1554 13.7299 11.6506 12.3936C12.0497 11.3176 11.6307 10.697 10.8076 10.2923C11.4071 10.1617 11.8586 9.78937 11.9791 9.02021ZM9.88279 11.7961C9.59929 12.8721 7.68093 12.2904 7.05899 12.1446L7.56283 10.2373C8.18476 10.3838 10.1791 10.6741 9.88279 11.7961ZM10.1666 9.00462C9.90788 9.98333 8.31125 9.48608 7.79331 9.36417L8.25007 7.63429C8.76801 7.75621 10.436 7.98375 10.1666 9.00462Z" fill="white"/>
<path d="M26.2811 10.6187C26.5369 10.7001 26.7397 10.837 26.8897 11.0295C27.0397 11.2178 27.1146 11.4531 27.1146 11.7356C27.1146 12.125 26.9603 12.4266 26.6516 12.6406C26.3428 12.8502 25.893 12.9551 25.3021 12.9551H23V8.46213H25.1698C25.7166 8.46213 26.1378 8.56695 26.4333 8.77664C26.7287 8.98203 26.8765 9.26657 26.8765 9.6303C26.8765 9.85282 26.8235 10.0496 26.7177 10.2208C26.6119 10.392 26.4663 10.5246 26.2811 10.6187ZM23.86 9.11682V10.3556H25.0772C25.377 10.3556 25.6064 10.3042 25.7651 10.2015C25.9283 10.0946 26.0099 9.94051 26.0099 9.73941C26.0099 9.53402 25.9283 9.37997 25.7651 9.27728C25.6064 9.17029 25.377 9.11682 25.0772 9.11682H23.86ZM25.2491 12.3004C25.9151 12.3004 26.248 12.0843 26.248 11.6521C26.248 11.22 25.9151 11.0039 25.2491 11.0039H23.86V12.3004H25.2491ZM27.953 9.5276H28.7799V12.9551H27.953V9.5276ZM28.3698 8.96277C28.2198 8.96277 28.0942 8.91784 27.9927 8.82798C27.8913 8.73383 27.8406 8.6183 27.8406 8.48139C27.8406 8.34447 27.8913 8.23107 27.9927 8.14121C28.0942 8.04706 28.2198 8 28.3698 8C28.5197 8 28.6454 8.04493 28.7469 8.13479C28.8483 8.22035 28.899 8.32947 28.899 8.46213C28.899 8.60334 28.8483 8.72316 28.7469 8.82157C28.6498 8.91572 28.5241 8.96277 28.3698 8.96277ZM31.9887 12.7689C31.8917 12.846 31.7726 12.9037 31.6315 12.9422C31.4947 12.9807 31.3492 13 31.1949 13C30.8068 13 30.5069 12.9016 30.2952 12.7047C30.0835 12.5079 29.9777 12.2212 29.9777 11.8447V10.1951H29.3956V9.55327H29.9777V8.77022H30.8046V9.55327H31.7505V10.1951H30.8046V11.8254C30.8046 11.9923 30.8465 12.1207 30.9303 12.2105C31.014 12.2961 31.1353 12.3389 31.2941 12.3389C31.4793 12.3389 31.6337 12.2918 31.7572 12.1977L31.9887 12.7689ZM34.1733 13C33.8073 13 33.4787 12.9251 33.1877 12.7754C32.8966 12.6256 32.6695 12.418 32.5063 12.1528C32.3431 11.8832 32.2616 11.5794 32.2616 11.2413C32.2616 10.9033 32.3431 10.6016 32.5063 10.3363C32.6695 10.071 32.8944 9.86349 33.1811 9.71374C33.4721 9.56398 33.8029 9.48909 34.1733 9.48909C34.5217 9.48909 34.826 9.55757 35.0862 9.69448C35.3508 9.83139 35.5493 10.0282 35.6816 10.285L35.0465 10.6444C34.9451 10.4861 34.8172 10.3684 34.6629 10.2914C34.5129 10.2101 34.3475 10.1694 34.1667 10.1694C33.858 10.1694 33.6022 10.2679 33.3994 10.4647C33.1965 10.6573 33.0951 10.9161 33.0951 11.2413C33.0951 11.5666 33.1943 11.8275 33.3927 12.0244C33.5956 12.2169 33.8536 12.3132 34.1667 12.3132C34.3475 12.3132 34.5129 12.2747 34.6629 12.1977C34.8172 12.1164 34.9451 11.9966 35.0465 11.8383L35.6816 12.1977C35.5449 12.4544 35.3442 12.6534 35.0796 12.7946C34.8194 12.9315 34.5173 13 34.1733 13ZM37.9323 13C37.5751 13 37.2532 12.9251 36.9665 12.7754C36.6799 12.6256 36.4549 12.418 36.2918 12.1528C36.133 11.8832 36.0536 11.5794 36.0536 11.2413C36.0536 10.9033 36.133 10.6016 36.2918 10.3363C36.4549 10.071 36.6799 9.86349 36.9665 9.71374C37.2532 9.56398 37.5751 9.48909 37.9323 9.48909C38.2939 9.48909 38.6181 9.56398 38.9048 9.71374C39.1914 9.86349 39.4141 10.071 39.5729 10.3363C39.736 10.6016 39.8177 10.9033 39.8177 11.2413C39.8177 11.5794 39.736 11.8832 39.5729 12.1528C39.4141 12.418 39.1914 12.6256 38.9048 12.7754C38.6181 12.9251 38.2939 13 37.9323 13ZM37.9323 12.3132C38.2366 12.3132 38.488 12.2148 38.6865 12.018C38.8849 11.8211 38.9842 11.5623 38.9842 11.2413C38.9842 10.9204 38.8849 10.6615 38.6865 10.4647C38.488 10.2679 38.2366 10.1694 37.9323 10.1694C37.628 10.1694 37.3767 10.2679 37.1782 10.4647C36.9841 10.6615 36.8872 10.9204 36.8872 11.2413C36.8872 11.5623 36.9841 11.8211 37.1782 12.018C37.3767 12.2148 37.628 12.3132 37.9323 12.3132ZM40.6084 9.5276H41.4351V12.9551H40.6084V9.5276ZM41.0251 8.96277C40.8752 8.96277 40.7495 8.91784 40.6481 8.82798C40.5466 8.73383 40.4959 8.6183 40.4959 8.48139C40.4959 8.34447 40.5466 8.23107 40.6481 8.14121C40.7495 8.04706 40.8752 8 41.0251 8C41.175 8 41.3007 8.04493 41.4021 8.13479C41.5038 8.22035 41.5542 8.32947 41.5542 8.46213C41.5542 8.60334 41.5038 8.72316 41.4021 8.82157C41.3052 8.91572 41.1795 8.96277 41.0251 8.96277ZM44.5248 9.48909C44.9705 9.48909 45.3277 9.61533 45.5965 9.86778C45.8656 10.1202 46 10.4947 46 10.991V12.9551H45.1731V11.0937C45.1731 10.7942 45.1003 10.5695 44.9548 10.4198C44.8093 10.2657 44.6021 10.1887 44.333 10.1887C44.0287 10.1887 43.7885 10.2786 43.6119 10.4583C43.4358 10.6337 43.3473 10.8883 43.3473 11.2221V12.9551H42.5204V9.5276H43.3076V9.97047C43.4445 9.81214 43.6165 9.69235 43.8236 9.61104C44.0312 9.52973 44.2648 9.48909 44.5248 9.48909Z" fill="white"/>
<path d="M52.3155 10.4028C52.5741 10.4908 52.7792 10.6389 52.9305 10.8472C53.0821 11.0509 53.1577 11.3056 53.1577 11.6111C53.1577 12.0324 53.0019 12.3588 52.6898 12.5903C52.3782 12.8171 51.9236 12.9306 51.3262 12.9306H49V8.06944H51.1925C51.7452 8.06944 52.1709 8.18286 52.4692 8.40972C52.7679 8.63194 52.9171 8.9398 52.9171 9.33333C52.9171 9.57409 52.8636 9.78702 52.7567 9.97222C52.6497 10.1574 52.5027 10.3009 52.3155 10.4028ZM49.869 8.77778V10.1181H51.0989C51.4022 10.1181 51.6337 10.0625 51.7941 9.95139C51.9591 9.83563 52.0414 9.66897 52.0414 9.45139C52.0414 9.22917 51.9591 9.0625 51.7941 8.95139C51.6337 8.83563 51.4022 8.77778 51.0989 8.77778H49.869ZM51.2727 12.2222C51.9458 12.2222 52.2821 11.9884 52.2821 11.5208C52.2821 11.0533 51.9458 10.8194 51.2727 10.8194H49.869V12.2222H51.2727ZM54.9692 8.83333H53.4184V8.06944H57.389V8.83333H55.8382V12.9306H54.9692V8.83333ZM60.1417 13C59.6692 13 59.2414 12.8935 58.8583 12.6806C58.4794 12.463 58.1807 12.1644 57.9626 11.7847C57.7487 11.4051 57.6417 10.9769 57.6417 10.5C57.6417 10.0231 57.7508 9.59492 57.9693 9.21528C58.1874 8.83563 58.4861 8.53937 58.865 8.32639C59.2481 8.10881 59.6759 8 60.1484 8C60.5315 8 60.8812 8.06945 61.1979 8.20833C61.5141 8.34722 61.7815 8.54861 62 8.8125L61.4385 9.36111C61.0997 8.98147 60.6832 8.79167 60.1885 8.79167C59.8677 8.79167 59.5802 8.86576 59.3262 9.01389C59.0722 9.15742 58.8738 9.35881 58.7313 9.61806C58.5884 9.8773 58.5174 10.1713 58.5174 10.5C58.5174 10.8287 58.5884 11.1227 58.7313 11.3819C58.8738 11.6412 59.0722 11.8449 59.3262 11.9931C59.5802 12.1366 59.8677 12.2083 60.1885 12.2083C60.6832 12.2083 61.0997 12.0162 61.4385 11.6319L62 12.1875C61.7815 12.4514 61.512 12.6528 61.1912 12.7917C60.8745 12.9306 60.5248 13 60.1417 13Z" fill="#DCDCDC"/>
</svg>
