<svg width="17" height="18" viewBox="0 0 17 18" fill="none" xmlns="http://www.w3.org/2000/svg">
<path d="M9.27273 4.50022H7.72727V9.00015H1.54545C1.13557 9.00015 0.742482 8.84212 0.452653 8.56082C0.162824 8.27952 0 7.89799 0 7.50017V6.0002C0 5.60238 0.162824 5.22086 0.452653 4.93956C0.742482 4.65826 1.13557 4.50022 1.54545 4.50022H3.50509C3.12171 3.8559 2.99871 3.09629 3.15998 2.36889C3.32124 1.64149 3.75526 0.998206 4.37776 0.563952C5.00026 0.129698 5.76681 -0.0645392 6.52858 0.0189561C7.29035 0.102451 7.99296 0.457721 8.5 1.01578C9.00704 0.457721 9.70965 0.102451 10.4714 0.0189561C11.2332 -0.0645392 11.9997 0.129698 12.6222 0.563952C13.2447 0.998206 13.6788 1.64149 13.84 2.36889C14.0013 3.09629 13.8783 3.8559 13.4949 4.50022H15.4545C15.8644 4.50022 16.2575 4.65826 16.5473 4.93956C16.8372 5.22086 17 5.60238 17 6.0002V7.50017C17 7.89799 16.8372 8.27952 16.5473 8.56082C16.2575 8.84212 15.8644 9.00015 15.4545 9.00015H9.27273V4.50022ZM4.63636 3.00025C4.63636 3.39807 4.79919 3.77959 5.08902 4.06089C5.37885 4.34219 5.77194 4.50022 6.18182 4.50022H7.72727V3.00025C7.72727 2.60243 7.56445 2.22091 7.27462 1.93961C6.98479 1.65831 6.5917 1.50027 6.18182 1.50027C5.77194 1.50027 5.37885 1.65831 5.08902 1.93961C4.79919 2.22091 4.63636 2.60243 4.63636 3.00025ZM9.27273 4.50022H10.8182C11.1238 4.50022 11.4226 4.41225 11.6768 4.24743C11.9309 4.08261 12.129 3.84835 12.246 3.57426C12.363 3.30018 12.3936 2.99858 12.3339 2.70762C12.2743 2.41665 12.1271 2.14938 11.911 1.93961C11.6948 1.72983 11.4195 1.58697 11.1197 1.52909C10.8199 1.47122 10.5092 1.50092 10.2268 1.61445C9.94437 1.72798 9.703 1.92024 9.53318 2.16691C9.36337 2.41358 9.27273 2.70358 9.27273 3.00025V4.50022ZM15.4545 10.5001H9.27273V18H12.3636C13.1834 18 13.9696 17.6839 14.5492 17.1213C15.1289 16.5587 15.4545 15.7957 15.4545 15V10.5001ZM7.72727 18V10.5001H1.54545V15C1.54545 15.7957 1.8711 16.5587 2.45076 17.1213C3.03042 17.6839 3.8166 18 4.63636 18H7.72727Z" fill="#FFB038"/>
</svg>
