<svg width="16" height="16" viewBox="0 0 16 17" fill="none" xmlns="http://www.w3.org/2000/svg">
<path d="M8 0.5C12.4184 0.5 16 4.0816 16 8.5C16 12.9184 12.4184 16.5 8 16.5H1.6C1.17565 16.5 0.768687 16.3314 0.468629 16.0314C0.168571 15.7313 0 15.3243 0 14.9V8.5C0 4.0816 3.5816 0.5 8 0.5ZM8 10.1H5.6C5.38783 10.1 5.18434 10.1843 5.03431 10.3343C4.88429 10.4843 4.8 10.6878 4.8 10.9C4.8 11.1122 4.88429 11.3157 5.03431 11.4657C5.18434 11.6157 5.38783 11.7 5.6 11.7H8C8.21217 11.7 8.41566 11.6157 8.56569 11.4657C8.71571 11.3157 8.8 11.1122 8.8 10.9C8.8 10.6878 8.71571 10.4843 8.56569 10.3343C8.41566 10.1843 8.21217 10.1 8 10.1ZM10.4 6.9H5.6C5.3961 6.90023 5.19997 6.9783 5.05171 7.11828C4.90344 7.25825 4.81421 7.44956 4.80226 7.65312C4.79031 7.85667 4.85654 8.0571 4.98741 8.21347C5.11828 8.36983 5.30392 8.47032 5.5064 8.4944L5.6 8.5H10.4C10.6039 8.49977 10.8 8.4217 10.9483 8.28172C11.0966 8.14175 11.1858 7.95044 11.1977 7.74688C11.2097 7.54333 11.1435 7.3429 11.0126 7.18653C10.8817 7.03017 10.6961 6.92968 10.4936 6.9056L10.4 6.9Z" fill="#FFB038"/>
</svg>
