<svg width="58" height="19" viewBox="0 0 58 19" fill="none" xmlns="http://www.w3.org/2000/svg">
<path d="M54 1H5C2.79086 1 1 2.79086 1 5V15C1 17.2091 2.79086 19 5 19H54C56.2091 19 58 17.2091 58 15V5C58 2.79086 56.2091 1 54 1Z" fill="#D60730"/>
<path d="M14 8.29394C14 8.08528 13.9187 8 13.0448 8H12.9878C12.022 8 12 8.08528 12 8.29394V14.716C12 14.9287 12.022 15 12.9878 15H13.0448C13.9187 15 14 14.9287 14 14.716V8.29394Z" fill="white"/>
<path d="M14 6.00715C14 5.46963 13.5802 5 13.0018 5C12.4304 5 12 5.46963 12 6.00715C12 6.5318 12.4304 7 13.0018 7C13.5802 7 14 6.5318 14 6.00715Z" fill="white"/>
<path d="M46 14.7166C46 14.9139 45.9113 15 45.0319 15H44.9688C44.0228 15 44 14.9139 44 14.7166V5.28636C44 5.08067 44.0228 5 44.9688 5H45.0319C45.9113 5 46 5.08067 46 5.28636V14.7166Z" fill="white"/>
<path fill-rule="evenodd" clip-rule="evenodd" d="M34.233 14.8719C34.91 14.8719 35 14.8017 35 14.5389V5.28237C35 5.07972 34.91 5 34.0432 5H33.9799C33.0422 5 33.0241 5.07972 33.0241 5.28237V8.28662C32.6869 8.0035 32.2559 7.84657 31.7889 7.84657C30.1229 7.84657 29 9.21729 29 11.5316C29 13.6657 30.0085 15 31.6877 15C32.3792 15 32.8368 14.7409 33.2103 14.2581C33.2134 14.273 33.2166 14.2884 33.2197 14.3042L33.2212 14.3115L33.2215 14.3126C33.244 14.4241 33.2701 14.5536 33.2987 14.6408C33.3554 14.8312 33.4569 14.8719 34.1652 14.8719H34.233ZM32.1245 9.54837C32.4794 9.54837 32.7784 9.70723 33.0241 9.97439V12.2592C33.0241 12.7184 32.9779 12.9195 32.8688 13.0533C32.745 13.2249 32.4794 13.3122 32.1299 13.3122C31.854 13.3122 31.5644 13.2273 31.3791 12.9826C31.1693 12.7326 31.0238 12.2655 31.0238 11.5316C31.0238 10.2481 31.3791 9.54837 32.1245 9.54837Z" fill="white"/>
<path d="M8.59187 6.97914C7.19892 6.97914 6.279 8.04594 6.279 9.99332C6.279 11.9462 7.19892 12.9894 8.59187 12.9894C9.11204 12.9894 9.55833 12.8349 10.0846 12.5627C10.2773 12.4631 10.4313 12.5006 10.6844 13.112L10.86 13.5548C11.0441 14.0465 11.0562 14.2607 10.8389 14.3662C10.1955 14.7536 9.1751 15 8.31255 15C5.85887 15 4 12.9983 4 9.99332C4 6.98659 5.85887 5 8.31255 5C9.1751 5 10.1692 5.23417 10.8097 5.62741C11.0326 5.73041 11.0197 5.9436 10.8389 6.44181L10.6585 6.85688C10.4098 7.46331 10.2533 7.4997 10.0606 7.40501C9.53049 7.13771 9.11204 6.97914 8.59187 6.97914Z" fill="white"/>
<path fill-rule="evenodd" clip-rule="evenodd" d="M40.3898 13.4048C39.6305 13.4048 39.1379 13.0009 39.0291 12.1784H42.7219C42.9441 12.1784 43 12.1107 43 11.445C43 9.4465 42.0057 8 40.0873 8C38.1352 8 37 9.46449 37 11.5694C37 13.7385 38.2396 15 40.2073 15C41.0959 15 41.8951 14.8171 42.665 14.3656C42.8245 14.2745 42.8343 14.1707 42.6881 13.6883L42.5869 13.433C42.4443 12.9642 42.3257 12.9068 42.1873 12.9642C41.5464 13.2635 40.9892 13.4048 40.3898 13.4048ZM40.0607 9.5833C40.723 9.5833 40.9892 10.1913 41.0186 10.8843H39.0051C39.0828 10.0288 39.495 9.5833 40.0607 9.5833Z" fill="white"/>
<path fill-rule="evenodd" clip-rule="evenodd" d="M50.0293 12.1784C50.1414 13.0009 50.6228 13.4048 51.391 13.4048C51.9832 13.4048 52.541 13.2635 53.1867 12.9642C53.3205 12.9068 53.4409 12.9642 53.5859 13.433L53.6828 13.6883C53.8285 14.1707 53.8179 14.2745 53.6671 14.3656C52.8992 14.8171 52.0939 15 51.204 15C49.2349 15 48 13.7385 48 11.5694C48 9.46449 49.1338 8 51.0806 8C53.009 8 54 9.4465 54 11.445C54 12.1107 53.9428 12.1784 53.7179 12.1784H50.0293ZM52.0191 10.8843C51.9832 10.1913 51.7124 9.5833 51.0618 9.5833C50.4946 9.5833 50.08 10.0288 50.0049 10.8843H52.0191Z" fill="white"/>
<path fill-rule="evenodd" clip-rule="evenodd" d="M26.2291 14.8752C26.9114 14.8752 27 14.8061 27 14.5493V8.39628C27 8.19037 26.8895 8.12945 26.1315 8.12945H26.0513C25.316 8.12945 25.2809 8.22185 25.2661 8.36292L25.2396 8.65215C24.9489 8.27803 24.415 8 23.796 8C22.2804 8 21 9.30292 21 11.6275C21 13.7194 22.0352 15 23.6519 15C24.3473 15 24.8023 14.7463 25.1779 14.2747C25.2042 14.3936 25.2396 14.5493 25.2661 14.6481C25.3281 14.8354 25.4266 14.8752 26.1369 14.8752H26.2291ZM24.1306 9.68014C24.4813 9.68014 24.8023 9.86267 24.9943 10.1315V12.2717C24.9943 12.7614 24.9358 12.9801 24.7903 13.1388C24.6383 13.3031 24.415 13.3849 24.108 13.3849C23.2955 13.3849 23.0317 12.6177 23.0317 11.5814C23.0317 10.3654 23.3873 9.68014 24.1306 9.68014Z" fill="white"/>
<path d="M18.2757 6C19.0828 6 19.1275 6.008 19.1275 6.26964V7.99707H20.5145C20.7075 7.99707 20.7663 8.03166 20.7663 8.68263V8.77765C20.7663 9.43053 20.7075 9.46612 20.5145 9.46612H19.1275V12.5726C19.1275 13.099 19.2216 13.374 19.7048 13.374C19.9581 13.374 20.1817 13.3172 20.3936 13.2511C20.6234 13.1577 20.7075 13.2703 20.8638 13.8158L20.9015 13.9435C21.0648 14.5406 21.0206 14.5936 20.8017 14.6943C20.3682 14.8885 19.7933 15 19.2505 15C17.5363 15 17.056 14.1546 17.056 12.6682V9.46612H16.2484C16.0475 9.46612 16 9.43053 16 8.77765V8.68263C16 8.03166 16.0475 7.99707 16.2484 7.99707H17.156C17.2503 7.44071 17.4257 6.65997 17.5252 6.26964C17.5892 6.04818 17.6228 6 18.2757 6Z" fill="white"/>
</svg>
