<svg width="10" height="9" viewBox="0 0 10 9" fill="none" xmlns="http://www.w3.org/2000/svg">
<path d="M8.03131 8.72792L5.00085 5.69746L1.9704 8.72792C1.63705 9.06127 1.09156 9.06127 0.758214 8.72792C0.424863 8.39457 0.424863 7.84909 0.758213 7.51574L3.78867 4.48528L0.758213 1.45482C0.424863 1.12147 0.424863 0.575991 0.758214 0.24264C1.09156 -0.0907099 1.63705 -0.0907101 1.9704 0.24264L5.00085 3.2731L8.03131 0.24264C8.36466 -0.0907101 8.91015 -0.0907099 9.2435 0.24264C9.57685 0.575991 9.57685 1.12147 9.2435 1.45482L6.21304 4.48528L9.2435 7.51574C9.57685 7.84909 9.57685 8.39457 9.2435 8.72792C8.91014 9.06127 8.36466 9.06127 8.03131 8.72792Z" fill="white"/>
</svg>
