<svg width="63" height="16" viewBox="0 0 63 16" fill="none" xmlns="http://www.w3.org/2000/svg">
<path d="M1 6.08287H3.05599C3.54736 6.08287 3.98054 6.18417 4.35554 6.38674C4.73485 6.58473 5.02794 6.86555 5.23483 7.22928C5.44604 7.59301 5.55163 8.01657 5.55163 8.5C5.55163 8.98343 5.44604 9.40699 5.23483 9.77072C5.02794 10.1345 4.73485 10.4176 4.35554 10.6202C3.98054 10.8182 3.54736 10.9171 3.05599 10.9171H1V6.08287ZM3.00427 9.99862C3.45685 9.99862 3.81675 9.86511 4.08399 9.59807C4.35554 9.32644 4.49131 8.96042 4.49131 8.5C4.49131 8.03958 4.35554 7.67589 4.08399 7.40884C3.81675 7.13721 3.45685 7.00138 3.00427 7.00138H2.04739V9.99862H3.00427ZM9.84577 10.0193V10.9171H6.34153V6.08287H9.76172V6.98066H7.38246V8.03039H9.48371V8.90055H7.38246V10.0193H9.84577ZM12.6381 6.08287C13.039 6.08287 13.386 6.15422 13.6791 6.29696C13.9765 6.4397 14.2049 6.64227 14.3644 6.9047C14.5239 7.16713 14.6036 7.4779 14.6036 7.83702C14.6036 8.19152 14.5239 8.50229 14.3644 8.76934C14.2049 9.03177 13.9765 9.23433 13.6791 9.37707C13.386 9.51519 13.039 9.58425 12.6381 9.58425H11.7265V10.9171H10.6791V6.08287H12.6381ZM12.58 8.67265C12.8946 8.67265 13.1338 8.6013 13.2976 8.45856C13.4614 8.31125 13.5433 8.10406 13.5433 7.83702C13.5433 7.56539 13.4614 7.35821 13.2976 7.21547C13.1338 7.06815 12.8946 6.99448 12.58 6.99448H11.7265V8.67265H12.58ZM17.6063 11C17.1365 11 16.7119 10.8918 16.3326 10.6754C15.9576 10.459 15.6624 10.1621 15.4469 9.78453C15.2357 9.40241 15.1301 8.97423 15.1301 8.5C15.1301 8.02577 15.2357 7.59992 15.4469 7.22238C15.6624 6.84025 15.9576 6.54096 16.3326 6.32459C16.7119 6.10821 17.1365 6 17.6063 6C18.0761 6 18.4985 6.10821 18.8735 6.32459C19.2485 6.54096 19.5437 6.84025 19.7593 7.22238C19.9748 7.59992 20.0826 8.02577 20.0826 8.5C20.0826 8.97423 19.9748 9.40241 19.7593 9.78453C19.5437 10.1621 19.2485 10.459 18.8735 10.6754C18.4985 10.8918 18.0761 11 17.6063 11ZM17.6063 10.047C17.8735 10.047 18.1149 9.98252 18.3304 9.85359C18.5459 9.72009 18.714 9.53591 18.8347 9.30111C18.9597 9.0663 19.0222 8.79925 19.0222 8.5C19.0222 8.20075 18.9597 7.9337 18.8347 7.69889C18.714 7.46409 18.5459 7.28224 18.3304 7.15331C18.1149 7.01981 17.8735 6.95304 17.6063 6.95304C17.3391 6.95304 17.0977 7.01981 16.8822 7.15331C16.6667 7.28224 16.4964 7.46409 16.3714 7.69889C16.2507 7.9337 16.1904 8.20075 16.1904 8.5C16.1904 8.79925 16.2507 9.0663 16.3714 9.30111C16.4964 9.53591 16.6667 9.72009 16.8822 9.85359C17.0977 9.98252 17.3391 10.047 17.6063 10.047ZM22.3567 11C21.999 11 21.652 10.9494 21.3158 10.8481C20.9839 10.7422 20.7167 10.6064 20.5141 10.4406L20.8697 9.59807C21.0637 9.75 21.2943 9.87202 21.5615 9.96409C21.8287 10.0562 22.096 10.1022 22.3632 10.1022C22.6606 10.1022 22.8804 10.0562 23.0227 9.96409C23.1649 9.8674 23.236 9.7408 23.236 9.58425C23.236 9.46914 23.1929 9.37478 23.1067 9.30111C23.0248 9.22285 22.9171 9.16069 22.7835 9.11464C22.6541 9.06859 22.4774 9.01796 22.2533 8.96271C21.9085 8.87522 21.6262 8.78776 21.4063 8.70028C21.1865 8.61279 20.9969 8.47238 20.8374 8.27901C20.6822 8.08564 20.6046 7.82782 20.6046 7.50552C20.6046 7.22467 20.6757 6.97147 20.818 6.74586C20.9602 6.51567 21.1736 6.33378 21.458 6.20028C21.7468 6.06677 22.0981 6 22.5119 6C22.8007 6 23.083 6.03682 23.3589 6.1105C23.6347 6.18417 23.8761 6.29006 24.083 6.42818L23.7597 7.27762C23.3416 7.02439 22.9235 6.89779 22.5054 6.89779C22.2124 6.89779 21.9947 6.94842 21.8524 7.04972C21.7145 7.15103 21.6455 7.28453 21.6455 7.45028C21.6455 7.61602 21.7253 7.74033 21.8848 7.8232C22.0485 7.90146 22.2964 7.97975 22.6283 8.05801C22.9731 8.1455 23.2554 8.23295 23.4753 8.32044C23.6951 8.40793 23.8826 8.54605 24.0377 8.73481C24.1972 8.92356 24.277 9.17909 24.277 9.50138C24.277 9.77762 24.2037 10.0309 24.0571 10.261C23.9149 10.4867 23.6994 10.6662 23.4106 10.7997C23.1218 10.9332 22.7705 11 22.3567 11ZM24.9926 6.08287H26.04V10.9171H24.9926V6.08287ZM28.0516 6.99448H26.6033V6.08287H30.5472V6.99448H29.099V10.9171H28.0516V6.99448ZM36.446 10.0193V10.9171H32.9418V6.08287H36.3619V6.98066H33.9827V8.03039H36.0839V8.90055H33.9827V10.0193H36.446ZM40.0863 10.9171L38.9937 9.23895L37.9204 10.9171H36.7179L38.3924 8.45856L36.8019 6.08287H37.9915L39.0325 7.65055L40.054 6.08287H41.1854L39.6079 8.41713L41.2954 10.9171H40.0863ZM43.6644 6.08287C44.0653 6.08287 44.4123 6.15422 44.7053 6.29696C45.0027 6.4397 45.2311 6.64227 45.3907 6.9047C45.5503 7.16713 45.6299 7.4779 45.6299 7.83702C45.6299 8.19152 45.5503 8.50229 45.3907 8.76934C45.2311 9.03177 45.0027 9.23433 44.7053 9.37707C44.4123 9.51519 44.0653 9.58425 43.6644 9.58425H42.7528V10.9171H41.7054V6.08287H43.6644ZM43.6062 8.67265C43.921 8.67265 44.1602 8.6013 44.3239 8.45856C44.4875 8.31125 44.5696 8.10406 44.5696 7.83702C44.5696 7.56539 44.4875 7.35821 44.3239 7.21547C44.1602 7.06815 43.921 6.99448 43.6062 6.99448H42.7528V8.67265H43.6062ZM49.2614 10.9171L48.3886 9.57044H48.3368H47.4252V10.9171H46.3778V6.08287H48.3368C48.7377 6.08287 49.0844 6.15422 49.3778 6.29696C49.6752 6.4397 49.9035 6.64227 50.0631 6.9047C50.2224 7.16713 50.3023 7.4779 50.3023 7.83702C50.3023 8.19613 50.2203 8.50691 50.0566 8.76934C49.897 9.02715 49.6687 9.22514 49.3713 9.36326L50.3864 10.9171H49.2614ZM49.242 7.83702C49.242 7.56539 49.16 7.35821 48.9963 7.21547C48.8323 7.06815 48.5931 6.99448 48.2787 6.99448H47.4252V8.67956H48.2787C48.5931 8.67956 48.8323 8.60588 48.9963 8.45856C49.16 8.31125 49.242 8.10406 49.242 7.83702ZM54.6362 10.0193V10.9171H51.1319V6.08287H54.5521V6.98066H52.1729V8.03039H54.2741V8.90055H52.1729V10.0193H54.6362ZM56.9566 11C56.5989 11 56.2518 10.9494 55.9156 10.8481C55.5839 10.7422 55.3167 10.6064 55.1139 10.4406L55.4695 9.59807C55.6635 9.75 55.8942 9.87202 56.1613 9.96409C56.4288 10.0562 56.6959 10.1022 56.963 10.1022C57.2604 10.1022 57.4803 10.0562 57.6225 9.96409C57.7647 9.8674 57.8359 9.7408 57.8359 9.58425C57.8359 9.46914 57.793 9.37478 57.7065 9.30111C57.6249 9.22285 57.517 9.16069 57.3833 9.11464C57.254 9.06859 57.0774 9.01796 56.8531 8.96271C56.5084 8.87522 56.226 8.78776 56.0062 8.70028C55.7863 8.61279 55.5968 8.47238 55.4372 8.27901C55.282 8.08564 55.2044 7.82782 55.2044 7.50552C55.2044 7.22467 55.2756 6.97147 55.4178 6.74586C55.56 6.51567 55.7734 6.33378 56.0579 6.20028C56.3468 6.06677 56.6979 6 57.1117 6C57.4006 6 57.6831 6.03682 57.9587 6.1105C58.2347 6.18417 58.4759 6.29006 58.6828 6.42818L58.3596 7.27762C57.9417 7.02439 57.5235 6.89779 57.1053 6.89779C56.8123 6.89779 56.5945 6.94842 56.4523 7.04972C56.3144 7.15103 56.2454 7.28453 56.2454 7.45028C56.2454 7.61602 56.3253 7.74033 56.4846 7.8232C56.6486 7.90146 56.8963 7.97975 57.2281 8.05801C57.5732 8.1455 57.8552 8.23295 58.0751 8.32044C58.2949 8.40793 58.4824 8.54605 58.6376 8.73481C58.7972 8.92356 58.8768 9.17909 58.8768 9.50138C58.8768 9.77762 58.8036 10.0309 58.657 10.261C58.5147 10.4867 58.2993 10.6662 58.0104 10.7997C57.7219 10.9332 57.3703 11 56.9566 11ZM61.0798 11C60.7218 11 60.3751 10.9494 60.0389 10.8481C59.7067 10.7422 59.4396 10.6064 59.2371 10.4406L59.5927 9.59807C59.7867 9.75 60.0171 9.87202 60.2845 9.96409C60.5517 10.0562 60.8188 10.1022 61.0862 10.1022C61.3837 10.1022 61.6035 10.0562 61.7457 9.96409C61.888 9.8674 61.9591 9.7408 61.9591 9.58425C61.9591 9.46914 61.9159 9.37478 61.8298 9.30111C61.7478 9.22285 61.6399 9.16069 61.5065 9.11464C61.3772 9.06859 61.2002 9.01796 60.9763 8.96271C60.6313 8.87522 60.3492 8.78776 60.1294 8.70028C59.9095 8.61279 59.7197 8.47238 59.5604 8.27901C59.4052 8.08564 59.3277 7.82782 59.3277 7.50552C59.3277 7.22467 59.3988 6.97147 59.541 6.74586C59.6833 6.51567 59.8966 6.33378 60.1811 6.20028C60.4697 6.06677 60.8212 6 61.2349 6C61.5235 6 61.8059 6.03682 62.0819 6.1105C62.3575 6.18417 62.5991 6.29006 62.806 6.42818L62.4828 7.27762C62.0646 7.02439 61.6464 6.89779 61.2285 6.89779C60.9352 6.89779 60.7177 6.94842 60.5755 7.04972C60.4373 7.15103 60.3686 7.28453 60.3686 7.45028C60.3686 7.61602 60.4482 7.74033 60.6078 7.8232C60.7715 7.90146 61.0192 7.97975 61.3513 8.05801C61.696 8.1455 61.9785 8.23295 62.1983 8.32044C62.4181 8.40793 62.6056 8.54605 62.7608 8.73481C62.92 8.92356 63 9.17909 63 9.50138C63 9.77762 62.9265 10.0309 62.7802 10.261C62.6379 10.4867 62.4222 10.6662 62.1336 10.7997C61.8447 10.9332 61.4936 11 61.0798 11Z" fill="#418ED2"/>
</svg>
