<svg width="52" height="19" viewBox="0 0 52 19" fill="none" xmlns="http://www.w3.org/2000/svg">
<g clip-path="url(#clip0_1376_9080)">
<path d="M9.3444 4C4.4574 4 0.5 6.18739 0.5 8.93055C0.5 10.0731 1.22251 11.1513 2.42715 12C1.84147 11.2824 1.49801 10.5311 1.49801 9.68191C1.49801 6.84096 5.38701 4.55574 10.17 4.55574C13.2671 4.55574 15.9519 5.50272 17.5 6.93875C16.0897 5.20842 12.9579 4 9.3444 4Z" fill="#85C552"/>
<path d="M5.12917 8.95036C5.36815 8.74171 5.70941 8.63736 6.08508 8.63736C6.46076 8.63736 6.76851 8.74171 7.00704 8.95036C7.27948 9.159 7.41618 9.43875 7.41618 9.78634H4.61681C4.71909 9.43875 4.88975 9.1604 5.12823 8.95081L5.12917 8.95036ZM8.27025 11.0747C8.61196 11.0747 8.91931 11.0055 9.12433 10.831C9.36331 10.657 9.5 10.4137 9.5 10.0998C9.5 9.50799 9.29543 8.95036 8.91976 8.42827C8.54409 7.90568 8.03172 7.52254 7.45152 7.27884C7.04145 7.1048 6.56349 7 6.05113 7C5.02689 7 4.17282 7.34854 3.4903 8.04512C2.80685 8.74122 2.5 9.57675 2.5 10.5171C2.5 11.4925 2.84126 12.3285 3.55865 12.99C4.2421 13.652 5.13011 14 6.18831 14C6.73459 14 7.28087 13.9303 7.79324 13.7563C8.40789 13.5822 8.85188 13.3034 9.12527 12.9549C9.29588 12.7462 9.36425 12.5722 9.36425 12.3631C9.36425 11.8405 9.09086 11.5968 8.51062 11.5968C8.37438 11.5968 8.06707 11.7011 7.55471 11.9098C7.04239 12.1193 6.63276 12.2237 6.25758 12.2237C5.81309 12.2237 5.47183 12.1193 5.16497 11.9107C4.85718 11.7021 4.68612 11.4223 4.65216 11.0396H8.27209L8.27025 11.0747Z" fill="#023262"/>
<path d="M10.3925 12.9848C11.0444 13.6502 11.9012 14 12.9637 14C13.6147 14 14.129 13.8952 14.5746 13.7202C15.157 13.4405 15.4659 13.0901 15.4659 12.705C15.4659 12.4601 15.3968 12.2856 15.2256 12.1102C15.0884 11.9353 14.8831 11.8653 14.6423 11.8653C14.4715 11.8653 14.2662 11.9001 14.0263 12.0054C13.786 12.1102 13.512 12.1451 13.2036 12.1451C12.6893 12.1451 12.3123 11.9701 12.0384 11.6551C11.7981 11.3753 11.6613 10.9545 11.6613 10.4998C11.6613 10.0451 11.764 9.65997 12.0034 9.34493C12.2778 8.99461 12.6548 8.81971 13.1345 8.81971C13.4425 8.81971 13.7169 8.8545 13.9913 8.95983C14.2657 9.0647 14.471 9.09994 14.6423 9.09994C14.8826 9.09994 15.1229 9.02988 15.2596 8.85449C15.4314 8.68006 15.5 8.50513 15.5 8.26018C15.5 7.80498 15.2256 7.4547 14.6428 7.24499C14.1976 7.07006 13.7174 7 13.1355 7C12.0388 7 11.1476 7.31455 10.4956 7.97942C9.84514 8.64478 9.50261 9.48553 9.50261 10.4998C9.46808 11.515 9.77656 12.3204 10.3939 12.9853L10.3925 12.9848Z" fill="#023262"/>
<path d="M17.9665 9.36795C18.1998 9.01988 18.5665 8.8454 18.9996 8.8454C19.433 8.8454 19.7998 9.02083 20.0331 9.3684C20.2664 9.68137 20.3667 10.0654 20.3667 10.4827C20.3667 10.9355 20.2668 11.3186 20.0331 11.597C19.7998 11.9455 19.433 12.1195 18.9996 12.1195C18.5665 12.1195 18.1998 11.9455 17.9665 11.5979C17.7332 11.284 17.6329 10.9009 17.6329 10.4827C17.6665 10.0303 17.7663 9.64722 17.9665 9.3684V9.36795ZM16.4995 12.9549C17.1667 13.652 17.9996 14 19.0332 14C20.0667 14 20.9332 13.6515 21.5668 12.99C22.2 12.3281 22.5 11.4917 22.5 10.5173C22.5 9.50734 22.1668 8.67141 21.5332 8.00992C20.9 7.34753 20.0671 7 18.9996 7C17.9665 7 17.1331 7.34753 16.4668 8.00992C15.7996 8.67092 15.5 9.50684 15.5 10.5168C15.5327 11.4917 15.8327 12.293 16.4995 12.954V12.9549Z" fill="#023262"/>
<path d="M25.6959 12.5648V11.059H27.1712C28.2009 11.059 29.0241 10.7786 29.6076 10.2531C30.1917 9.72865 30.5 8.99241 30.5 8.01207C30.5 7.03127 30.1571 6.29553 29.5049 5.77099C28.8882 5.24555 28.0299 5 26.9661 5H25.01C24.426 5 24.049 5.10488 23.8429 5.31469C23.6374 5.52544 23.5 5.91071 23.5 6.4362V12.5648C23.5 13.5103 23.8775 14 24.5979 14C25.3529 14 25.6959 13.5451 25.6959 12.5648ZM25.6959 6.85626H26.6569C27.652 6.85626 28.1659 7.24153 28.1659 8.01207C28.1659 8.8179 27.652 9.20271 26.6569 9.20271H25.6959V6.85626Z" fill="#85C552"/>
<path d="M37.446 13.9291C38.1261 13.9291 38.5 13.4373 38.5 12.4875V8.51247C38.5 7.56275 38.1599 7.07089 37.4465 7.07089C37.0051 7.07089 36.6992 7.28162 36.4609 7.70308C36.0195 7.24618 35.4754 7 34.7629 7C33.8107 7 32.9954 7.35202 32.3837 8.09051C31.8054 8.79359 31.5 9.56753 31.5 10.5172C31.5 11.432 31.7716 12.2414 32.3495 12.909C32.9612 13.6484 33.7422 14 34.6944 14C35.4421 14 36.0195 13.7538 36.4619 13.2615C36.6312 13.7188 36.9708 13.9296 37.4474 13.9296L37.446 13.9291ZM33.9805 9.39225C34.2183 9.04023 34.5579 8.89894 34.9998 8.89894C35.4416 8.89894 35.7817 9.07617 36.0191 9.39225C36.2227 9.67337 36.3244 10.0603 36.3244 10.4823C36.3244 10.9047 36.2227 11.2917 36.0191 11.5728C35.7812 11.9248 35.4416 12.1006 34.9998 12.1006C34.5579 12.1006 34.2179 11.9248 33.9462 11.5728C33.7427 11.2567 33.6066 10.9047 33.6066 10.4823C33.6404 10.0608 33.7422 9.67291 33.98 9.39225H33.9805Z" fill="#85C552"/>
<path d="M43.4477 7.75535L42.0554 10.7116L40.7728 7.9195C40.6256 7.59124 40.5158 7.39399 40.406 7.29562C40.2223 7.13105 39.9658 7.03264 39.6359 7.03264C39.3065 7.03264 39.0495 7.13105 38.8294 7.29515C38.6098 7.4593 38.5 7.68872 38.5 7.9526C38.5 8.14938 38.5365 8.31349 38.6098 8.47764L40.8821 12.8471L39.9289 14.4884C39.8191 14.7191 39.7457 14.949 39.7457 15.1131C39.7457 15.3761 39.8555 15.606 40.0387 15.7706C40.2582 15.9343 40.5153 16 40.8452 16C41.2484 16 41.5788 15.737 41.835 15.2442L45.3164 8.54384C45.4262 8.31395 45.5 8.08318 45.5 7.8864C45.5 7.29605 45.1333 7 44.3638 7C43.9967 7.03264 43.6668 7.26252 43.4472 7.75581L43.4477 7.75535Z" fill="#85C552"/>
<path d="M50.2028 11.3578H48.2243L50.884 8.32707C51.1436 8.01068 51.3061 7.75834 51.3061 7.53736C51.3061 7.31639 51.2089 7.15819 50.9812 7.0946C50.7869 7.03182 50.4624 7 50.0407 7H46.8303C45.9866 7 45.5649 7.25365 45.5649 7.78971C45.5649 8.32707 45.9862 8.61082 46.8299 8.61082H48.5488L45.7915 11.7679C45.5972 11.9894 45.5 12.2107 45.5 12.4626C45.5 12.8418 45.8564 13 46.5695 13H50.235C51.0783 13 51.5 12.7154 51.5 12.1789C51.4351 11.6416 51.0461 11.3578 50.2028 11.3578Z" fill="#85C552"/>
</g>
<defs>
<clipPath id="clip0_1376_9080">
<rect width="51" height="19" fill="white" transform="translate(0.5)"/>
</clipPath>
</defs>
</svg>
