<svg width="77" height="29" viewBox="0 0 77 29" fill="none" xmlns="http://www.w3.org/2000/svg">
<rect x="0.5" width="76" height="29" rx="14.5" fill="#21215E"/>
<g clip-path="url(#clip0_1376_9078)">
<path d="M20.3444 9C15.4574 9 11.5 11.1874 11.5 13.9306C11.5 15.0731 12.2225 16.1513 13.4272 17C12.8415 16.2824 12.498 15.5311 12.498 14.6819C12.498 11.841 16.387 9.55574 21.17 9.55574C24.2671 9.55574 26.9519 10.5027 28.5 11.9387C27.0897 10.2084 23.9579 9 20.3444 9Z" fill="#85C552"/>
<path d="M16.1292 13.9504C16.3682 13.7417 16.7094 13.6374 17.0851 13.6374C17.4608 13.6374 17.7685 13.7417 18.007 13.9504C18.2795 14.159 18.4162 14.4387 18.4162 14.7863H15.6168C15.7191 14.4387 15.8897 14.1604 16.1282 13.9508L16.1292 13.9504ZM19.2703 16.0747C19.612 16.0747 19.9193 16.0055 20.1243 15.831C20.3633 15.657 20.5 15.4137 20.5 15.0998C20.5 14.508 20.2954 13.9504 19.9198 13.4283C19.5441 12.9057 19.0317 12.5225 18.4515 12.2788C18.0414 12.1048 17.5635 12 17.0511 12C16.0269 12 15.1728 12.3485 14.4903 13.0451C13.8069 13.7412 13.5 14.5767 13.5 15.5171C13.5 16.4925 13.8413 17.3285 14.5586 17.99C15.2421 18.652 16.1301 19 17.1883 19C17.7346 19 18.2809 18.9303 18.7932 18.7563C19.4079 18.5822 19.8519 18.3034 20.1253 17.9549C20.2959 17.7462 20.3642 17.5722 20.3642 17.3631C20.3642 16.8405 20.0909 16.5968 19.5106 16.5968C19.3744 16.5968 19.0671 16.7011 18.5547 16.9098C18.0424 17.1193 17.6328 17.2237 17.2576 17.2237C16.8131 17.2237 16.4718 17.1193 16.165 16.9107C15.8572 16.7021 15.6861 16.4223 15.6522 16.0396H19.2721L19.2703 16.0747Z" fill="#023262"/>
<path d="M21.3925 17.9848C22.0444 18.6502 22.9012 19 23.9637 19C24.6147 19 25.129 18.8952 25.5746 18.7202C26.157 18.4405 26.4659 18.0901 26.4659 17.705C26.4659 17.4601 26.3968 17.2856 26.2256 17.1102C26.0884 16.9353 25.8831 16.8653 25.6423 16.8653C25.4715 16.8653 25.2662 16.9001 25.0263 17.0054C24.786 17.1102 24.512 17.1451 24.2036 17.1451C23.6893 17.1451 23.3123 16.9701 23.0384 16.6551C22.7981 16.3753 22.6613 15.9545 22.6613 15.4998C22.6613 15.0451 22.764 14.66 23.0034 14.3449C23.2778 13.9946 23.6548 13.8197 24.1345 13.8197C24.4425 13.8197 24.7169 13.8545 24.9913 13.9598C25.2657 14.0647 25.471 14.0999 25.6423 14.0999C25.8826 14.0999 26.1229 14.0299 26.2596 13.8545C26.4314 13.6801 26.5 13.5051 26.5 13.2602C26.5 12.805 26.2256 12.4547 25.6428 12.245C25.1976 12.0701 24.7174 12 24.1355 12C23.0388 12 22.1476 12.3145 21.4956 12.9794C20.8451 13.6448 20.5026 14.4855 20.5026 15.4998C20.4681 16.515 20.7766 17.3204 21.3939 17.9853L21.3925 17.9848Z" fill="#023262"/>
<path d="M28.9665 14.3679C29.1998 14.0199 29.5665 13.8454 29.9996 13.8454C30.433 13.8454 30.7998 14.0208 31.0331 14.3684C31.2664 14.6814 31.3667 15.0654 31.3667 15.4827C31.3667 15.9355 31.2668 16.3186 31.0331 16.597C30.7998 16.9455 30.433 17.1195 29.9996 17.1195C29.5665 17.1195 29.1998 16.9455 28.9665 16.5979C28.7332 16.284 28.6329 15.9009 28.6329 15.4827C28.6665 15.0303 28.7663 14.6472 28.9665 14.3684V14.3679ZM27.4995 17.9549C28.1667 18.652 28.9996 19 30.0332 19C31.0667 19 31.9332 18.6515 32.5668 17.99C33.2 17.3281 33.5 16.4917 33.5 15.5173C33.5 14.5073 33.1668 13.6714 32.5332 13.0099C31.9 12.3475 31.0671 12 29.9996 12C28.9665 12 28.1331 12.3475 27.4668 13.0099C26.7996 13.6709 26.5 14.5068 26.5 15.5168C26.5327 16.4917 26.8327 17.293 27.4995 17.954V17.9549Z" fill="#023262"/>
<path d="M36.6959 17.5648V16.059H38.1712C39.2009 16.059 40.0241 15.7786 40.6076 15.2531C41.1917 14.7286 41.5 13.9924 41.5 13.0121C41.5 12.0313 41.1571 11.2955 40.5049 10.771C39.8882 10.2456 39.0299 10 37.9661 10H36.01C35.426 10 35.049 10.1049 34.8429 10.3147C34.6374 10.5254 34.5 10.9107 34.5 11.4362V17.5648C34.5 18.5103 34.8775 19 35.5979 19C36.3529 19 36.6959 18.5451 36.6959 17.5648ZM36.6959 11.8563H37.6569C38.652 11.8563 39.1659 12.2415 39.1659 13.0121C39.1659 13.8179 38.652 14.2027 37.6569 14.2027H36.6959V11.8563Z" fill="#85C552"/>
<path d="M48.446 18.9291C49.1261 18.9291 49.5 18.4373 49.5 17.4875V13.5125C49.5 12.5627 49.1599 12.0709 48.4465 12.0709C48.0051 12.0709 47.6992 12.2816 47.4609 12.7031C47.0195 12.2462 46.4754 12 45.7629 12C44.8107 12 43.9954 12.352 43.3837 13.0905C42.8054 13.7936 42.5 14.5675 42.5 15.5172C42.5 16.432 42.7716 17.2414 43.3495 17.909C43.9612 18.6484 44.7422 19 45.6944 19C46.4421 19 47.0195 18.7538 47.4619 18.2615C47.6312 18.7188 47.9708 18.9296 48.4474 18.9296L48.446 18.9291ZM44.9805 14.3922C45.2183 14.0402 45.5579 13.8989 45.9998 13.8989C46.4416 13.8989 46.7817 14.0762 47.0191 14.3922C47.2227 14.6734 47.3244 15.0603 47.3244 15.4823C47.3244 15.9047 47.2227 16.2917 47.0191 16.5728C46.7812 16.9248 46.4416 17.1006 45.9998 17.1006C45.5579 17.1006 45.2179 16.9248 44.9462 16.5728C44.7427 16.2567 44.6066 15.9047 44.6066 15.4823C44.6404 15.0608 44.7422 14.6729 44.98 14.3922H44.9805Z" fill="#85C552"/>
<path d="M54.4477 12.7553L53.0554 15.7116L51.7728 12.9195C51.6256 12.5912 51.5158 12.394 51.406 12.2956C51.2223 12.131 50.9658 12.0326 50.6359 12.0326C50.3065 12.0326 50.0495 12.131 49.8294 12.2952C49.6098 12.4593 49.5 12.6887 49.5 12.9526C49.5 13.1494 49.5365 13.3135 49.6098 13.4776L51.8821 17.8471L50.9289 19.4884C50.8191 19.7191 50.7457 19.949 50.7457 20.1131C50.7457 20.3761 50.8555 20.606 51.0387 20.7706C51.2582 20.9343 51.5153 21 51.8452 21C52.2484 21 52.5788 20.737 52.835 20.2442L56.3164 13.5438C56.4262 13.314 56.5 13.0832 56.5 12.8864C56.5 12.296 56.1333 12 55.3638 12C54.9967 12.0326 54.6668 12.2625 54.4472 12.7558L54.4477 12.7553Z" fill="#85C552"/>
<path d="M61.2028 16.3578H59.2243L61.884 13.3271C62.1436 13.0107 62.3061 12.7583 62.3061 12.5374C62.3061 12.3164 62.2089 12.1582 61.9812 12.0946C61.7869 12.0318 61.4624 12 61.0407 12H57.8303C56.9866 12 56.5649 12.2536 56.5649 12.7897C56.5649 13.3271 56.9862 13.6108 57.8299 13.6108H59.5488L56.7915 16.7679C56.5972 16.9894 56.5 17.2107 56.5 17.4626C56.5 17.8418 56.8564 18 57.5695 18H61.235C62.0783 18 62.5 17.7154 62.5 17.1789C62.4351 16.6416 62.0461 16.3578 61.2028 16.3578Z" fill="#85C552"/>
</g>
<defs>
<clipPath id="clip0_1376_9078">
<rect width="51" height="19" fill="white" transform="translate(11.5 5)"/>
</clipPath>
</defs>
</svg>
