<svg width="25" height="25" viewBox="0 0 25 25" fill="none" xmlns="http://www.w3.org/2000/svg">
<g clip-path="url(#clip0_1330_905)">
<path d="M24.9646 16.3996C24.2958 7.47192 20.8298 3.31104 17.2406 3.31104C14.5395 3.31104 13.6701 5.23848 12.5 5.23848C11.3299 5.23848 10.4578 3.31104 7.75933 3.31104C4.17022 3.31104 0.704156 7.47197 0.0354064 16.3996C-0.219721 19.2257 0.925592 21.0251 2.77154 21.5686C4.63785 22.1182 6.91832 20.7607 8.79834 18.0299C9.6358 16.8128 11.0575 15.1754 12.5 15.1754C13.9425 15.1754 15.3642 16.8128 16.2017 18.0299C18.0817 20.7607 20.3621 22.1182 22.2284 21.5686C24.0748 21.0251 25.2197 19.2257 24.9646 16.3996ZM9.70181 12.3251H7.88951V14.1374H5.90181V12.3251H4.08956V10.3374H5.90181V8.52515H7.88951V10.3374H9.70181V12.3251ZM15.7184 12.5863C15.1391 12.5863 14.6701 12.1178 14.6701 11.5385C14.6701 10.9596 15.1391 10.4906 15.7184 10.4906C16.2972 10.4906 16.7668 10.9596 16.7668 11.5385C16.7668 12.1178 16.2973 12.5863 15.7184 12.5863ZM18.2504 15.1192C17.672 15.1192 17.203 14.6502 17.203 14.0709C17.203 13.4921 17.672 13.023 18.2504 13.023C18.8297 13.023 19.2987 13.4921 19.2987 14.0709C19.2987 14.6502 18.8297 15.1192 18.2504 15.1192ZM18.2504 10.0539C17.672 10.0539 17.203 9.58447 17.203 9.00562C17.203 8.42632 17.672 7.95732 18.2504 7.95732C18.8297 7.95732 19.2987 8.42637 19.2987 9.00562C19.2987 9.58447 18.8297 10.0539 18.2504 10.0539ZM20.7833 12.5863C20.2044 12.5863 19.735 12.1178 19.735 11.5385C19.735 10.9596 20.2044 10.4906 20.7833 10.4906C21.3626 10.4906 21.8315 10.9596 21.8315 11.5385C21.8315 12.1178 21.3626 12.5863 20.7833 12.5863Z" fill="#A4AAF8"/>
</g>
<defs>
<clipPath id="clip0_1330_905">
<rect width="25" height="25" fill="white"/>
</clipPath>
</defs>
</svg>
