<svg width="23" height="25" viewBox="0 0 23 25" fill="none" xmlns="http://www.w3.org/2000/svg">
<g clip-path="url(#clip0_1330_912)">
<path d="M16.0152 6.89957H20.0916C21.0684 6.89957 21.877 7.67474 21.877 8.68494V14.8173H12.1738V7.67474C11.8364 7.57339 11.5334 7.43863 11.3318 7.23702C11.2984 7.23702 11.2984 7.2036 11.2639 7.2036C11.2639 7.2036 11.2639 7.23702 11.2305 7.23702C10.9944 7.43971 10.7248 7.57447 10.4219 7.67474V14.8173H0.71875V8.68494C0.71875 7.67366 1.49392 6.89957 2.4707 6.89957H6.58159C6.10938 6.66346 5.67166 6.32708 5.30078 6.02305C3.68359 4.47271 3.38064 2.31646 4.66037 1.10357C5.19944 0.631347 5.90669 0.361816 6.68186 0.361816C7.79341 0.361816 8.93945 0.799535 9.91623 1.70947C10.4553 2.21511 10.9609 2.92236 11.2639 3.59619C11.6013 2.92236 12.1059 2.21511 12.645 1.70947C13.5883 0.799535 14.8012 0.361816 15.8793 0.361816C16.6879 0.361816 17.3952 0.631347 17.9008 1.10357C19.1816 2.31646 18.8776 4.47271 17.227 6.02305C16.8895 6.326 16.4529 6.66346 16.0152 6.89957ZM10.0176 5.92278C10.1523 5.61983 9.81489 4.06949 8.70334 3.02479C8.13086 2.48572 7.35569 2.18277 6.68186 2.18277C6.47917 2.18277 6.1428 2.21619 5.90669 2.41888C5.83877 2.4868 5.63716 2.62157 5.63716 2.99136C5.63716 3.42908 5.90669 4.10291 6.54709 4.67647C7.35569 5.45164 8.6365 5.99071 9.57986 5.99071C9.88281 5.99071 10.0176 5.92278 10.0176 5.92278ZM12.5781 5.92278C12.5781 5.92278 12.7463 5.99071 13.0158 5.99071C13.9592 5.99071 15.24 5.45164 16.0486 4.67647C16.689 4.10399 16.8906 3.43016 16.8906 2.99136C16.8906 2.62049 16.7224 2.48572 16.6879 2.41888C16.4518 2.21619 16.081 2.18277 15.8793 2.18277C15.2389 2.18277 14.4303 2.48572 13.8579 3.02479C12.7797 4.06949 12.4089 5.58533 12.577 5.95621V5.92278H12.5781ZM10.4219 24.5204H2.4707C1.49392 24.5204 0.71875 23.7453 0.71875 22.7685V16.6027H10.4219V24.5204ZM20.0916 24.5204H12.1738V16.6027H21.877V22.7685C21.877 23.7453 21.0684 24.5204 20.0916 24.5204Z" fill="#A4AAF8"/>
</g>
<defs>
<clipPath id="clip0_1330_912">
<rect width="23" height="24.9167" fill="white"/>
</clipPath>
</defs>
</svg>
