<svg width="31" height="31" viewBox="0 0 31 31" fill="none" xmlns="http://www.w3.org/2000/svg">
<path d="M29.1666 14.3992L25.285 12.1467C25.625 11.8492 25.9508 11.4667 26.1916 11.0417C27.3675 9.01586 26.6733 6.4092 24.6333 5.23336C23.415 4.52503 21.9841 4.52503 20.78 5.03503L20.7941 5.02086L19.5475 5.57336L19.3916 4.21336L19.3775 4.22753C19.25 2.93836 18.4991 1.6917 17.2808 0.983364C16.3008 0.423411 15.1393 0.272988 14.049 0.564806C12.9587 0.856623 12.0276 1.56708 11.4583 2.5417C11.2175 2.9667 11.0616 3.4342 10.9766 3.88753L7.08081 1.6492C5.72081 0.87003 3.99248 1.32336 3.21331 2.68336L1.08831 6.3667C0.994585 6.5272 0.933765 6.70477 0.909402 6.88904C0.88504 7.07331 0.897623 7.26058 0.946417 7.43994C0.995211 7.61929 1.07924 7.78713 1.1936 7.93365C1.30796 8.08018 1.45035 8.20246 1.61248 8.29336L4.06331 9.71003L10.0416 13.1667H0.833313V27.3334C0.833313 28.0848 1.13182 28.8055 1.66318 29.3368C2.19453 29.8682 2.9152 30.1667 3.66665 30.1667H26.3333C27.9058 30.1667 29.1666 28.9059 29.1666 27.3334V20.0659L30.2008 18.2667C30.98 16.9067 30.5266 15.1784 29.1666 14.3992ZM21.29 8.20836C21.6725 7.50003 22.5508 7.3017 23.2166 7.6842C23.8966 8.08086 24.1375 8.9167 23.7408 9.62503C23.3441 10.3334 22.48 10.5317 21.8 10.1492C21.1341 9.75253 20.8933 8.9167 21.29 8.20836ZM17.9325 11.1834L27.75 16.85L26.3333 19.3009L16.5158 13.6342L17.9325 11.1834ZM13.5833 27.3334H3.66665V16H13.5833V27.3334ZM14.065 12.2175L4.24748 6.55086L5.66415 4.10003L15.4816 9.7667L14.065 12.2175ZM14.4475 5.8992C13.7675 5.50253 13.5408 4.6667 13.9233 3.95836C14.2916 3.25003 15.1841 3.0517 15.8641 3.4342C16.5441 3.83086 16.7708 4.6667 16.3741 5.37503C15.9916 6.08336 15.1275 6.2817 14.4475 5.8992ZM16.4166 27.3334V16.85L26.3333 22.5734V27.3334H16.4166Z" fill="#FFAF38"/>
</svg>
