<svg width="52" height="20" viewBox="0 0 52 20" fill="none" xmlns="http://www.w3.org/2000/svg">
<g clip-path="url(#clip0_1376_9091)">
<mask id="mask0_1376_9091" style="mask-type:luminance" maskUnits="userSpaceOnUse" x="0" y="3" width="52" height="13">
<path d="M51.5 3H0.5V16H51.5V3Z" fill="white"/>
</mask>
<g mask="url(#mask0_1376_9091)">
<path d="M13.0804 16V3H13.7603V16H13.0804ZM20.2203 4.6902V4.62508H22.9404V11.1251C22.9404 12.92 21.4181 14.3751 19.5403 14.3751C17.6626 14.3751 16.1403 12.92 16.1403 11.1251H18.8604C18.8604 11.484 19.1647 11.7751 19.5403 11.7751C19.9158 11.7751 20.2203 11.484 20.2203 11.1251V4.6902ZM30.042 8.11448C30.3428 8.42583 30.575 8.80442 30.7319 9.2398C30.8861 9.6688 30.9643 10.1543 30.9643 10.683C30.9643 10.8098 30.9593 10.9251 30.9495 11.0257C30.9354 11.1659 30.9221 11.2275 30.8951 11.2796L30.82 11.424H26.1157C26.1388 11.527 26.1731 11.6244 26.2184 11.7146C26.3029 11.8841 26.416 12.0332 26.5541 12.158C26.6919 12.2824 26.8532 12.3807 27.0337 12.4504C27.2129 12.5198 27.4097 12.555 27.6186 12.555C28.0301 12.555 28.3435 12.469 28.5497 12.2993L28.66 12.2087L30.654 12.7396L30.4413 13.039C30.2531 13.3042 30.0173 13.5394 29.7402 13.738C29.464 13.936 29.1452 14.0933 28.7927 14.2056C28.4401 14.3181 28.0451 14.375 27.6186 14.375C27.134 14.375 26.6662 14.2925 26.2282 14.1297C25.7871 13.9661 25.3945 13.7237 25.0613 13.4095C24.7288 13.0965 24.4593 12.7096 24.2605 12.2597C24.0612 11.8095 23.9604 11.2921 23.9604 10.722C23.9604 10.1875 24.0565 9.69463 24.2462 9.25735C24.4357 8.8212 24.6952 8.44119 25.0176 8.12801C25.3402 7.81512 25.7169 7.56877 26.1376 7.39575C26.5597 7.22203 27.0032 7.13404 27.4554 7.13404C27.996 7.13404 28.4902 7.21907 28.9242 7.38701C29.3632 7.55666 29.7391 7.80147 30.042 8.11448ZM26.1788 9.79904H28.7882C28.7733 9.74013 28.7542 9.68228 28.7316 9.6259C28.6778 9.49183 28.5955 9.37146 28.4871 9.26787C28.3775 9.16293 28.2382 9.07713 28.0733 9.01254C27.9075 8.94778 27.7042 8.91504 27.469 8.91504C27.2637 8.91504 27.0785 8.94908 26.9193 9.01632C26.7576 9.08469 26.6194 9.17492 26.5084 9.28436C26.3943 9.3971 26.3019 9.52604 26.2336 9.6675C26.2124 9.71141 26.194 9.75537 26.1788 9.79904ZM43.0306 8.16701C43.363 8.48917 43.6251 8.87421 43.81 9.31154C43.9945 9.74858 44.0882 10.2319 44.0882 10.748C44.0882 11.264 43.9945 11.7492 43.8104 12.19C43.6256 12.632 43.363 13.0195 43.0306 13.3419C42.6987 13.6639 42.3032 13.9193 41.8552 14.1009C41.4063 14.2827 40.9084 14.375 40.3754 14.375C39.8518 14.375 39.3566 14.2829 38.9035 14.1013C38.4498 13.9194 38.0535 13.6635 37.7254 13.3406C37.3982 13.0186 37.1386 12.6315 36.954 12.19C36.7698 11.7497 36.6762 11.2645 36.6762 10.748C36.6762 10.2313 36.7699 9.7481 36.9545 9.31154C37.1391 8.87474 37.3985 8.49006 37.7256 8.16831C38.0535 7.84555 38.4498 7.58957 38.9035 7.40769C39.3566 7.2261 39.8518 7.13404 40.3754 7.13404C40.9084 7.13404 41.4063 7.22622 41.8551 7.4081C42.3033 7.58969 42.6987 7.84514 43.0306 8.16701ZM41.8211 11.5267C41.9088 11.306 41.9531 11.044 41.9531 10.748C41.9531 10.4524 41.9088 10.1931 41.8216 9.97714C41.7355 9.76418 41.6182 9.58389 41.4725 9.44089C41.3286 9.29972 41.162 9.19336 40.9775 9.12487C40.7875 9.05467 40.5851 9.01904 40.3754 9.01904C40.1657 9.01904 39.9631 9.05467 39.7733 9.12487C39.5899 9.193 39.4265 9.29842 39.2875 9.43841C39.1441 9.58283 39.0253 9.76524 38.9345 9.98063C38.8438 10.1955 38.7979 10.4536 38.7979 10.748C38.7979 11.0429 38.8439 11.3038 38.935 11.5231C39.0259 11.7424 39.1443 11.9265 39.2875 12.0704C39.4279 12.212 39.5927 12.3203 39.7777 12.3921C39.9659 12.4657 40.167 12.503 40.3754 12.503C40.5836 12.503 40.7847 12.4657 40.9733 12.3923C41.1592 12.3197 41.3273 12.2107 41.4725 12.0681C41.6179 11.9254 41.735 11.7433 41.8211 11.5267ZM51.3382 8.86316C51.4458 9.19076 51.5 9.54485 51.5 9.916V14.18H49.3786V10.176C49.3786 9.84308 49.2928 9.55931 49.1235 9.33258C48.9722 9.13043 48.6996 9.032 48.2907 9.032C47.9239 9.032 47.6588 9.14096 47.4802 9.36496C47.2844 9.61115 47.189 9.90613 47.189 10.267V14.18H45.0676V7.329H47.1483V7.70693C47.2928 7.58786 47.4525 7.48918 47.6243 7.41208C48.0176 7.23621 48.4243 7.147 48.8349 7.147C49.2798 7.147 49.6748 7.22045 50.008 7.36528C50.3441 7.51141 50.6265 7.71733 50.8479 7.97758C51.0634 8.23173 51.2281 8.52971 51.3382 8.86316ZM35.3642 12.3815C35.501 12.3651 35.5402 12.3571 35.5491 12.3549L35.8875 12.2733V14.0308L35.7168 14.0962C35.6783 14.111 35.6058 14.1352 35.3859 14.1908C35.2071 14.2361 34.9663 14.2581 34.6499 14.2581C33.9627 14.2581 33.4091 14.067 33.0048 13.6901C32.5983 13.3117 32.3923 12.7811 32.3923 12.1131V9.18808H31.5763V7.32908H32.392L32.3923 5.39192H34.5003V7.32908H35.8739V9.18808H34.5003V11.8659C34.5003 12.066 34.5422 12.2104 34.6212 12.2835C34.7029 12.359 34.8586 12.3991 35.0715 12.3991C35.1684 12.3991 35.2668 12.3931 35.3642 12.3815ZM1.19962 7.26303C1.14141 7.27785 1.09381 7.21882 1.12264 7.16825C1.76742 6.03777 2.87609 5.1517 4.28015 4.79213C5.68408 4.43268 7.10787 4.67018 8.25759 5.3411C8.30901 5.37112 8.29868 5.44497 8.24048 5.45992L1.19962 7.26303ZM9.83188 6.77983C10.138 7.21468 10.376 7.70401 10.5259 8.23855C10.6758 8.77314 10.7255 9.31057 10.688 9.83341C10.686 9.86124 10.6655 9.88476 10.6373 9.89191L1.44261 12.2466C1.41446 12.2538 1.3844 12.2432 1.36808 12.2202C1.06208 11.7852 0.824084 11.296 0.674076 10.7615C0.52434 10.2269 0.474428 9.68952 0.511964 9.16651C0.514004 9.1388 0.53454 9.11528 0.562692 9.10801L9.75739 6.7533C9.78554 6.74615 9.81571 6.75672 9.83188 6.77983ZM10.0005 11.737C10.0585 11.7221 10.1061 11.7812 10.0773 11.8318C9.43264 12.9622 8.32385 13.8483 6.91993 14.2079C5.51584 14.5673 4.0922 14.3298 2.94246 13.6589C2.89105 13.6289 2.90139 13.555 2.95946 13.5401L10.0005 11.737Z" fill="#FF6300"/>
</g>
</g>
<defs>
<clipPath id="clip0_1376_9091">
<rect width="51" height="20" fill="white" transform="translate(0.5)"/>
</clipPath>
</defs>
</svg>
