<svg width="55" height="22" viewBox="0 0 55 22" fill="none" xmlns="http://www.w3.org/2000/svg">
<g clip-path="url(#clip0_1376_9099)">
<path d="M50.8077 0H4.19231C2.1531 0 0.5 1.64162 0.5 3.66667V18.3333C0.5 20.3584 2.1531 22 4.19231 22H50.8077C52.8469 22 54.5 20.3584 54.5 18.3333V3.66667C54.5 1.64162 52.8469 0 50.8077 0Z" fill="#FFB3C7"/>
<path d="M47.3609 12.6646C46.732 12.6646 46.2224 13.1784 46.2224 13.8123C46.2224 14.4461 46.732 14.9601 47.3609 14.9601C47.9898 14.9601 48.5 14.4461 48.5 13.8123C48.5 13.1784 47.9898 12.6646 47.3609 12.6646ZM43.6146 11.7772C43.6146 10.9094 42.8786 10.206 41.9707 10.206C41.0628 10.206 40.3267 10.9094 40.3267 11.7772C40.3267 12.6451 41.0627 13.3487 41.9707 13.3487C42.8787 13.3487 43.6146 12.6451 43.6146 11.7772ZM43.6206 8.72335H45.4349V14.8309H43.6206V14.4406C43.1081 14.7929 42.4894 15 41.8221 15C40.0563 15 38.6246 13.5571 38.6246 11.7772C38.6246 9.99726 40.0563 8.55451 41.8221 8.55451C42.4894 8.55451 43.1081 8.76161 43.6206 9.11404V8.72335ZM29.1015 9.51891V8.72344H27.244V14.8309H29.1057V11.9794C29.1057 11.0173 30.1403 10.5003 30.8581 10.5003C30.8655 10.5003 30.8724 10.5009 30.8797 10.501V8.72389C30.1429 8.72389 29.4653 9.04177 29.1015 9.51891ZM24.4745 11.7772C24.4745 10.9094 23.7385 10.206 22.8306 10.206C21.9227 10.206 21.1866 10.9094 21.1866 11.7772C21.1866 12.6451 21.9226 13.3487 22.8306 13.3487C23.7385 13.3487 24.4745 12.6451 24.4745 11.7772ZM24.4805 8.72335H26.2949V14.8309H24.4805V14.4406C23.968 14.7929 23.3493 15 22.6821 15C20.9161 15 19.4845 13.5571 19.4845 11.7772C19.4845 9.9973 20.9161 8.55451 22.6821 8.55451C23.3493 8.55451 23.968 8.76165 24.4805 9.11404V8.72335ZM35.4008 8.5591C34.6761 8.5591 33.9901 8.78586 33.5316 9.41154V8.72372H31.7251V14.831H33.5538V11.6214C33.5538 10.6926 34.1717 10.2379 34.9158 10.2379C35.7131 10.2379 36.1715 10.718 36.1715 11.6088V14.831H37.9837V10.9471C37.9837 9.52575 36.8625 8.5591 35.4008 8.5591ZM16.8417 14.831H18.7407V6.00167H16.8417V14.831ZM8.5 14.8334H10.5108V6.00005H8.5V14.8334ZM15.5331 6.00005C15.5331 7.91236 14.7937 9.69131 13.4761 11.0136L16.2556 14.8337H13.772L10.7513 10.6821L11.5309 10.0937C12.8238 9.11756 13.5653 7.62553 13.5653 6L15.5331 6.00005Z" fill="#0A0B09"/>
</g>
<defs>
<clipPath id="clip0_1376_9099">
<rect width="54" height="22" fill="white" transform="translate(0.5)"/>
</clipPath>
</defs>
</svg>
