<svg width="500" height="5" viewBox="0 0 500 5" fill="none" xmlns="http://www.w3.org/2000/svg">
<g clip-path="url(#clip0_763_14574)">
<rect width="500" height="5" rx="2.5" fill="#E2E2E2"/>
<mask id="mask0_763_14574" style="mask-type:alpha" maskUnits="userSpaceOnUse" x="-506" y="-25" width="512" height="62">
<path d="M3.9865 31.2939C5.56213 33.6898 3.71283 35.7454 2.99551 36.2909L-506 36.2909L-506 -22.7141L2.62917 -24.9826C4.13329 -24.5105 5.13786 -23.3858 5.405 -22.7141C5.95368 -21.3345 4.56509 -19.9271 3.74557 -19.0965L3.74524 -19.0962C2.79033 -18.1284 2.80282 -16.0238 3.3498 -14.9447C3.83601 -13.9854 5.46288 -13.033 5.46971 -11.8905C5.48294 -9.67772 2.72408 -9.108 2.73558 -7.18381C2.74881 -4.97099 4.79473 -4.2496 5.52615 -2.44997C6.25757 -0.650359 4.36252 1.04471 3.45299 2.31294C1.92843 4.43874 3.13316 6.5843 3.90487 7.60195C5.648 9.90065 5.53409 10.9597 4.95306 12.1658C3.81425 14.5298 2.8722 15.666 2.87795 16.6281C2.8883 18.3598 4.20145 19.6268 4.70309 20.5859C5.67501 22.4443 3.28639 24.6835 2.93259 25.768C2.04811 28.4793 3.35625 30.3356 3.9865 31.2939Z" fill="url(#paint0_linear_763_14574)"/>
<path d="M3.9865 31.2939C5.56213 33.6898 3.71283 35.7454 2.99551 36.2909L-506 36.2909L-506 -22.7141L2.62917 -24.9826C4.13329 -24.5105 5.13786 -23.3858 5.405 -22.7141C5.95368 -21.3345 4.56509 -19.9271 3.74557 -19.0965L3.74524 -19.0962C2.79033 -18.1284 2.80282 -16.0238 3.3498 -14.9447C3.83601 -13.9854 5.46288 -13.033 5.46971 -11.8905C5.48294 -9.67772 2.72408 -9.108 2.73558 -7.18381C2.74881 -4.97099 4.79473 -4.2496 5.52615 -2.44997C6.25757 -0.650359 4.36252 1.04471 3.45299 2.31294C1.92843 4.43874 3.13316 6.5843 3.90487 7.60195C5.648 9.90065 5.53409 10.9597 4.95306 12.1658C3.81425 14.5298 2.8722 15.666 2.87795 16.6281C2.8883 18.3598 4.20145 19.6268 4.70309 20.5859C5.67501 22.4443 3.28639 24.6835 2.93259 25.768C2.04811 28.4793 3.35625 30.3356 3.9865 31.2939Z" fill="url(#paint1_linear_763_14574)" fill-opacity="0.4"/>
</mask>
<g mask="url(#mask0_763_14574)">
<path d="M7.86274 3.78089C9.76922 1.22031 7.46494 -0.932713 6.57459 -1.50095L-504 -1.50084L-500 68.5L6.96284 63.437C8.80765 62.9161 10.0287 61.7105 10.3483 60.995C11.0047 59.5255 9.27636 58.0532 8.25632 57.1842L8.25589 57.1838C7.06732 56.1712 7.05387 53.9407 7.71232 52.7897C8.29761 51.7665 10.2869 50.7349 10.2797 49.5241C10.2657 47.179 6.86225 46.613 6.85006 44.5737C6.83604 42.2286 9.34428 41.4361 10.2199 39.519C11.0954 37.6019 8.73981 35.8315 7.60298 34.5C5.69745 32.2681 7.15085 29.9779 8.08672 28.8889C10.2007 26.4291 10.046 25.3084 9.31434 24.0382C7.88031 21.5485 6.70527 20.3574 6.69918 19.3378C6.6882 17.5025 8.28708 16.1419 8.89136 15.1186C10.0622 13.136 7.09157 10.7957 6.64126 9.6513C5.51551 6.79021 7.10014 4.80511 7.86274 3.78089Z" fill="url(#paint2_linear_763_14574)"/>
</g>
</g>
<defs>
<linearGradient id="paint0_linear_763_14574" x1="5.76555" y1="5.63641" x2="-506" y2="7.00004" gradientUnits="userSpaceOnUse">
<stop stop-color="#161EDD"/>
<stop offset="1" stop-color="#2C34EC"/>
</linearGradient>
<linearGradient id="paint1_linear_763_14574" x1="5.73382" y1="5.63656" x2="-506" y2="6.99999" gradientUnits="userSpaceOnUse">
<stop stop-color="#323082"/>
<stop offset="1" stop-color="#A4AAF8"/>
</linearGradient>
<linearGradient id="paint2_linear_763_14574" x1="10.4002" y1="30.9465" x2="-504" y2="32" gradientUnits="userSpaceOnUse">
<stop stop-color="#2573B8"/>
<stop offset="1" stop-color="#161689"/>
</linearGradient>
<clipPath id="clip0_763_14574">
<rect width="500" height="5" rx="2.5" fill="white"/>
</clipPath>
</defs>
</svg>
