<svg width="68" height="17" viewBox="0 0 68 17" fill="none" xmlns="http://www.w3.org/2000/svg">
<g clip-path="url(#clip0_1376_9104)">
<path d="M29.8643 10.8772V8.24561C29.8789 8.02427 29.8483 7.80224 29.7744 7.59427C29.7005 7.38627 29.5851 7.19713 29.4357 7.03942C29.2863 6.88175 29.1065 6.7591 28.9083 6.67969C28.71 6.60028 28.4978 6.56595 28.2858 6.57895C28.0083 6.55993 27.7311 6.61911 27.4829 6.75026C27.2348 6.88141 27.025 7.07973 26.8752 7.32454C26.7388 7.08709 26.5435 6.8925 26.31 6.76127C26.0766 6.63004 25.8135 6.56706 25.5486 6.57895C25.3178 6.56675 25.0878 6.61781 24.8816 6.72705C24.6755 6.83629 24.5002 6.99991 24.3732 7.20174V6.68419H23.5V10.8772H24.3816V8.57017C24.3628 8.42679 24.3746 8.28085 24.4161 8.14277C24.4577 8.00472 24.5279 7.87791 24.6217 7.77149C24.7155 7.66507 24.8308 7.58159 24.9591 7.52706C25.0874 7.47257 25.2256 7.44834 25.3639 7.45611C25.9433 7.45611 26.2372 7.85086 26.2372 8.5614V10.8947H27.1187V8.57017C27.1008 8.4269 27.1131 8.28131 27.1549 8.14357C27.1967 8.00586 27.2669 7.87944 27.3606 7.77317C27.4543 7.6669 27.5691 7.58345 27.6971 7.52866C27.825 7.47387 27.963 7.44914 28.1011 7.45611C28.6972 7.45611 28.9827 7.85086 28.9827 8.5614V10.8947L29.8643 10.8772ZM42.9078 6.68419H41.4717V5.41227H40.5904V6.68419H39.7925V7.51754H40.6072V9.44733C40.6072 10.421 40.9683 11 42.001 11C42.3865 11.0013 42.7651 10.8888 43.0924 10.6754L42.8405 9.8947C42.6064 10.0406 42.3407 10.1221 42.068 10.1315C41.6483 10.1315 41.4888 9.85084 41.4888 9.42981V7.51754H42.9162L42.9078 6.68419ZM50.355 6.57895C50.142 6.57239 49.9316 6.626 49.7452 6.73406C49.5592 6.84212 49.4041 7.00067 49.2971 7.19297V6.68419H48.4322V10.8772H49.3055V8.52631C49.3055 7.83333 49.5909 7.44735 50.1453 7.44735C50.332 7.44468 50.5173 7.48046 50.6909 7.55263L50.9596 6.67542C50.7601 6.60089 50.5501 6.56233 50.3382 6.56138L50.355 6.57895ZM39.0958 7.01755C38.6014 6.71052 38.0332 6.55826 37.4584 6.57895C36.4428 6.57895 35.7794 7.0877 35.7794 7.92105C35.7794 8.60526 36.2662 9.0263 37.1646 9.15787L37.5844 9.21929C38.063 9.28947 38.2898 9.42104 38.2898 9.65789C38.2898 9.98245 37.9706 10.1666 37.3747 10.1666C36.8953 10.1812 36.4249 10.0266 36.0396 9.72804L35.6198 10.4386C36.1284 10.8096 36.7376 11.0003 37.3579 10.9824C38.5166 10.9824 39.1882 10.4123 39.1882 9.614C39.1882 8.81578 38.6593 8.49122 37.786 8.35965L37.3663 8.29823C36.9885 8.24561 36.6859 8.16666 36.6859 7.88595C36.6859 7.60525 36.9717 7.39473 37.45 7.39473C37.8927 7.4001 38.3262 7.52394 38.7095 7.75438L39.0958 7.01755ZM62.4831 6.57895C62.2705 6.57239 62.0597 6.626 61.8733 6.73406C61.6873 6.84212 61.5326 7.00067 61.4252 7.19297V6.68419H60.5607V10.8772H61.4336V8.52631C61.4336 7.83333 61.7193 7.44735 62.2734 7.44735C62.4601 7.44468 62.6454 7.48046 62.819 7.55263L63.0877 6.67542C62.8882 6.60089 62.6782 6.56233 62.4663 6.56138L62.4831 6.57895ZM51.2322 8.77192C51.2221 9.06657 51.2705 9.36023 51.3749 9.63415C51.4798 9.90804 51.6378 10.1562 51.8391 10.3626C52.0407 10.569 52.2814 10.7292 52.5456 10.8329C52.8096 10.9366 53.0917 10.9816 53.3734 10.9649C53.8976 10.9927 54.4131 10.8144 54.8175 10.4649L54.3978 9.72804C54.096 9.96854 53.728 10.1008 53.3483 10.1053C53.0254 10.078 52.7244 9.92472 52.5049 9.67606C52.2854 9.42737 52.1634 9.10147 52.1634 8.76316C52.1634 8.42484 52.2854 8.09891 52.5049 7.85025C52.7244 7.60155 53.0254 7.44834 53.3483 7.42106C53.728 7.42544 54.096 7.55773 54.3978 7.79824L54.8175 7.06141C54.4131 6.71193 53.8976 6.53353 53.3734 6.56138C53.0917 6.54473 52.8096 6.58965 52.5456 6.69337C52.2814 6.79709 52.0407 6.95731 51.8391 7.16371C51.6378 7.37012 51.4798 7.61824 51.3749 7.89212C51.2705 8.16605 51.2221 8.45971 51.2322 8.75436V8.77192ZM59.4104 8.77192V6.68419H58.5371V7.19297C58.3889 6.99362 58.1971 6.83401 57.9783 6.72724C57.7591 6.62048 57.5193 6.56965 57.2775 6.57895C56.721 6.57895 56.1869 6.81 55.7934 7.22125C55.3996 7.63249 55.1786 8.19032 55.1786 8.77192C55.1786 9.35352 55.3996 9.91131 55.7934 10.3226C56.1869 10.7338 56.721 10.9649 57.2775 10.9649C57.5193 10.9742 57.7591 10.9234 57.9783 10.8166C58.1971 10.7098 58.3889 10.5502 58.5371 10.3509V10.8596H59.4104V8.77192ZM56.1611 8.77192C56.1749 8.52509 56.2576 8.28794 56.3988 8.08961C56.54 7.89129 56.7341 7.74048 56.9561 7.65573C57.1785 7.57099 57.4199 7.55602 57.6499 7.61268C57.8804 7.66934 58.09 7.79511 58.2528 7.97458C58.4155 8.15404 58.5243 8.37931 58.5662 8.62267C58.6081 8.866 58.5807 9.11683 58.4879 9.34419C58.3951 9.57159 58.2404 9.76561 58.0434 9.9024C57.8461 10.0392 57.615 10.1127 57.3784 10.114C57.212 10.1162 57.0471 10.0824 56.8942 10.0148C56.741 9.94724 56.603 9.84726 56.4887 9.72122C56.3744 9.59517 56.286 9.44573 56.2299 9.28239C56.1735 9.119 56.1498 8.94521 56.1611 8.77192ZM45.6238 6.57895C45.0672 6.5871 44.5364 6.82593 44.148 7.24297C43.76 7.65996 43.5463 8.22099 43.5543 8.80263C43.562 9.38423 43.7906 9.93878 44.1899 10.3443C44.5889 10.7498 45.1258 10.973 45.6827 10.9649C46.2867 10.9973 46.8804 10.7941 47.3492 10.3947L46.9295 9.71927C46.5979 9.99704 46.1873 10.1514 45.7625 10.1579C45.4738 10.1838 45.1869 10.0911 44.9627 9.89942C44.7385 9.70777 44.5947 9.43228 44.5616 9.13157H47.5422C47.5422 9.01753 47.5422 8.90349 47.5422 8.78068C47.5422 7.46492 46.7613 6.58771 45.6365 6.58771L45.6238 6.57895ZM45.6238 7.39473C45.7545 7.39183 45.8844 7.41584 46.0064 7.46541C46.1279 7.51494 46.2393 7.58909 46.3336 7.68359C46.4279 7.77808 46.5036 7.8911 46.556 8.01611C46.6084 8.14113 46.6368 8.27575 46.6398 8.41227H44.5408C44.5557 8.13073 44.6759 7.86656 44.8753 7.67639C45.0745 7.48621 45.3373 7.38509 45.607 7.39473H45.6238ZM67.5 8.78068V5H66.6602V7.19297C66.512 6.99362 66.3206 6.83401 66.1014 6.72724C65.8827 6.62048 65.6424 6.56965 65.4011 6.57895C64.8441 6.57895 64.3104 6.81 63.9166 7.22125C63.5231 7.63249 63.3017 8.19032 63.3017 8.77192C63.3017 9.35352 63.5231 9.91131 63.9166 10.3226C64.3104 10.7338 64.8441 10.9649 65.4011 10.9649C65.6424 10.9742 65.8827 10.9234 66.1014 10.8166C66.3206 10.7098 66.512 10.5502 66.6602 10.3509V10.8596H67.5V8.78068ZM64.2715 8.78068C64.2857 8.53389 64.3683 8.2967 64.5096 8.09838C64.6508 7.90005 64.8445 7.74924 65.0669 7.6645C65.2893 7.57976 65.5303 7.56478 65.7607 7.62144C65.9911 7.6781 66.2004 7.80392 66.3635 7.98334C66.5262 8.16281 66.6351 8.38807 66.6769 8.63144C66.7188 8.8748 66.6915 9.12559 66.5987 9.35299C66.5055 9.58035 66.3511 9.77437 66.1538 9.91116C65.9569 10.0479 65.7258 10.1215 65.4891 10.1228C65.3228 10.125 65.1579 10.0912 65.005 10.0236C64.8517 9.95601 64.7138 9.85606 64.5991 9.72998C64.4848 9.60394 64.3967 9.45453 64.3403 9.29115C64.2839 9.12776 64.2606 8.95398 64.2715 8.78068ZM34.7886 8.78068V6.68419H33.9154V7.19297C33.7671 6.99362 33.5756 6.83401 33.3566 6.72724C33.1376 6.62048 32.8975 6.56965 32.656 6.57895C32.0993 6.57895 31.5654 6.81 31.1718 7.22125C30.7781 7.63249 30.557 8.19032 30.557 8.77192C30.557 9.35352 30.7781 9.91131 31.1718 10.3226C31.5654 10.7338 32.0993 10.9649 32.656 10.9649C32.8975 10.9742 33.1376 10.9234 33.3566 10.8166C33.5756 10.7098 33.7671 10.5502 33.9154 10.3509V10.8596H34.7886V8.78068ZM31.5393 8.78068C31.5532 8.53389 31.6359 8.2967 31.7772 8.09838C31.9185 7.90005 32.1123 7.74924 32.3346 7.6645C32.5569 7.57976 32.7981 7.56478 33.0284 7.62144C33.2588 7.6781 33.4683 7.80392 33.631 7.98334C33.7938 8.16281 33.9028 8.38807 33.9446 8.63144C33.9864 8.8748 33.9591 9.12559 33.8662 9.35299C33.7733 9.58035 33.6188 9.77437 33.4216 9.91116C33.2245 10.0479 32.9934 10.1215 32.7567 10.1228C32.5898 10.1262 32.424 10.0934 32.2699 10.0263C32.1158 9.95925 31.9767 9.85945 31.8614 9.73326C31.7462 9.60706 31.6573 9.45724 31.6004 9.29324C31.5435 9.12929 31.5198 8.95474 31.5309 8.78068H31.5393Z" fill="white"/>
<path d="M12.5 4H7.5V13H12.5V4Z" fill="#FF5F00"/>
<path d="M8.13926 9.00084C8.13825 8.09203 8.35029 7.19496 8.75929 6.37747C9.1683 5.56003 9.76356 4.84362 10.5 4.28249C9.58817 3.58687 8.49313 3.1543 7.34006 3.03423C6.18696 2.91416 5.02232 3.11142 3.97926 3.60349C2.93619 4.09554 2.05678 4.86258 1.44153 5.81685C0.826272 6.77116 0.5 7.87421 0.5 9.00001C0.5 10.1258 0.826272 11.2289 1.44153 12.1832C2.05678 13.1374 2.93619 13.9044 3.97926 14.3965C5.02232 14.8886 6.18696 15.0858 7.34006 14.9658C8.49313 14.8457 9.58817 14.4131 10.5 13.7175C9.76379 13.1566 9.16867 12.4404 8.75967 11.6233C8.3507 10.8061 8.13851 9.90935 8.13926 9.00084Z" fill="#EB001B"/>
<path d="M20.5 9.00085C20.5 10.1266 20.1737 11.2296 19.5583 12.1838C18.943 13.138 18.0636 13.9049 17.0205 14.3969C15.9774 14.8888 14.8127 15.0859 13.6597 14.9657C12.5066 14.8454 11.4117 14.4127 10.5 13.717C11.2358 13.1556 11.8308 12.4394 12.2398 11.6222C12.6489 10.8051 12.8614 9.90851 12.8614 8.99998C12.8614 8.0915 12.6489 7.19489 12.2398 6.37779C11.8308 5.56065 11.2358 4.8444 10.5 4.28305C11.4117 3.58728 12.5066 3.15455 13.6597 3.03432C14.8127 2.91409 15.9774 3.11121 17.0205 3.60315C18.0636 4.09507 18.943 4.86199 19.5583 5.81622C20.1737 6.77042 20.5 7.87345 20.5 8.99915V9.00085Z" fill="#F79E1B"/>
<path d="M19.7376 12.2288V12.0392H19.8927V12H19.5V12.0392H19.6683V12.2288H19.7376ZM20.5 12.2288V12H20.3812L20.2426 12.1634L20.104 12H19.9984V12.2288H20.0842V12.0572L20.2129 12.2059H20.302L20.4307 12.0572V12.2305L20.5 12.2288Z" fill="#F79E1B"/>
</g>
<defs>
<clipPath id="clip0_1376_9104">
<rect width="67" height="17" fill="white" transform="translate(0.5)"/>
</clipPath>
</defs>
</svg>
