<svg width="27" height="35" viewBox="0 0 27 35" fill="none" xmlns="http://www.w3.org/2000/svg">
<path d="M8.625 13.25C8.64183 11.9623 9.16085 10.7321 10.0715 9.8215C10.9821 8.91088 12.2123 8.39186 13.5 8.37503C14.7877 8.39186 16.0179 8.91088 16.9285 9.8215C17.8391 10.7321 18.3582 11.9623 18.375 13.25C18.3582 14.5377 17.8391 15.7679 16.9285 16.6786C16.0179 17.5892 14.7877 18.1082 13.5 18.125C12.2123 18.1082 10.9821 17.5892 10.0715 16.6786C9.16085 15.7679 8.64183 14.5377 8.625 13.25ZM13.5 27.875L20 29.5V24.495C18.0397 25.6755 15.788 26.2835 13.5 26.25C11.212 26.2835 8.96027 25.6755 7 24.495V29.5M13.5 3.50003C12.2194 3.47666 10.9476 3.71544 9.76277 4.20169C8.5779 4.68793 7.50499 5.41137 6.61 6.32753C5.68393 7.2235 4.95213 8.30044 4.4601 9.49136C3.96808 10.6823 3.72637 11.9617 3.75 13.25C3.73307 14.5302 3.97803 15.8003 4.46986 16.9824C4.96168 18.1644 5.68997 19.2334 6.61 20.1238C7.50082 21.0488 8.57185 21.7812 9.75692 22.2759C10.942 22.7706 12.2159 23.0171 13.5 23C14.7841 23.0171 16.058 22.7706 17.2431 22.2759C18.4281 21.7812 19.4992 21.0488 20.39 20.1238C21.31 19.2334 22.0383 18.1644 22.5301 16.9824C23.022 15.8003 23.2669 14.5302 23.25 13.25C23.2736 11.9617 23.0319 10.6823 22.5399 9.49136C22.0479 8.30044 21.3161 7.2235 20.39 6.32753C19.495 5.41137 18.4221 4.68793 17.2372 4.20169C16.0524 3.71544 14.7806 3.47666 13.5 3.50003ZM26.5 13.25C26.4654 14.8098 26.1517 16.3508 25.5737 17.8C25.0531 19.2746 24.2654 20.6407 23.25 21.83V34.375L13.5 31.125L3.75 34.375V21.83C1.64674 19.468 0.489436 16.4127 0.499998 13.25C0.471357 11.5447 0.792557 9.85165 1.44377 8.27533C2.09498 6.69901 3.06238 5.27289 4.28625 4.08503C5.47851 2.85019 6.91121 1.87281 8.49591 1.21321C10.0806 0.553622 11.7837 0.225816 13.5 0.250029C15.2163 0.225816 16.9194 0.553622 18.5041 1.21321C20.0888 1.87281 21.5215 2.85019 22.7137 4.08503C23.9376 5.27289 24.905 6.69901 25.5562 8.27533C26.2074 9.85165 26.5286 11.5447 26.5 13.25Z" fill="#FFAF38"/>
</svg>
