<svg width="31" height="31" viewBox="0 0 31 31" fill="none" xmlns="http://www.w3.org/2000/svg">
<path d="M15.4999 1.9375C16.5699 1.9375 17.4374 2.8049 17.4374 3.875C17.4374 3.98778 17.5169 4.08464 17.6269 4.10928C17.8838 4.16683 18.1367 4.23452 18.3854 4.31202C18.4927 4.34544 18.6095 4.30142 18.6657 4.2041C19.2008 3.27746 20.3857 2.95994 21.3124 3.49492C22.2391 4.02992 22.5567 5.21496 22.0215 6.1416C21.9646 6.24024 21.9851 6.36507 22.0688 6.44232C22.2598 6.61862 22.4437 6.80248 22.62 6.99352C22.6973 7.0772 22.8221 7.09774 22.9207 7.04082C23.8474 6.50583 25.0324 6.82335 25.5675 7.75C26.1025 8.67665 25.7849 9.86168 24.8582 10.3967C24.761 10.4528 24.717 10.5696 24.7503 10.6769C24.8278 10.9256 24.8956 11.1786 24.9532 11.4355C24.9778 11.5455 25.0746 11.625 25.1874 11.625C26.2575 11.625 27.1249 12.4924 27.1249 13.5625C27.1249 14.6326 26.2575 15.5 25.1874 15.5C25.0746 15.5 24.9778 15.5795 24.9532 15.6895C24.9379 15.7582 24.9218 15.8266 24.9049 15.8947C24.8586 16.0814 24.8071 16.2659 24.7503 16.4481C24.717 16.5554 24.761 16.6722 24.8582 16.7283C25.7849 17.2633 26.1025 18.4484 25.5675 19.375C25.0324 20.3017 23.8474 20.6193 22.9207 20.0841L22.8227 20.0275C22.7812 20.0035 22.7285 20.0122 22.6966 20.0477C22.6669 20.0804 22.6617 20.1283 22.6838 20.1665L27.2605 28.0938L23.775 27.869L22.2267 31L17.6619 23.0935C17.6359 23.0483 17.5837 23.0254 17.5328 23.0363C17.4774 23.0481 17.4374 23.0969 17.4374 23.1535V23.25C17.4374 24.3201 16.5699 25.1875 15.4999 25.1875C14.4299 25.1875 13.5624 24.3201 13.5624 23.25V23.1535C13.5624 23.0969 13.5224 23.0481 13.467 23.0363C13.4161 23.0254 13.3639 23.0483 13.3379 23.0935L8.77304 31L7.2249 27.869L3.73926 28.0938L8.31608 20.1665C8.33809 20.1283 8.3328 20.0804 8.30333 20.0477C8.27124 20.0122 8.21868 20.0035 8.17718 20.0275L8.07906 20.0841C7.15236 20.6193 5.96744 20.3017 5.43238 19.375C4.89734 18.4484 5.21486 17.2633 6.14156 16.7283C6.23885 16.6722 6.28287 16.5554 6.24944 16.4482C6.17194 16.1994 6.10419 15.9464 6.04663 15.6895C6.02198 15.5795 5.92515 15.5 5.8124 15.5C4.74236 15.5 3.8749 14.6326 3.8749 13.5625C3.8749 12.4924 4.74236 11.625 5.8124 11.625C5.92515 11.625 6.02198 11.5455 6.04663 11.4355C6.10419 11.1786 6.17194 10.9256 6.24944 10.6768C6.28287 10.5696 6.23885 10.4528 6.14156 10.3967C5.21486 9.86168 4.89734 8.67665 5.43238 7.75C5.96744 6.82335 7.15236 6.50583 8.07906 7.04082C8.17766 7.09774 8.30246 7.07722 8.37969 6.99356C8.55606 6.80247 8.74002 6.61848 8.9311 6.44211C9.01474 6.36492 9.03526 6.24016 8.97833 6.1416C8.44335 5.21496 8.76081 4.03004 9.68752 3.49492C10.6142 2.95994 11.7992 3.27746 12.3342 4.2041C12.3904 4.30142 12.5072 4.34546 12.6144 4.31206C12.8631 4.2346 13.1161 4.16686 13.3729 4.1093C13.4829 4.08464 13.5624 3.98778 13.5624 3.875C13.5624 2.8049 14.4299 1.9375 15.4999 1.9375ZM15.4999 7.75C12.2897 7.75 9.6874 10.3523 9.6874 13.5625C9.6874 16.7727 12.2897 19.375 15.4999 19.375C18.7101 19.375 21.3124 16.7727 21.3124 13.5625C21.3124 10.3523 18.7101 7.75 15.4999 7.75ZM15.4999 11.625C16.57 11.625 17.4374 12.4925 17.4374 13.5625C17.4374 14.6325 16.57 15.5 15.4999 15.5C14.4299 15.5 13.5624 14.6325 13.5624 13.5625C13.5624 12.4925 14.4299 11.625 15.4999 11.625Z" fill="#A4AAF8"/>
</svg>
