<svg width="28" height="21" viewBox="0 0 28 21" fill="none" xmlns="http://www.w3.org/2000/svg">
<g clip-path="url(#clip0_1376_9112)">
<mask id="mask0_1376_9112" style="mask-type:luminance" maskUnits="userSpaceOnUse" x="0" y="4" width="28" height="14">
<path d="M27.5 4H0.5V18H27.5V4Z" fill="white"/>
</mask>
<g mask="url(#mask0_1376_9112)">
<path d="M1.66042 8.36791L6.81341 15.8813H7.75841V6.09037H6.61235V13.5357L1.62309 6.27474L1.4967 6.09037H0.956701L0.948087 6.079V6.09037H0.514362V15.8813H1.66042V8.36791ZM15.3069 11.9643C17.0504 10.9206 17.7341 10.0243 17.7341 8.76214C17.7341 7.02916 16.5478 5.90881 14.7181 5.90881C14.0404 5.90886 13.3773 6.10389 12.8101 6.47008C12.2428 6.83631 11.7959 7.35781 11.5241 7.97084L11.3517 8.35089L12.3886 8.82173L12.5638 8.45585C12.7414 8.03729 13.0399 7.67964 13.4219 7.42746C13.804 7.17529 14.2528 7.03971 14.7124 7.03769C15.8613 7.03769 16.565 7.68436 16.565 8.77067C16.565 9.4684 16.2577 10.0867 14.7353 11.0113C12.0181 12.6564 11.4178 13.391 11.3459 15.1524V15.8898H17.7025V14.7553H12.5322C12.6356 13.8533 13.0378 13.3286 15.3069 11.9643ZM24.1968 9.51377C23.3382 9.54221 22.5111 9.84027 21.8358 10.3647C22.0138 8.25447 22.956 7.01783 24.4209 7.01783C24.743 7.01105 25.0632 7.06801 25.3626 7.18544C25.6621 7.30282 25.9347 7.47826 26.1644 7.70138L26.4918 7.98501L27.2358 7.11994L26.9083 6.83631C26.2284 6.22421 25.338 5.89057 24.418 5.90317C22.1 5.90317 20.661 7.90841 20.661 11.1361C20.661 14.7638 22.482 16.0571 24.1853 16.0571C26.3511 16.0628 27.5 14.3667 27.5 12.6905C27.5 10.3448 25.722 9.51377 24.1968 9.51377ZM26.3511 12.6905C26.3511 13.8108 25.61 14.9424 24.1939 14.9424C23.2317 14.9424 22.0483 14.1341 21.8386 11.8651C22.2551 11.3716 23.1542 10.6313 24.2054 10.6313C26.1328 10.6341 26.3511 12.0721 26.3511 12.6905ZM0.5 17.1576H7.77277V18H0.5V17.1576ZM0.525851 4H7.77277V4.84238H0.525851V4Z" fill="white"/>
</g>
</g>
<defs>
<clipPath id="clip0_1376_9112">
<rect width="27" height="21" fill="white" transform="translate(0.5)"/>
</clipPath>
</defs>
</svg>
