<svg width="47" height="23" viewBox="0 0 47 23" fill="none" xmlns="http://www.w3.org/2000/svg">
<g clip-path="url(#clip0_1376_9120)">
<path d="M2.8283 11.6915C2.82518 11.756 2.82518 11.8206 2.8283 11.8851V16.5461C2.8283 16.7901 2.79349 16.8237 2.56919 16.8237H0.712892C0.550467 16.8237 0.496324 16.7606 0.500192 16.5839V8.10747C0.500368 7.98713 0.531153 7.8692 0.589139 7.76672C0.707512 7.52683 0.885709 7.32811 1.10325 7.19339C1.32079 7.05872 1.56886 6.9935 1.81894 7.00532C2.13686 6.97808 2.45492 7.05582 2.73162 7.22828C2.88249 7.32512 3.01398 7.45385 3.11835 7.60687C3.37746 8.07802 3.59402 8.5744 3.8338 9.05816C3.97302 9.34002 4.12384 9.61348 4.2592 9.89951C4.35201 10.0972 4.42162 10.3202 4.5067 10.5053C4.52604 10.56 4.55311 10.6147 4.57632 10.6693L5.09451 11.7463C5.11309 11.7809 5.13656 11.8122 5.16416 11.8388C5.16416 11.7504 5.18346 11.7042 5.18346 11.6579V7.47647C5.18346 7.17356 5.18346 7.15673 5.48512 7.15673H7.24475C7.4729 7.15673 7.5 7.18618 7.5 7.43441V15.873C7.48899 16.0439 7.43253 16.2076 7.33755 16.3441C7.23972 16.5258 7.10337 16.6794 6.93992 16.792C6.77643 16.9047 6.5906 16.9733 6.39783 16.992C6.19954 17.0154 5.99898 16.9873 5.81269 16.9097C5.62645 16.8322 5.45979 16.7075 5.32656 16.5461C5.17105 16.3541 5.0337 16.1455 4.91664 15.9235C4.7078 15.5281 4.52991 15.1242 4.32108 14.7162C3.97689 13.9968 3.63656 13.2733 3.29624 12.5539C3.16862 12.2847 3.03713 12.0197 2.90951 11.7547C2.89405 11.7168 2.87084 11.7168 2.8283 11.6915Z" fill="#E01588"/>
<path d="M13.172 11.2734C13.1165 11.2333 13.0808 11.1892 13.0373 11.1772C12.6481 11.0427 12.2229 11.0628 11.8478 11.2333C11.5213 11.398 11.2721 11.686 11.154 12.0352C11.0355 12.3293 10.9736 12.6436 10.9717 12.9613C10.9967 13.2804 11.0915 13.5899 11.2492 13.8674C11.3177 14.0004 11.4059 14.1221 11.5109 14.2282C11.6248 14.3624 11.7677 14.4683 11.9286 14.5379C12.0894 14.6074 12.2639 14.6386 12.4386 14.6291C12.7363 14.6601 13.0368 14.6074 13.3068 14.4767C13.6692 14.2894 13.9799 14.0139 14.2108 13.6749C14.3218 13.4704 14.4526 13.274 14.5676 13.0816C14.6231 12.9853 14.6826 12.9893 14.7698 13.0334L16.3556 13.8353C16.3876 13.8478 16.4164 13.8675 16.4398 13.893C16.4631 13.9185 16.4804 13.949 16.4904 13.9822C16.5003 14.0155 16.5026 14.0506 16.4971 14.0849C16.4916 14.1191 16.4785 14.1517 16.4587 14.18C16.301 14.5207 16.1139 14.8467 15.8997 15.1543C15.6895 15.4492 15.446 15.7183 15.1742 15.9561C14.8146 16.2453 14.4267 16.4965 14.0165 16.7058C13.8411 16.7785 13.661 16.8388 13.4773 16.8862C12.8953 17.0031 12.2991 17.0301 11.7091 16.9664C11.4568 16.9414 11.2111 16.8708 10.9836 16.7579C10.7466 16.6723 10.5215 16.5564 10.3135 16.4131C9.91325 16.1577 9.57023 15.8204 9.30651 15.4229C9.12418 15.1182 8.93385 14.8215 8.7832 14.5048C8.59399 14.133 8.49737 13.7202 8.50174 13.3021C8.4937 12.9309 8.51358 12.5596 8.5612 12.1915C8.63139 11.9142 8.73108 11.6453 8.85855 11.3897C9.09788 10.8522 9.44954 10.3734 9.88933 9.98649C10.0569 9.84827 10.233 9.7211 10.4166 9.60561C10.7571 9.37839 11.1361 9.21665 11.5346 9.12853C11.9433 9.00607 12.3725 8.97062 12.7954 9.02432C13.189 9.09508 13.5762 9.19831 13.9531 9.33302C14.1884 9.42675 14.4089 9.5551 14.6072 9.71389C14.8535 9.89874 15.0794 10.1098 15.2812 10.3433C15.5383 10.6686 15.7765 11.0086 15.9949 11.3616C16.0662 11.4699 16.0583 11.5902 15.8997 11.6784C15.7411 11.7665 15.5032 11.951 15.3209 12.0793C15.0315 12.2757 14.7341 12.4802 14.4486 12.6686C14.2346 12.8129 14.0522 12.9813 13.8222 13.1256C13.3742 13.4384 12.9223 13.7511 12.4663 14.0517C12.3117 14.156 12.2562 14.1239 12.1531 13.9595C11.8915 13.5587 11.6258 13.1297 11.3602 12.7207C11.3008 12.6285 11.2889 12.5604 11.3602 12.4962C11.4316 12.4321 11.6338 12.2797 11.7765 12.1835L12.7518 11.546L13.172 11.2734Z" fill="#E01588"/>
<path d="M20.4728 16.9908H20.0664C19.6253 16.9906 19.1915 16.8786 18.8066 16.6656C18.259 16.399 17.7808 16.0117 17.4087 15.5336C17.0875 15.1398 16.8398 14.6926 16.6772 14.213C16.5074 13.6664 16.4589 13.09 16.5349 12.5231C16.5768 12.0612 16.7152 11.6129 16.9413 11.2065C17.2321 10.6977 17.6151 10.246 18.0711 9.8738C18.3734 9.61323 18.7239 9.41289 19.1033 9.28373C19.3674 9.20346 19.6356 9.15129 19.8917 9.075C20.1469 9.0063 20.4127 8.98452 20.676 9.0108C20.9122 9.03843 21.1458 9.08409 21.3749 9.14726C21.4627 9.15714 21.5496 9.17321 21.635 9.19545C22.0786 9.33604 22.4919 9.55652 22.8542 9.8457C22.9816 9.92854 23.1 10.024 23.2077 10.1307C23.4395 10.3799 23.6489 10.6485 23.8336 10.9335C24.0178 11.2474 24.1742 11.5764 24.3009 11.917C24.3614 12.1115 24.3996 12.3121 24.4147 12.5151C24.4616 12.7264 24.4901 12.9412 24.5 13.1573C24.4825 13.403 24.4403 13.6464 24.3741 13.8839C24.3026 14.1838 24.2074 14.4777 24.0895 14.7629C23.977 14.9891 23.8408 15.203 23.6832 15.4012C23.5649 15.569 23.4286 15.7237 23.2768 15.8628C22.9408 16.1804 22.5621 16.4506 22.1511 16.6656C21.6318 16.9221 21.0517 17.0345 20.4728 16.9908ZM19.1073 13.1573C19.1177 13.4001 19.1904 13.6363 19.3187 13.8438C19.351 13.9236 19.3978 13.9971 19.4568 14.0605C19.6434 14.2605 19.8856 14.4018 20.1529 14.4668C20.4204 14.5317 20.7012 14.5175 20.9604 14.4258C21.2658 14.3247 21.525 14.1198 21.6919 13.8477C21.9358 13.4704 21.8179 13.045 21.8423 12.6194V12.5713C21.77 12.2932 21.609 12.0454 21.3831 11.8648C21.2141 11.7023 20.9956 11.5993 20.7613 11.5717C20.5404 11.5361 20.314 11.554 20.1016 11.624C19.8892 11.6939 19.6973 11.8137 19.5422 11.9732C19.3926 12.1314 19.277 12.3179 19.2023 12.5214C19.1276 12.7249 19.0953 12.9412 19.1073 13.1573Z" fill="#E01588"/>
<path d="M30.5213 11.7023V9.28968C30.5213 9.03722 30.5512 9.0041 30.8071 9.0041H32.94C33.1789 9.0041 33.2045 9.03307 33.2045 9.26481V13.6514C33.1872 13.8349 33.2414 14.0179 33.3564 14.1645C33.4714 14.3111 33.6388 14.4106 33.8257 14.4433C34.0126 14.4761 34.2053 14.4397 34.3659 14.3413C34.5265 14.243 34.6432 14.0898 34.6932 13.9121C34.7412 13.7149 34.7726 13.5142 34.787 13.312V9.32275C34.787 9.02897 34.8126 9 35.1155 9H37.2099C37.4701 9 37.5 9.04963 37.5 9.29793V13.9038C37.4805 14.1492 37.4289 14.3911 37.3464 14.6238C37.2968 14.8619 37.2195 15.0937 37.1161 15.315C36.9766 15.57 36.8078 15.8088 36.6127 16.0268C36.2124 16.4648 35.6867 16.7774 35.1027 16.9247C34.8755 16.9799 34.6415 17.0049 34.4074 16.9992H33.4732C33.0345 16.9977 32.6043 16.882 32.2276 16.664C31.9071 16.5049 31.6183 16.2919 31.3745 16.035C31.0871 15.7361 30.8728 15.3783 30.7474 14.988C30.6877 14.7811 30.6109 14.5742 30.5469 14.3756C30.5189 14.2841 30.5031 14.1895 30.5 14.0942L30.5213 11.7023Z" fill="#E01588"/>
<path d="M41.5107 12.586V8.49286C41.5234 8.07103 41.6477 7.66342 41.8672 7.32342C42.0892 6.94617 42.3738 6.62199 42.705 6.36915C42.8879 6.24811 43.0847 6.15658 43.2897 6.09708C43.8315 5.91843 44.3949 6.04833 44.9474 6.0118H45.336C45.4644 6.0118 45.4929 6.06055 45.4929 6.18235V8.27768C45.4929 8.41573 45.4216 8.44823 45.3182 8.44823H44.3342C44.2786 8.44496 44.2229 8.45439 44.1705 8.47604C44.1181 8.49769 44.0701 8.53109 44.0292 8.57425C43.9883 8.61736 43.9554 8.66942 43.9325 8.72731C43.9096 8.78516 43.8971 8.84765 43.8957 8.91113C43.8975 8.94088 43.8975 8.97072 43.8957 9.00047C43.8494 9.2319 43.8494 9.2319 44.0562 9.23597H45.2398C45.4822 9.23597 45.5 9.26032 45.5 9.52429V11.4288C45.5 11.5952 45.4572 11.6602 45.3075 11.6602H44.0098C43.8743 11.6602 43.8316 11.7049 43.8316 11.8632V16.736C43.8316 16.9756 43.8066 17 43.5962 17H41.7531C41.5142 17 41.5 17 41.5 16.7076V12.6023L41.5107 12.586Z" fill="#E01588"/>
<path d="M26.1506 16.9956H24.7296C24.5146 16.9956 24.5 16.9956 24.5 16.7339V14.9439C24.5 14.6527 24.5 14.6484 24.7441 14.6484H26.7847C26.8752 14.5975 26.954 14.5223 27.0142 14.4289C27.0142 14.3783 26.9414 14.2263 26.8722 14.1841C26.6499 14.049 26.4058 13.9561 26.1798 13.8252C25.9539 13.6944 25.6515 13.4959 25.3928 13.3271C25.3173 13.2836 25.2474 13.2282 25.185 13.1624C24.9331 12.8758 24.7475 12.52 24.6458 12.1282C24.5533 11.7233 24.5347 11.3006 24.5911 10.887C24.6243 10.5138 24.7671 10.165 24.9956 9.89919C25.2138 9.59826 25.493 9.36476 25.8081 9.21951C26.0489 9.09072 26.3086 9.0162 26.5733 9H28.7596C29.0657 9 29.0766 9 29.073 9.36303V11.0052C29.073 11.2712 29.0548 11.2923 28.8289 11.2965H27.2037C27.0543 11.2965 26.9341 11.3429 26.9086 11.5076C26.8831 11.6722 26.996 11.7398 27.1126 11.8158C27.6466 12.0765 28.1619 12.3857 28.654 12.7403C29.0192 13.0451 29.287 13.4816 29.4155 13.9815C29.4922 14.2374 29.5172 14.5104 29.4884 14.7793C29.4411 15.233 29.3011 15.6671 29.0803 16.0458C28.8578 16.3648 28.5731 16.618 28.2495 16.7846C28.02 16.9026 27.7719 16.9644 27.5207 16.9661C27.0653 17.0167 26.6061 16.9956 26.1506 16.9956Z" fill="#E01588"/>
<path d="M39.5749 9.88918C39.7473 9.67476 39.9307 9.473 40.1239 9.285C40.3733 9.08408 40.6711 8.98471 40.9724 9.00191H41.3289C41.4501 9.00191 41.5 9.07373 41.5 9.20894V11.3764C41.5 11.5074 41.443 11.5497 41.336 11.5623C41.0829 11.5835 40.8298 11.6046 40.5802 11.651C40.4105 11.6793 40.2536 11.7741 40.1347 11.9204C40.0158 12.0667 39.9417 12.256 39.9242 12.4581C39.873 12.7896 39.855 13.1271 39.8708 13.4636V16.7423C39.8708 16.9704 39.8458 17 39.6569 17H37.6996C37.5178 17 37.5 16.9704 37.5 16.7507V9.31033C37.5 9.03149 37.5214 9.00191 37.7567 9.00191H39.3396C39.5606 9.00191 39.582 9.03149 39.582 9.285L39.5749 9.88918Z" fill="#E01588"/>
</g>
<defs>
<clipPath id="clip0_1376_9120">
<rect width="46" height="23" fill="white" transform="translate(0.5)"/>
</clipPath>
</defs>
</svg>
