<svg width="25" height="24" viewBox="0 0 25 24" fill="none" xmlns="http://www.w3.org/2000/svg">
<path d="M12.7805 3.34166C12.4989 3.20089 12.1676 3.20089 11.886 3.34166L10.213 4.17816L16.9532 7.92268L19.3766 6.63971L12.7805 3.34166ZM14.8444 9.03907L8.04553 5.26191L5.28994 6.63971L12.3333 10.3685L14.8444 9.03907ZM4.33325 15.8232C4.33325 16.1864 4.53014 16.521 4.84761 16.6974L11.3333 20.3005V12.1021L4.33325 8.39622V15.8232ZM19.8189 16.6974C20.1364 16.521 20.3333 16.1864 20.3333 15.8232V8.39622L13.3333 12.1021V20.3005L19.8189 16.6974ZM10.9916 1.5528C11.8362 1.13051 12.8303 1.13051 13.6749 1.5528L20.6749 5.0528C21.6912 5.56098 22.3333 6.59977 22.3333 7.73608V15.8232C22.3333 16.9127 21.7426 17.9166 20.7902 18.4457L13.7902 22.3346C12.8841 22.8379 11.7824 22.8379 10.8763 22.3346L3.87632 18.4457C2.92393 17.9166 2.33325 16.9127 2.33325 15.8232V7.73608C2.33325 6.59977 2.97526 5.56098 3.99161 5.0528L10.9916 1.5528Z" fill="#5C67ED"/>
</svg>
