<svg width="88" height="30" viewBox="0 0 88 30" fill="none" xmlns="http://www.w3.org/2000/svg">
<g clip-path="url(#clip0_763_14471)">
<path d="M8.59375 9.91975L8.59685 19.8332V19.8363L17.1829 14.8733L8.59375 9.91975Z" fill="#008AFF"/>
<path d="M8.59548 0L0.00634766 4.96295L0.00947046 24.7929L8.59548 19.83V0Z" fill="#230EE6"/>
<path d="M8.59563 19.8267L0.00646973 24.7928L8.59249 29.7465H8.59563V19.8267Z" fill="#1B51F5"/>
<path d="M8.59685 19.8298H8.59375L8.59685 29.7463L17.1829 24.7834L8.59685 19.8298Z" fill="#FF4378"/>
<path d="M17.1829 14.8701L17.1798 14.867L8.59375 19.83L17.1829 24.7867V14.8701Z" fill="#1B51F5"/>
<path d="M25.7608 9.90724L17.181 14.8671V24.7868L25.764 19.8269L25.7608 9.90724Z" fill="#FF8585"/>
<path d="M17.1842 14.87H17.181V24.7866L25.764 19.8299L17.1842 14.87Z" fill="#FF4378"/>
<path d="M8.58604 0L0 4.95986L17.1783 14.8733L25.7612 9.91034L8.58604 0Z" fill="#FFE71D"/>
<path d="M8.59025 0.0123749L0.00421143 4.96283L8.59334 9.92269L8.59025 0.0123749Z" fill="#FFD015"/>
<path d="M41.7058 11.4967C41.0072 11.1066 40.2155 10.9114 39.3307 10.9114C38.7053 10.9114 38.1365 11.0191 37.6209 11.2377C37.1053 11.4564 36.6695 11.7827 36.3169 12.22V11.0157H34.2911V23.5493H36.42V19.0923C37.1352 19.9198 38.1065 20.3335 39.3307 20.3335C40.2155 20.3335 41.0072 20.1384 41.7058 19.7482C42.4044 19.358 42.9531 18.803 43.3489 18.0865C43.7447 17.37 43.9446 16.5458 43.9446 15.6175C43.9446 14.689 43.7447 13.8682 43.3489 13.1551C42.9531 12.4386 42.4044 11.887 41.7058 11.4967ZM41.0238 17.6963C40.5182 18.2244 39.8729 18.4868 39.0912 18.4868C38.5789 18.4868 38.1198 18.3691 37.7107 18.1336C37.3015 17.8981 36.9788 17.5617 36.7393 17.1278C36.4998 16.6905 36.3801 16.1859 36.3801 15.6141C36.3801 15.0389 36.4998 14.5343 36.7393 14.1003C36.9788 13.6631 37.3015 13.33 37.7107 13.0946C38.1198 12.8591 38.5789 12.7414 39.0912 12.7414C39.8729 12.7414 40.5182 13.0071 41.0238 13.5319C41.5294 14.06 41.7822 14.753 41.7822 15.6141C41.7822 16.4752 41.5294 17.1682 41.0238 17.6963ZM44.949 20.209H47.0779V7.43663H44.949V20.209ZM55.1748 11.5069C54.4761 11.1099 53.6841 10.9114 52.7996 10.9114C51.9014 10.9114 51.0962 11.1133 50.381 11.5136C49.6659 11.9139 49.1073 12.4757 48.7045 13.1921C48.3021 13.9086 48.0992 14.7159 48.0992 15.6107C48.0992 16.5189 48.3054 17.3296 48.7214 18.0461C49.1371 18.7626 49.7225 19.3244 50.4843 19.7247C51.2462 20.125 52.1241 20.3268 53.1223 20.3268C53.9039 20.3268 54.6092 20.199 55.2343 19.9467C55.8598 19.6944 56.3754 19.321 56.7844 18.8265L55.6437 17.5012C54.995 18.1672 54.1733 18.5002 53.1755 18.5002C52.3935 18.5002 51.7349 18.3018 51.2094 17.9048C50.6806 17.5079 50.3546 16.9731 50.2315 16.2936H57.3665C57.39 16.0177 57.4 15.8058 57.4 15.6578C57.4 14.7159 57.2037 13.8884 56.8112 13.1686C56.4187 12.4588 55.873 11.9038 55.1748 11.5069ZM50.2116 14.874C50.3145 14.1979 50.6008 13.653 51.0731 13.246C51.5453 12.8389 52.1208 12.6337 52.8029 12.6337C53.4945 12.6337 54.0733 12.8389 54.5393 13.2527C55.005 13.6664 55.2809 14.2046 55.3743 14.8707H50.2116V14.874ZM65.1973 12.1527C64.8444 11.739 64.4189 11.4295 63.9198 11.2243C63.4207 11.0191 62.8688 10.9148 62.2664 10.9148C61.3918 10.9148 60.6068 11.1099 59.9082 11.5001C59.2095 11.8903 58.6609 12.442 58.2647 13.1518C57.8656 13.8649 57.6693 14.6857 57.6693 15.6141C57.6693 16.5425 57.8689 17.3666 58.2647 18.0831C58.6609 18.7996 59.2095 19.3547 59.9082 19.7448C60.6068 20.1351 61.3918 20.3301 62.2664 20.3301C62.8919 20.3301 63.4608 20.2225 63.9764 20.0039C64.492 19.7852 64.9279 19.4589 65.2803 19.0216V20.209H67.3229V7.43663H65.194V12.1527H65.1973ZM64.8746 17.1278C64.635 17.5651 64.3123 17.9015 63.9033 18.1336C63.4939 18.3691 63.0349 18.4868 62.5226 18.4868C62.0103 18.4868 61.5513 18.3691 61.1422 18.1336C60.7332 17.8981 60.4106 17.5617 60.1709 17.1278C59.9313 16.6905 59.8115 16.1859 59.8115 15.6141C59.8115 15.0389 59.9313 14.5343 60.1709 14.1003C60.4106 13.6631 60.7332 13.33 61.1422 13.0946C61.5513 12.8591 62.0103 12.7414 62.5226 12.7414C63.0349 12.7414 63.4939 12.8591 63.9033 13.0946C64.3123 13.33 64.635 13.6664 64.8746 14.1003C65.1138 14.5377 65.2303 15.0422 65.2303 15.6141C65.2303 16.1859 65.1105 16.6905 64.8746 17.1278ZM75.6854 11.5169C74.9471 11.1166 74.1121 10.9148 73.1805 10.9148C72.2625 10.9148 71.4308 11.1166 70.6958 11.5169C69.9575 11.9172 69.382 12.4757 68.966 13.1854C68.5503 13.8985 68.3442 14.7059 68.3442 15.6141C68.3442 16.5223 68.5503 17.333 68.966 18.0495C69.382 18.766 69.9575 19.3277 70.6958 19.728C71.4341 20.1283 72.2625 20.3301 73.1805 20.3301C74.1121 20.3301 74.9471 20.1283 75.6854 19.728C76.4241 19.3277 76.9996 18.766 77.4152 18.0495C77.8308 17.333 78.0374 16.5189 78.0374 15.6141C78.0374 14.7059 77.8308 13.8985 77.4152 13.1854C76.9996 12.4757 76.4241 11.9172 75.6854 11.5169ZM75.1235 17.6963C74.6112 18.2244 73.9659 18.4868 73.1805 18.4868C72.3988 18.4868 71.7535 18.2244 71.2478 17.6963C70.7425 17.1682 70.4897 16.4752 70.4897 15.6141C70.4897 14.753 70.7425 14.06 71.2478 13.5319C71.7535 13.0037 72.3988 12.7414 73.1805 12.7414C73.9626 12.7414 74.6112 13.0071 75.1235 13.5319C75.6354 14.06 75.8882 14.753 75.8882 15.6141C75.8882 16.4752 75.6354 17.1682 75.1235 17.6963ZM87.3778 13.1854C86.9622 12.4723 86.3867 11.9172 85.6484 11.5169C84.9097 11.1166 84.0747 10.9148 83.1435 10.9148C82.2255 10.9148 81.3938 11.1166 80.6584 11.5169C79.9201 11.9172 79.3446 12.4757 78.9286 13.1854C78.5129 13.8985 78.3068 14.7059 78.3068 15.6141C78.3068 16.5223 78.5129 17.333 78.9286 18.0495C79.3446 18.766 79.9201 19.3277 80.6584 19.728C81.3971 20.1283 82.2255 20.3301 83.1435 20.3301C84.0747 20.3301 84.9097 20.1283 85.6484 19.728C86.3867 19.3277 86.9622 18.766 87.3778 18.0495C87.7938 17.333 88 16.5189 88 15.6141C88 14.7059 87.7905 13.8985 87.3778 13.1854ZM85.0861 17.6963C84.5738 18.2244 83.9284 18.4868 83.1435 18.4868C82.3618 18.4868 81.7165 18.2244 81.2108 17.6963C80.7051 17.1682 80.4522 16.4752 80.4522 15.6141C80.4522 14.753 80.7051 14.06 81.2108 13.5319C81.7165 13.0037 82.3618 12.7414 83.1435 12.7414C83.9251 12.7414 84.5738 13.0071 85.0861 13.5319C85.5984 14.06 85.8512 14.753 85.8512 15.6141C85.8512 16.4752 85.5984 17.1682 85.0861 17.6963Z" fill="white"/>
</g>
<defs>
<clipPath id="clip0_763_14471">
<rect width="88" height="29.7465" fill="white"/>
</clipPath>
</defs>
</svg>
