<svg width="70" height="63" viewBox="0 0 73 72" fill="none" xmlns="http://www.w3.org/2000/svg">
<path d="M27.5 24L27.5076 47.9925V48L48.5 35.9887L27.5 24Z" fill="#008AFF"/>
<path d="M27.5 0L6.5 12.0106L6.50764 60L27.5 47.9894V0Z" fill="#230EE6"/>
<path d="M27.5 48L6.5 60.0151L27.4923 72H27.5V48Z" fill="#1B51F5"/>
<path d="M27.5076 48H27.5L27.5076 72L48.5 59.9886L27.5076 48Z" fill="#FF4378"/>
<path d="M48.5 36.0075L48.4924 36L27.5 48.0075L48.5 60V36.0075Z" fill="#1B51F5"/>
<path d="M69.4923 24L48.5 36V60L69.5 48L69.4923 24Z" fill="#FF8585"/>
<path d="M48.5077 36H48.5V60L69.5 48.0038L48.5077 36Z" fill="#FF4378"/>
<path d="M27.1642 0L6.5 12.0051L47.8434 36L68.5 23.9874L27.1642 0Z" fill="#FFE71D"/>
<path d="M27.4924 0L6.5 11.9886L27.5 24L27.4924 0Z" fill="#FFD015"/>
</svg>
