<svg width="67" height="15" viewBox="0 0 67 15" fill="none" xmlns="http://www.w3.org/2000/svg">
<path d="M55 14.9971C55.0042 14.867 55.0966 14.757 55.1554 14.6414C55.4787 14.0312 55.8147 13.4267 56.1465 12.8194C56.4825 12.2034 56.8185 11.5874 57.1544 10.9714C57.4946 10.3525 57.8305 9.73073 58.1749 9.11184C58.5403 8.44664 58.9141 7.78439 59.2753 7.11923C59.4684 6.76927 59.6448 6.41644 59.8296 6.06361C59.8422 6.03469 59.859 6.00867 59.9094 6C60.0228 6.02602 59.9976 6.09834 59.9976 6.15619C60.0018 6.321 59.9934 6.48295 59.9934 6.64781C59.9934 9.43284 59.9934 12.215 59.9934 15C58.3345 14.9971 56.6673 14.9971 55 14.9971Z" fill="#65C18E"/>
<path d="M20.2466 15C19.3016 15 18.3604 15 17.4154 15C17.4154 14.9144 17.4553 14.8377 17.4991 14.7579C17.6905 14.3889 17.8859 14.0169 18.0694 13.645C18.3086 13.1726 18.5359 12.6973 18.7752 12.222C19.0105 11.7585 19.2577 11.298 19.489 10.8345C19.7442 10.3179 19.9914 9.80124 20.2706 9.29349C20.3503 9.14881 20.3104 9.1075 20.0991 9.11044C19.4013 9.12223 18.7034 9.12522 18.0096 9.1075C17.7981 9.10158 17.7105 9.14587 17.6426 9.29643C17.5709 9.45584 17.4991 9.61232 17.4193 9.76879C17.1801 10.2352 16.9329 10.7017 16.6976 11.1681C16.4064 11.7408 16.1313 12.3194 15.8442 12.8921C15.553 13.4649 15.246 14.0347 14.9629 14.6103C14.8991 14.7373 14.7954 14.8583 14.7914 14.9971C13.8622 14.9971 12.9291 14.9971 12 14.9971C12.0797 14.6812 12.2831 14.3978 12.4267 14.0966C12.5982 13.7365 12.7936 13.3822 12.977 13.022C13.1644 12.6501 13.3518 12.2781 13.5393 11.9062C13.7227 11.543 13.9102 11.1829 14.0936 10.8197C14.277 10.4566 14.4564 10.0935 14.6439 9.73042C14.8791 9.26691 15.1224 8.80639 15.3577 8.34289C15.5969 7.87052 15.8282 7.39522 16.0675 6.91997C16.3586 6.34721 16.6616 5.77451 16.9528 5.20176C17.2439 4.62906 17.523 4.05044 17.8181 3.47773C18.1092 2.90498 18.4083 2.33228 18.7034 1.75958C19.1381 0.9182 19.9556 0.377957 21.1 0.0974995C21.1718 0.0797864 21.3951 7.9879e-05 21.7341 7.9879e-05C23.2614 7.9879e-05 23.4767 7.9879e-05 25.004 7.9879e-05C25.4387 -0.0028715 25.9172 0.0768354 25.9811 0.0945485C26.643 0.283485 26.962 0.687934 26.9979 1.17503C27.0179 1.46141 26.8902 1.72414 26.7507 1.98688C26.5632 2.35294 26.3878 2.72491 26.2043 3.09396C26.0089 3.48953 25.8056 3.88216 25.6062 4.27774C25.4267 4.63498 25.2473 4.99512 25.0678 5.3553C24.8804 5.73315 24.689 6.10812 24.4976 6.48597C24.3062 6.86681 24.1107 7.24765 23.9194 7.62844C23.7917 7.8853 23.6642 8.1451 23.5326 8.40191C23.3531 8.76503 23.1737 9.12815 22.9902 9.49127C22.8028 9.86325 22.6114 10.2352 22.424 10.6072C22.2405 10.9762 22.061 11.3453 21.8776 11.7113C21.6384 12.1836 21.3991 12.656 21.1598 13.1284C20.9644 13.518 20.7611 13.9077 20.5736 14.3003C20.454 14.5365 20.3025 14.755 20.2466 15ZM18.6715 7.38049C18.7154 7.39228 18.7433 7.40706 18.7752 7.40706C19.5328 7.41 20.2905 7.41 21.0482 7.41C21.1519 7.41 21.2236 7.37163 21.2595 7.29782C21.4749 6.86681 21.6942 6.43282 21.9136 6.00181C22.097 5.63869 22.2804 5.27557 22.4638 4.91245C22.6552 4.53166 22.8467 4.15082 23.0381 3.76705C23.1657 3.51018 23.2973 3.25039 23.4289 2.99357C23.6123 2.63045 23.8037 2.27027 23.9832 1.9072C24.0669 1.73892 24.0111 1.69164 23.7718 1.69164C23.1019 1.69164 22.4279 1.69463 21.758 1.68871C21.5785 1.68577 21.4789 1.73594 21.415 1.85996C21.108 2.48283 20.793 3.10282 20.478 3.72275C20.1829 4.30137 19.8838 4.87706 19.5887 5.45569C19.3135 5.99295 19.0424 6.53027 18.7752 7.07052C18.7233 7.16498 18.6556 7.25945 18.6715 7.38049Z" fill="white"/>
<path d="M7.74291 0C9.77586 0 11.2715 0 13.3045 0C13.5772 0 13.922 0.0738335 13.9901 0.0915537C14.752 0.289428 15.0969 0.856468 14.9766 1.4058C14.8523 1.9758 14.4794 2.48081 14.2307 3.0183C14.0142 3.48791 13.7495 3.94269 13.5129 4.40638C13.2724 4.87894 13.0398 5.35443 12.7992 5.82694C12.5466 6.32309 12.29 6.81925 12.0294 7.30952C11.881 7.58417 11.7006 7.84407 11.4359 8.07444C11.075 8.3934 10.6339 8.63557 10.1528 8.8423C10.0566 8.88363 9.99642 8.9368 9.98038 9.02543C9.91618 9.36211 9.84 9.6958 9.76381 10.0295C9.57539 10.8181 9.38291 11.6066 9.19442 12.3952C9.02602 13.1069 8.86161 13.8187 8.70126 14.5304C8.66514 14.684 8.6491 14.8435 8.62502 14.9971C7.66267 14.9971 6.70032 14.9971 5.738 14.9971C5.74602 14.938 5.74602 14.8789 5.75805 14.8199C5.85428 14.4389 5.95854 14.0579 6.05077 13.6769C6.23522 12.9327 6.40363 12.1855 6.60412 11.4442C6.6763 11.1754 6.73645 10.9037 6.81263 10.632C6.94091 10.1713 7.05721 9.70765 7.1775 9.24396C7.20159 9.14945 7.14942 9.1022 7.01715 9.1022C6.66825 9.10514 6.32343 9.11107 5.97458 9.114C5.86231 9.114 5.81018 9.15533 5.77409 9.23215C5.70593 9.37983 5.61771 9.52452 5.54152 9.6722C5.34905 10.0443 5.16059 10.4165 4.96812 10.7885C4.78368 11.1459 4.59922 11.5033 4.41477 11.8606C4.23033 12.215 4.04587 12.5665 3.86543 12.9179C3.68499 13.2723 3.51658 13.6297 3.32812 13.9811C3.14768 14.3178 2.95922 14.6545 2.80685 15C1.87257 15 0.934279 15 0 15C0 14.9409 0 14.8819 0 14.8228C0.056137 14.8139 0.100245 14.7933 0.116284 14.749C0.208509 14.5068 0.356871 14.2823 0.473155 14.0461C0.593448 13.801 0.71775 13.5588 0.846068 13.3166C1.03854 12.9504 1.23501 12.5871 1.42347 12.2209C1.61194 11.8606 1.79638 11.4973 1.98083 11.1341C2.22142 10.6704 2.46602 10.2097 2.7026 9.74604C2.88705 9.38865 3.06749 9.02837 3.25193 8.67102C3.50054 8.19553 3.74915 7.72004 3.99776 7.24161C4.1782 6.89308 4.35462 6.5446 4.53507 6.19613C4.78768 5.71177 5.0403 5.22448 5.29292 4.74012C5.52549 4.29122 5.75404 3.83933 5.98661 3.39042C6.23522 2.91493 6.48382 2.43944 6.73245 1.96395C6.92487 1.59774 7.1254 1.23448 7.30585 0.865326C7.45422 0.581808 7.63466 0.301238 7.74291 0ZM7.94337 7.469C8.25615 7.469 8.57292 7.46308 8.8857 7.47194C9.06614 7.47492 9.18244 7.42175 9.24259 7.3036C9.42702 6.94626 9.60746 6.58593 9.7879 6.22859C9.96834 5.87419 10.1488 5.52277 10.3292 5.16837C10.5176 4.8051 10.7061 4.44477 10.8906 4.08151C11.075 3.71824 11.2595 3.35497 11.4479 2.99176C11.6324 2.64029 11.8208 2.28883 12.0013 1.93442C12.0775 1.78973 12.0093 1.73362 11.8048 1.73362C11.1552 1.73656 10.5097 1.73656 9.86009 1.73063C9.73175 1.73063 9.66361 1.76315 9.60347 1.83992C9.51524 1.95807 9.47113 2.08802 9.40693 2.20911C9.2185 2.56645 9.03001 2.92086 8.84558 3.2782C8.65715 3.64146 8.4807 4.00473 8.29221 4.36799C8.05569 4.82576 7.80305 5.28059 7.57045 5.7413C7.31383 6.24631 7.06526 6.75427 6.78455 7.25341C6.70032 7.40403 6.74849 7.46606 6.97304 7.46606C7.30179 7.469 7.62261 7.469 7.94337 7.469Z" fill="white"/>
<path d="M56.2251 0C56.7302 0 56.9368 0.0738188 57.0019 0.0915355C57.6791 0.283462 58.0388 0.785432 57.9967 1.32578C57.9776 1.58269 57.8628 1.81596 57.7556 2.04923C57.5873 2.43009 57.4036 2.80807 57.2276 3.186C57.0363 3.59643 56.845 4.00687 56.6537 4.42029C56.4776 4.80414 56.3092 5.188 56.1294 5.57185C55.8999 6.06497 55.6665 6.55809 55.4369 7.05116C55.2647 7.4262 55.0963 7.80119 54.9241 8.17618C54.7941 8.46261 54.6563 8.749 54.5262 9.03543C54.4038 9.30414 54.2813 9.5728 54.155 9.83858C53.9752 10.2284 53.7992 10.6151 53.6194 11.0049C53.4969 11.2736 53.3707 11.5394 53.2444 11.8081C53.0531 12.2185 52.8579 12.6289 52.6743 13.0423C52.5786 13.2519 52.4906 13.4587 52.3414 13.6506C51.8592 14.2707 51.1858 14.7018 50.2828 14.9085C50.214 14.9232 49.8543 15 49.1961 15C47.1567 15 46.0394 15 44 15C44.0153 14.8967 44.065 14.8021 44.1109 14.7047C44.287 14.3474 44.4553 13.9872 44.6237 13.627C44.7997 13.2431 44.9718 12.8592 45.1479 12.4754C45.3813 11.9734 45.6224 11.4715 45.8596 10.9695C46.0356 10.5915 46.2116 10.2136 46.3876 9.83265C46.5675 9.4488 46.7511 9.06789 46.931 8.68403C47.1108 8.30018 47.2829 7.91633 47.4628 7.53248C47.6886 7.05116 47.9182 6.57576 48.1439 6.09449C48.3237 5.71063 48.4921 5.32678 48.6719 4.94293C48.8594 4.53543 49.0546 4.13092 49.2459 3.72636C49.4142 3.36615 49.5787 3.0059 49.7509 2.64569C49.9384 2.24411 50.1298 1.84254 50.3173 1.4439C50.4473 1.16633 50.5927 0.894683 50.7075 0.614174C50.7917 0.407478 50.9294 0.215552 50.9677 0C52.9306 0 54.2622 0 56.2251 0ZM48.6987 13.311C49.0048 13.311 49.3109 13.3051 49.617 13.314C49.8007 13.3169 49.9078 13.2549 49.9652 13.1309C50.0839 12.8711 50.1987 12.6112 50.3173 12.3514C50.4971 11.9675 50.6769 11.5866 50.8568 11.2027C51.029 10.8336 51.1973 10.4646 51.3695 10.0925C51.5455 9.70865 51.7177 9.3248 51.8975 8.94095C52.0735 8.56297 52.2572 8.18504 52.4294 7.80706C52.6092 7.42027 52.7814 7.02756 52.9612 6.64072C53.1908 6.14765 53.4281 5.65453 53.6576 5.16141C53.8872 4.66242 54.1129 4.16044 54.3425 3.6614C54.6181 3.07086 54.9012 2.48326 55.1805 1.89272C55.2455 1.75687 55.1881 1.68897 55.0083 1.68897C54.3693 1.68603 53.7342 1.68897 53.0951 1.68897C52.9268 1.68897 52.8273 1.74801 52.7776 1.875C52.6704 2.13779 52.548 2.3947 52.4256 2.6545C52.196 3.14468 51.9587 3.62894 51.733 4.11907C51.5493 4.51179 51.3772 4.90749 51.1973 5.3002C50.9562 5.81691 50.7113 6.33363 50.4703 6.85039C50.2981 7.21359 50.1298 7.57972 49.9614 7.94585C49.7777 8.33856 49.594 8.72834 49.4104 9.12105C49.2841 9.38976 49.1655 9.65847 49.0393 9.9242C48.8556 10.3169 48.6719 10.7096 48.4882 11.0994C48.362 11.371 48.2357 11.6427 48.1095 11.9173C47.9258 12.3159 47.7345 12.7116 47.5623 13.1102C47.4934 13.2667 47.5393 13.308 47.7536 13.311C48.0597 13.314 48.3773 13.311 48.6987 13.311Z" fill="white"/>
<path d="M37.3748 0.00590417C37.7398 0.00885615 37.9742 0.0856315 38.0395 0.103348C38.5697 0.236221 39.0038 0.69685 39 1.17227C39 1.49703 38.8847 1.79233 38.7464 2.08762C38.5581 2.48327 38.3699 2.87893 38.1816 3.27463C38.0011 3.65256 37.8205 4.03053 37.64 4.40846C37.4671 4.76872 37.298 5.12599 37.1251 5.48625C36.8869 5.98231 36.6487 6.4813 36.4143 6.97736C36.2338 7.35534 36.0571 7.73327 35.8803 8.11125C35.6613 8.58366 35.4501 9.05612 34.9851 9.43111C34.5741 9.76479 34.0977 10.0187 33.5406 10.187C33.1334 10.311 32.7107 10.3376 32.2805 10.3376C31.5774 10.3376 30.8705 10.3405 30.1674 10.3347C30.0022 10.3347 29.9023 10.379 29.8485 10.4941C29.6565 10.8986 29.4605 11.3032 29.2645 11.7077C29.0417 12.1713 28.8189 12.6378 28.5922 13.1014C28.4116 13.4794 28.2311 13.8573 28.0467 14.2323C27.9621 14.4006 27.8776 14.5689 27.797 14.7431C27.747 14.8228 27.7201 14.8878 27.6586 15C26.7481 15 25.9106 15 25 15C25.0576 14.8642 25.1114 14.7284 25.1768 14.5955C25.3573 14.2176 25.5417 13.8425 25.7223 13.4646C25.899 13.0955 26.0719 12.7264 26.2486 12.3603C26.4292 11.9882 26.6136 11.6162 26.7904 11.2441C26.9671 10.875 27.14 10.5059 27.3167 10.1398C27.5011 9.75299 27.6894 9.36909 27.8738 8.9823C28.0467 8.6191 28.2196 8.25591 28.3963 7.89271C28.6345 7.39959 28.8727 6.90946 29.107 6.41634C29.2799 6.05907 29.4528 5.69881 29.6257 5.34154C29.8063 4.96361 29.9869 4.58857 30.1674 4.21064C30.3441 3.84152 30.5209 3.47539 30.6976 3.10632C30.8781 2.72834 31.0626 2.35335 31.2432 1.97542C31.4275 1.5945 31.6119 1.21359 31.7964 0.829727C31.927 0.555121 32.0538 0.277558 32.1806 0C34.0938 0.00590396 35.4693 0.00590417 37.3748 0.00590417ZM35.1158 1.73623C35.1158 1.73916 35.1158 1.73916 35.1158 1.74215C34.8545 1.74215 34.5895 1.75982 34.3282 1.73623C34.1169 1.7185 34.0132 1.77754 33.9478 1.91339C33.8249 2.16732 33.7058 2.41831 33.5867 2.67224C33.4023 3.05908 33.2217 3.44587 33.0373 3.83266C32.8644 4.18998 32.6877 4.55019 32.5148 4.90751C32.3266 5.30316 32.1383 5.69881 31.9501 6.09451C31.7196 6.57877 31.4929 7.06298 31.2585 7.5443C31.1317 7.81003 31.0011 8.07874 30.8628 8.34153C30.7782 8.50396 30.8244 8.56594 31.0626 8.56594C31.6081 8.56594 32.1499 8.56594 32.6954 8.56594C32.9451 8.56594 33.0104 8.52168 33.0949 8.33566C33.2678 7.95474 33.4484 7.57975 33.6251 7.20177C33.8018 6.82971 33.9863 6.45771 34.1669 6.08565C34.3551 5.69587 34.5395 5.30316 34.7239 4.91044C34.9007 4.53839 35.0774 4.1634 35.2541 3.79134C35.4385 3.41043 35.623 3.02951 35.8073 2.64566C35.9265 2.40353 36.0494 2.15846 36.1608 1.91339C36.2184 1.7864 36.1493 1.72736 35.9802 1.7303C35.6882 1.73623 35.4001 1.73623 35.1158 1.73623Z" fill="white"/>
<path d="M47 0.00295208C46.8775 0.265745 46.7549 0.531494 46.6285 0.794287C46.4387 1.18998 46.2451 1.58857 46.0514 1.98427C45.8656 2.36812 45.6759 2.74899 45.4901 3.1299C45.3162 3.49016 45.1423 3.85037 44.9684 4.20768C44.7747 4.60926 44.5771 5.00785 44.3794 5.40942C44.2016 5.77261 44.0316 6.13879 43.8538 6.50492C43.6087 7.01278 43.3557 7.5177 43.1067 8.02261C42.9288 8.38581 42.7628 8.75492 42.5889 9.11812C42.411 9.49311 42.2292 9.86516 42.0435 10.2372C41.8577 10.6151 41.6759 10.9931 41.4901 11.3711C41.2925 11.7756 41.0949 12.1831 40.8972 12.5876C40.668 13.057 40.4427 13.5295 40.2174 13.999C40.079 14.2854 39.9368 14.5689 39.7944 14.8553C39.7707 14.9025 39.7589 14.9498 39.7668 15C38.8458 15 37.9209 15 37 15C37.0118 14.7785 37.1699 14.5896 37.2608 14.3858C37.4901 13.875 37.747 13.3701 37.9921 12.8622C38.2213 12.3927 38.4545 11.9232 38.6838 11.4537C38.9289 10.9518 39.1699 10.4468 39.415 9.94486C39.5928 9.57579 39.7786 9.20961 39.9604 8.84054C40.1462 8.46257 40.328 8.08464 40.5138 7.70666C40.7549 7.21359 41 6.72047 41.2411 6.23029C41.415 5.87596 41.585 5.52162 41.7589 5.16435C41.9565 4.75984 42.1581 4.35533 42.3517 3.94783C42.5296 3.57872 42.7035 3.20965 42.8853 2.84053C43.0751 2.45374 43.2687 2.0669 43.4585 1.68011C43.6363 1.311 43.8142 0.941924 43.9881 0.572831C44.0751 0.383857 44.2016 0.203739 44.2372 0C45.1581 0.00295197 46.0791 0.00295208 47 0.00295208Z" fill="white"/>
<path d="M67 7.96277C66.8587 7.99254 66.7138 8 66.5689 8C65.1561 8 63.7464 8 62.3333 7.99624C62.2065 7.99624 62.0435 8.03341 62.0072 7.84758C61.971 7.64684 62.1377 7.63193 62.2681 7.58736C63.2283 7.26761 64.1921 6.94052 65.1525 6.62077C65.3623 6.55014 65.5799 6.49442 65.7934 6.43495C65.8373 6.42379 65.8914 6.42749 65.913 6.35316C65.8336 6.27137 65.7284 6.29368 65.6304 6.29738C64.5327 6.31969 63.4348 6.33085 62.3369 6.32339C62.2645 6.32339 62.192 6.32339 62.1195 6.30854C62.0507 6.29368 62 6.24906 62 6.16727C62 6.08918 62.0435 6.03717 62.1123 6.01855C62.1703 6.0037 62.2319 6 62.2898 6C63.7319 6 65.1741 6 66.6158 6C66.7427 6 66.8695 6.01855 66.9928 6.02971C66.9928 6.13011 66.9928 6.22675 66.9928 6.32709C66.4565 6.50928 65.9202 6.69886 65.3839 6.87359C64.7138 7.09288 64.0399 7.30108 63.3696 7.51673C63.2717 7.55014 63.1811 7.60222 63.0761 7.70256C63.2718 7.70256 63.4276 7.69886 63.5834 7.70256C64.7211 7.72117 65.8589 7.61337 66.9964 7.70256C67 7.7918 67 7.87729 67 7.96277Z" fill="white"/>
<path d="M66.9964 2.56682C66.9892 2.67244 66.9092 2.74218 66.8911 2.76808C66.7678 2.93945 66.4959 2.98527 66.2059 2.99326C65.8504 3.00321 65.4954 3.00123 65.1363 2.99326C64.8607 2.98927 64.6178 2.93347 64.4691 2.80594C64.3785 2.79996 64.3313 2.82388 64.2951 2.84978C64.1355 2.96337 63.9108 2.99326 63.6679 2.99525C63.1965 2.99921 62.7252 2.99723 62.2539 2.99723C62.1378 2.99723 62.0001 2.99723 62.0001 2.90955C61.9965 2.8139 62.1451 2.8179 62.2648 2.8179C62.7071 2.81589 63.1457 2.8179 63.5881 2.8179C64.0558 2.8179 64.2371 2.71826 64.2407 2.46519C64.2407 2.40143 64.2443 2.33965 64.2371 2.27589C64.2298 2.21411 64.1718 2.18619 64.0449 2.1882C63.4467 2.19418 62.8485 2.19418 62.2539 2.19418C62.1306 2.19418 62.0073 2.18024 62.0073 2.09653C62.0073 2.01482 62.1306 2.00088 62.2575 2.00088C63.7295 2.00088 65.2012 2.00088 66.6769 2.00088C66.7858 2.00088 66.8947 1.9989 67 2.00088C66.9964 2.24199 66.9964 2.33565 66.9964 2.56682ZM65.5748 2.82187C65.8179 2.82187 65.9881 2.82187 66.1548 2.82187C66.1734 2.82187 66.1915 2.82187 66.2095 2.81988C66.5103 2.80194 66.6625 2.71228 66.6769 2.54689C66.6806 2.47117 66.6842 2.39343 66.6878 2.31771C66.6914 2.21609 66.6517 2.19617 66.4706 2.19617C65.8901 2.19617 65.3101 2.19815 64.7301 2.19217C64.6033 2.19019 64.5452 2.2181 64.5416 2.27985C64.5344 2.38349 64.5199 2.4871 64.5634 2.58674C64.6105 2.69236 64.7193 2.77006 64.9259 2.79996C65.1688 2.83782 65.4082 2.81589 65.5748 2.82187Z" fill="white"/>
<path d="M66.9964 14.5668C66.9892 14.6724 66.9092 14.7422 66.8911 14.7681C66.7678 14.9395 66.4959 14.9853 66.2059 14.9932C65.8504 15.0032 65.4954 15.0012 65.1363 14.9932C64.8607 14.9893 64.6178 14.9335 64.4691 14.8059C64.3785 14.8 64.3313 14.8239 64.2951 14.8498C64.1355 14.9634 63.9108 14.9932 63.6679 14.9953C63.1965 14.9992 62.7252 14.9972 62.2539 14.9972C62.1378 14.9972 62.0001 14.9972 62.0001 14.9096C61.9965 14.8139 62.1451 14.8179 62.2648 14.8179C62.7071 14.8159 63.1457 14.8179 63.5881 14.8179C64.0558 14.8179 64.2371 14.7183 64.2407 14.4652C64.2407 14.4014 64.2443 14.3397 64.2371 14.2759C64.2298 14.2141 64.1718 14.1862 64.0449 14.1882C63.4467 14.1942 62.8485 14.1942 62.2539 14.1942C62.1306 14.1942 62.0073 14.1802 62.0073 14.0965C62.0073 14.0148 62.1306 14.0009 62.2575 14.0009C63.7295 14.0009 65.2012 14.0009 66.6769 14.0009C66.7858 14.0009 66.8947 13.9989 67 14.0009C66.9964 14.24 66.9964 14.3357 66.9964 14.5668ZM65.5748 14.8199C65.8179 14.8199 65.9881 14.8199 66.1548 14.8199C66.1734 14.8199 66.1915 14.8199 66.2095 14.8179C66.5103 14.8 66.6625 14.7103 66.6769 14.5449C66.6806 14.4692 66.6842 14.3915 66.6878 14.3157C66.6914 14.2141 66.6517 14.1942 66.4706 14.1942C65.8901 14.1942 65.3101 14.1962 64.7301 14.1902C64.6033 14.1882 64.5452 14.2161 64.5416 14.2779C64.5344 14.3815 64.5199 14.4851 64.5634 14.5848C64.6105 14.6903 64.7193 14.7681 64.9259 14.798C65.1688 14.8358 65.4082 14.8139 65.5748 14.8199Z" fill="white"/>
<path d="M66.9893 9.29073C66.9857 9.42361 66.903 9.56821 66.878 9.61512C66.7381 9.89642 66.4869 9.96289 66.2249 9.98635C66.0101 10.0058 65.7946 9.99023 65.5791 9.99412C65.4648 9.99412 65.3749 9.95117 65.3749 9.80656C65.3749 9.66591 65.4719 9.64246 65.5755 9.63851C65.766 9.63462 65.9595 9.64246 66.1499 9.63851C66.5482 9.63073 66.7024 9.45878 66.7059 9.03281C66.7095 8.51704 66.5625 8.35682 66.0886 8.35287C65.235 8.34898 65.2278 8.35287 64.7255 9.09928C64.5927 9.29857 64.4529 9.49396 64.2986 9.67764C64.1084 9.89642 63.8753 9.99023 63.6098 9.99412C63.3299 10.002 63.0465 10.002 62.7667 9.99412C62.3111 9.98635 62.0313 9.68936 62.0061 9.19303C61.9954 8.97813 61.9918 8.76712 62.0564 8.55611C62.1604 8.20438 62.3936 8.04027 62.7093 8.01293C63.007 7.98948 63.3084 8.00509 63.6062 8.00509C63.7138 8.00509 63.8214 8.03243 63.8179 8.18092C63.8142 8.32942 63.703 8.34898 63.599 8.34898C63.3371 8.35287 63.0716 8.34898 62.8098 8.34898C62.5084 8.35287 62.3182 8.54827 62.3003 8.87654C62.2931 8.97424 62.2931 9.07194 62.3039 9.16958C62.329 9.43922 62.4689 9.59944 62.7129 9.63851C63.0322 9.68936 63.355 9.68541 63.6779 9.63462C63.8753 9.60339 64.0187 9.49396 64.1371 9.32591C64.338 9.04065 64.5425 8.76323 64.7398 8.47797C64.9623 8.15358 65.26 8.00904 65.6225 8.00509C65.8267 8.0012 66.0279 7.99732 66.2321 8.00904C66.4976 8.02466 66.7417 8.0989 66.8887 8.37244C66.9137 8.41934 66.9857 8.52093 67 8.67331C67 9.01331 67 8.87259 66.9893 9.29073Z" fill="white"/>
<path d="M66.9964 5.15024C66.2855 5.28028 65.5752 5.41026 64.8649 5.53681C64.5025 5.60008 64.14 5.6598 63.7775 5.72307C63.3462 5.80038 62.9149 5.88119 62.4799 5.95851C62.3893 5.97604 62.3023 5.99014 62.2117 5.99713C62.1211 6.00418 62.016 6.00768 62.0015 5.88818C61.9869 5.76519 62.0812 5.73006 62.1827 5.71252C62.3857 5.67384 62.585 5.6422 62.788 5.60358C63.0526 5.55435 63.0526 5.55435 63.0526 5.30137C63.0526 5.07998 63.049 4.85503 63.0562 4.63369C63.0598 4.4966 62.9982 4.43339 62.8605 4.4123C62.6394 4.38416 62.4219 4.34198 62.2008 4.30685C62.0885 4.28931 61.9906 4.24357 62.0087 4.12058C62.0268 3.98355 62.1428 3.9906 62.248 4.01169C63.0381 4.14872 63.8247 4.28931 64.6148 4.42984C65.3503 4.55988 66.09 4.67232 66.8184 4.82695C66.8767 4.83749 66.9381 4.834 67 4.83749C66.9964 4.93939 66.9964 5.04485 66.9964 5.15024ZM66.0209 4.99911C65.9848 4.9183 65.9162 4.9183 65.8507 4.90776C65.0863 4.78477 64.3176 4.66178 63.5528 4.53529C63.4259 4.5142 63.357 4.55988 63.3534 4.67232C63.3426 4.90077 63.3426 5.12915 63.3534 5.35759C63.357 5.45949 63.4259 5.50517 63.5419 5.48408C64.2668 5.36109 64.9918 5.2416 65.7129 5.11861C65.8218 5.09402 65.9415 5.09402 66.0209 4.99911Z" fill="white"/>
<path d="M67 13C66.6889 12.9903 66.6817 12.9878 66.6817 12.7732C66.6817 12.6342 66.6775 12.4976 66.6817 12.3585C66.6853 12.2512 66.6126 12.2171 66.4607 12.2195C65.9358 12.2219 65.4109 12.2244 64.8898 12.2195C64.7378 12.2195 64.6872 12.2658 64.6872 12.3585C64.6872 12.5171 64.6872 12.6756 64.6872 12.8342C64.6872 12.9073 64.6763 12.978 64.5315 12.9756C64.3976 12.9732 64.3904 12.9049 64.3904 12.8366C64.3904 12.6781 64.3904 12.5195 64.3904 12.361C64.3904 12.2609 64.3325 12.2171 64.1732 12.2171C63.6376 12.2219 63.1019 12.2171 62.5662 12.2195C62.3418 12.2195 62.302 12.2488 62.2984 12.3975C62.2984 12.5439 62.2984 12.6902 62.2984 12.8366C62.2984 12.9098 62.302 12.9976 62.1464 12.9951C62.0053 12.9927 62.0053 12.9122 62.0016 12.8415C62.0016 12.6171 61.998 12.3951 62.0016 12.1707C62.0053 12.0317 62.0523 12 62.2622 12C63.7317 12 65.2013 12 66.6739 12C66.7826 12 66.8913 12.0122 66.9964 12.0195C67 12.3512 67 12.6756 67 13Z" fill="white"/>
<path d="M67 11C66.6875 10.99 66.6803 10.9875 66.6803 10.7671C66.6803 10.6369 66.6767 10.5092 66.6839 10.3789C66.6912 10.2687 66.637 10.2187 66.4666 10.2187C65.9404 10.2237 65.4142 10.2237 64.8882 10.2187C64.7322 10.2162 64.6814 10.2687 64.6814 10.3614C64.6778 10.5167 64.6814 10.6694 64.6814 10.8247C64.6814 10.8998 64.6777 10.9749 64.529 10.9749C64.3802 10.9749 64.3802 10.8973 64.3802 10.8222C64.3802 10.6719 64.3802 10.5217 64.3802 10.3714C64.3802 10.2637 64.3149 10.2162 64.148 10.2187C63.5312 10.2237 62.9144 10.2211 62.2976 10.2211C62.1742 10.2211 62.0073 10.2387 62.0001 10.116C61.9964 9.98324 62.1706 10.0008 62.2976 10.0008C63.7416 10.0008 65.1891 10.0008 66.6334 10.0008C66.7568 10.0008 66.873 10.0108 66.9928 10.0258C67 10.3489 67 10.6744 67 11Z" fill="white"/>
<path d="M66.9964 2C66.688 1.99618 66.6736 1.98492 66.6808 1.65284C66.688 1.12452 66.7607 1.1698 66.2065 1.1698C64.9129 1.1698 63.6232 1.1698 62.3297 1.1698C62.2572 1.1698 62.1848 1.16603 62.116 1.15093C62.0471 1.13584 62 1.07924 62 0.999994C62 0.913201 62.0471 0.8566 62.1268 0.841503C62.1848 0.830186 62.2464 0.830186 62.308 0.830186C63.6738 0.830186 65.0361 0.830186 66.4018 0.830186C66.67 0.830186 66.6916 0.807544 66.6844 0.528301C66.6772 0.350941 66.6772 0.177354 66.6736 0C66.7824 0 66.8912 0 67 0C66.9964 0.667922 66.9964 1.33583 66.9964 2Z" fill="white"/>
</svg>
