<svg width="52" height="24" viewBox="0 0 52 24" fill="none" xmlns="http://www.w3.org/2000/svg">
<path d="M33.7444 10.3697C32.8677 9.57961 31.8091 9.19337 30.5854 9.19337C29.3784 9.19337 28.3199 9.5801 27.4426 10.3697C26.5659 11.1427 26.1202 12.2186 26.1202 13.5969C26.1202 14.9752 26.5659 16.0502 27.4426 16.8403C28.3194 17.6133 29.3784 18 30.5854 18C31.8091 18 32.8677 17.6133 33.7444 16.8403C34.6378 16.0502 35.0836 14.9748 35.0836 13.5969C35.0836 12.2191 34.6373 11.1427 33.7444 10.3697ZM28.9322 15.361C28.4697 14.9076 28.2368 14.3189 28.2368 13.5964C28.2368 12.8739 28.4678 12.2858 28.9322 11.8485C29.1475 11.6305 29.4051 11.4585 29.6893 11.343C29.9734 11.2275 30.2781 11.1708 30.5849 11.1765C30.8943 11.1708 31.2016 11.2273 31.4886 11.3428C31.7755 11.4582 32.0361 11.6303 32.2548 11.8485C32.7335 12.2858 32.9664 12.8735 32.9664 13.5964C32.9664 14.3194 32.7355 14.9071 32.2548 15.361C31.7924 15.7977 31.2297 16.0163 30.5849 16.0163C30.2797 16.0212 29.9766 15.9658 29.6929 15.8533C29.4093 15.7408 29.1507 15.5735 28.9322 15.361ZM38.2111 17.7642V6.23184H36.1274V17.7642H38.2111ZM44.9365 9.42864V14.0302C44.9365 15.139 44.3468 15.8742 43.2243 15.8742C42.0827 15.8742 41.5087 15.1399 41.5087 14.0302V9.42864H39.421V14.3831C39.421 16.3026 40.6118 17.9995 43.2243 17.9995H43.2405C45.8368 17.9995 47.0256 16.2648 47.0256 14.3831V9.42864H44.9365ZM23.9028 9.42864L21.8191 15.0752L19.7353 9.42864H17.5194L20.8445 17.7647H22.7965L26.1211 9.42864H23.9028ZM17.5293 13.3612C17.5293 12.1515 17.1494 11.1599 16.4048 10.3697C15.6603 9.57961 14.7025 9.19337 13.5279 9.19337C12.3209 9.19337 11.2948 9.61392 10.4515 10.4369C9.62391 11.2608 9.21159 12.3024 9.21159 13.5964C9.21159 14.8905 9.6249 15.9497 10.4353 16.7726C11.2629 17.5966 12.2551 17.9995 13.4292 17.9995C15.2327 17.9995 16.5056 17.1927 17.2816 15.5625L15.7276 14.6547C15.216 15.6796 14.4705 16.184 13.4621 16.184C12.2222 16.184 11.3454 15.3772 11.2127 14.1003H17.5288V13.3607L17.5293 13.3612ZM13.4606 10.8065C14.6347 10.8065 15.4126 11.4785 15.6107 12.5544H11.2118C11.5268 11.5628 12.3858 10.8065 13.4611 10.8065H13.4606ZM9.2111 17.7642L6.41529 12.7901C8.18399 12.1348 9.06072 10.9922 9.06072 9.32816C9.06269 7.2945 7.47385 6 4.94391 6H0V17.7642H2.18299V12.9916H4.03572L6.71408 17.7647L9.2111 17.7642ZM4.94391 7.94935C6.23395 7.94935 6.87921 8.47039 6.87921 9.4953C6.87921 10.5202 6.23345 11.0413 4.94391 11.0413H2.18299V7.94935H4.94391ZM50.5581 17.9995C49.217 17.9995 48.1294 16.8937 48.1294 15.5291V7.17637H50.2131V9.43158H52V11.1457H50.2131V15.3929C50.2131 15.7928 50.5321 16.1168 50.9262 16.1168H52V17.9995H50.5581Z" fill="white"/>
</svg>
