<svg width="36" height="36" viewBox="0 0 36 36" fill="none" xmlns="http://www.w3.org/2000/svg">
<path d="M33.6611 9.85775C33.5492 9.50868 33.3361 9.20071 33.049 8.97288C32.7618 8.74505 32.4135 8.60764 32.0481 8.57806L26.814 8.13509L24.7722 3.37493C24.628 3.04122 24.3894 2.75699 24.0856 2.55731C23.7819 2.35763 23.4264 2.25122 23.0629 2.25122C22.6994 2.25122 22.3438 2.35763 22.0401 2.55731C21.7363 2.75699 21.4977 3.04122 21.3536 3.37493L19.3117 8.1365L14.0762 8.57806C13.7127 8.60726 13.3659 8.74347 13.0797 8.9695C12.7935 9.19554 12.5806 9.50128 12.4679 9.84815C12.3553 10.195 12.3479 10.5675 12.4466 10.9186C12.5454 11.2697 12.7459 11.5836 13.0229 11.8209L16.9829 15.1959L15.7975 20.2204C15.7141 20.5726 15.7364 20.9415 15.8614 21.2811C15.9864 21.6208 16.2088 21.916 16.5006 22.1301C16.7959 22.3469 17.1485 22.4719 17.5144 22.4894C17.8803 22.5069 18.2433 22.4162 18.5579 22.2285L23.0579 19.5567L27.5579 22.2285C27.8726 22.4162 28.2355 22.5069 28.6014 22.4894C28.9674 22.4719 29.32 22.3469 29.6153 22.1301C29.9072 21.9162 30.1297 21.6209 30.2547 21.2812C30.3798 20.9416 30.4019 20.5726 30.3184 20.2204L29.1329 15.1959L33.0915 11.8209C33.3701 11.5868 33.573 11.2753 33.6744 10.9258C33.7758 10.5763 33.7711 10.2046 33.6611 9.85775ZM27.4932 13.6546C27.2341 13.8742 27.041 14.1612 26.9352 14.484C26.8294 14.8067 26.8152 15.1524 26.8942 15.4827L27.9221 19.8421L24.0156 17.5204C23.7273 17.3485 23.3978 17.2578 23.0621 17.2578C22.7265 17.2578 22.397 17.3485 22.1087 17.5204L18.2021 19.8281L19.2301 15.4687C19.3102 15.1385 19.2967 14.7926 19.1911 14.4697C19.0856 14.1468 18.8921 13.8597 18.6325 13.6406L15.2209 10.7409L19.7336 10.3584C20.0685 10.3303 20.3894 10.2115 20.662 10.0148C20.9345 9.81806 21.1483 9.55085 21.2804 9.24181L23.0621 5.09618L24.8396 9.24181C24.972 9.55067 25.1859 9.81772 25.4584 10.0144C25.7309 10.2111 26.0517 10.33 26.3865 10.3584L30.8992 10.7409L27.4932 13.6546ZM12.0456 17.6709L4.17059 25.5459C3.95949 25.757 3.67318 25.8756 3.37465 25.8756C3.07611 25.8756 2.78981 25.757 2.57871 25.5459C2.36762 25.3348 2.24902 25.0485 2.24902 24.7499C2.24902 24.4514 2.36762 24.1651 2.57871 23.954L10.4537 16.079C10.6648 15.8679 10.9511 15.7493 11.2496 15.7493C11.5482 15.7493 11.8345 15.8679 12.0456 16.079C12.2567 16.2901 12.3753 16.5764 12.3753 16.8749C12.3753 17.1735 12.2567 17.4598 12.0456 17.6709ZM14.2956 25.5459L6.42059 33.4209C6.31606 33.5254 6.19197 33.6083 6.05541 33.6649C5.91884 33.7214 5.77247 33.7506 5.62465 33.7506C5.47683 33.7506 5.33046 33.7214 5.19389 33.6649C5.05732 33.6083 4.93324 33.5254 4.82871 33.4209C4.72419 33.3163 4.64127 33.1923 4.58471 33.0557C4.52814 32.9191 4.49902 32.7728 4.49902 32.6249C4.49902 32.4771 4.52814 32.3307 4.58471 32.1942C4.64127 32.0576 4.72419 31.9335 4.82871 31.829L12.7037 23.954C12.9148 23.7429 13.2011 23.6243 13.4996 23.6243C13.7982 23.6243 14.0845 23.7429 14.2956 23.954C14.5067 24.1651 14.6253 24.4514 14.6253 24.7499C14.6253 25.0485 14.5067 25.3348 14.2956 25.5459ZM24.4206 23.954C24.5252 24.0585 24.6082 24.1826 24.6648 24.3191C24.7214 24.4557 24.7505 24.6021 24.7505 24.7499C24.7505 24.8978 24.7214 25.0442 24.6648 25.1807C24.6082 25.3173 24.5252 25.4414 24.4206 25.5459L16.5456 33.4209C16.4411 33.5254 16.317 33.6083 16.1804 33.6649C16.0438 33.7214 15.8975 33.7506 15.7496 33.7506C15.6018 33.7506 15.4555 33.7214 15.3189 33.6649C15.1823 33.6083 15.0582 33.5254 14.9537 33.4209C14.8492 33.3163 14.7663 33.1923 14.7097 33.0557C14.6531 32.9191 14.624 32.7728 14.624 32.6249C14.624 32.4771 14.6531 32.3307 14.7097 32.1942C14.7663 32.0576 14.8492 31.9335 14.9537 31.829L22.8287 23.954C22.9332 23.8494 23.0573 23.7664 23.1938 23.7098C23.3304 23.6532 23.4768 23.6241 23.6246 23.6241C23.7725 23.6241 23.9189 23.6532 24.0555 23.7098C24.192 23.7664 24.3161 23.8494 24.4206 23.954Z" fill="#FFAF38"/>
</svg>
