<svg width="35" height="34" viewBox="0 0 35 34" fill="none" xmlns="http://www.w3.org/2000/svg">
<path d="M16.6634 1.2773C17.0583 0.674484 17.9417 0.674484 18.3366 1.2773L23.8365 9.675C23.9704 9.87949 24.1746 10.0278 24.4105 10.092L34.0968 12.7278C34.7921 12.917 35.0651 13.7572 34.6138 14.319L28.3267 22.1448C28.1736 22.3354 28.0956 22.5754 28.1075 22.8196L28.5939 32.8463C28.6288 33.566 27.9141 34.0853 27.2404 33.8297L17.8547 30.2686C17.6262 30.1819 17.3738 30.1819 17.1453 30.2686L7.75964 33.8297C7.08591 34.0853 6.37115 33.566 6.40607 32.8463L6.89255 22.8196C6.9044 22.5754 6.8264 22.3354 6.67331 22.1448L0.386201 14.319C-0.0651083 13.7572 0.207905 12.917 0.903218 12.7278L10.5895 10.092C10.8254 10.0278 11.0295 9.87949 11.1635 9.675L16.6634 1.2773Z" fill="#A4AAF8"/>
</svg>
