<svg width="71" height="66" viewBox="0 0 71 66" fill="none" xmlns="http://www.w3.org/2000/svg">
<g clip-path="url(#clip0_1946_3793)">
<g clip-path="url(#clip1_1946_3793)">
<path d="M31.9966 27.9186C31.2246 28.3818 29.9893 28.2274 29.3717 27.7642L19.9528 21.8967C19.1808 21.4335 18.7175 20.3526 18.7175 19.5806L18.8719 8.6176C18.8719 7.84556 19.4896 6.76471 20.2616 6.30148L29.9893 1.0516C30.7614 0.58838 31.9966 0.742788 32.6143 1.20601L41.8787 7.07352C42.6508 7.53675 43.114 8.6176 43.114 9.38964L42.8052 20.507C42.8052 21.2791 42.1876 22.3599 41.4155 22.8232L31.9966 27.9186Z" fill="url(#paint0_linear_1946_3793)"/>
<path d="M31.9966 27.9186C31.2246 28.3818 29.9893 28.2274 29.3717 27.7642L19.9528 21.8967C19.1808 21.4335 18.7175 20.3526 18.7175 19.5806L18.8719 8.6176C18.8719 7.84556 19.4896 6.76471 20.2616 6.30148L29.9893 1.0516C30.7614 0.58838 31.9966 0.742788 32.6143 1.20601L41.8787 7.07352C42.6508 7.53675 43.114 8.6176 43.114 9.38964L42.8052 20.507C42.8052 21.2791 42.1876 22.3599 41.4155 22.8232L31.9966 27.9186Z" stroke="#FEC40C" stroke-width="0.99994" stroke-miterlimit="10"/>
<path d="M22.8868 7.3823L30.2984 3.5221C31.2248 3.05888 32.4601 3.21328 33.0777 3.98532C40.4893 11.8601 36.3203 26.6833 22.4235 21.1246C21.9603 20.9702 21.4971 20.507 21.3427 20.0438C21.0339 19.4261 20.8795 18.9629 20.8795 18.3453C20.8795 15.7203 20.7251 12.4778 21.3427 9.2352C21.4971 8.46316 22.1147 7.69112 22.8868 7.3823Z" fill="url(#paint1_linear_1946_3793)"/>
<path d="M23.1952 18.4998C22.732 18.8086 21.96 18.4998 21.8056 17.8822C21.3423 16.0293 21.4968 13.0955 21.96 9.38974C22.1144 8.46329 22.8864 7.69125 22.8864 7.69125C26.129 5.52954 28.2907 4.7575 29.9892 4.60309C30.7612 4.60309 31.2245 5.37513 30.9157 5.99276C28.9083 9.23533 27.2099 12.4779 25.9746 14.9484C25.357 16.6469 24.4305 17.8822 23.1952 18.4998Z" fill="#FFEA51"/>
<path d="M22.8872 13.8676C22.8872 14.0221 22.5784 14.0221 22.5784 13.8676C21.9607 12.7868 21.9607 11.2427 22.4239 9.38981C22.5784 8.61777 23.196 7.84573 23.3504 7.69132C23.5048 7.38251 26.593 5.83843 27.9826 5.22079C28.137 5.06639 28.2915 5.3752 28.137 5.52961C26.1297 8.00014 24.2768 10.7795 22.8872 13.8676Z" fill="#FFFFFC"/>
<path d="M39.2126 30.1584C39.9025 29.2061 41.5188 28.5995 42.5776 28.8658L57.5885 31.4038C58.7799 31.591 59.97 32.6785 60.3921 33.6854L65.8793 47.6754C66.3015 48.6822 66.087 50.4297 65.3179 51.2494L55.6878 63.125C54.9979 64.0772 53.5142 64.6047 52.3228 64.4175L37.4445 61.8003C36.253 61.6132 35.063 60.5257 34.6409 59.5188L29.2069 45.3169C28.7848 44.31 28.9993 42.5626 29.7684 41.7428L39.2126 30.1584Z" fill="url(#paint2_linear_1946_3793)"/>
<path d="M29.1903 44.7391C28.7596 43.6448 29.1194 41.9563 29.9141 41.2078L40.1392 29.9289C40.9387 29.0261 42.4959 28.6093 43.5717 28.7961L58.3141 31.7101C59.3899 31.897 60.7465 33.0189 61.0227 34.1086L65.8395 48.6195C66.2701 49.7138 65.915 51.2479 65.1156 52.1508L54.8952 63.2755C54.0957 64.1783 52.5385 64.595 51.4627 64.4082L36.5705 61.3352C35.4947 61.1483 34.1381 60.0264 33.8619 58.9368L29.1903 44.7391Z" stroke="#FEC40C" stroke-width="1.99988" stroke-miterlimit="10"/>
<path d="M58.9366 36.6721L62.7471 48.6812C63.1638 50.2384 62.6498 51.9223 61.2329 52.8066C47.8362 61.6732 27.1242 51.7831 38.8154 32.8242C39.297 32.2208 39.9328 31.622 40.7092 31.4907C41.6444 31.2099 42.5752 31.0833 43.3421 31.2608C47.341 31.8443 52.1116 32.4509 56.5365 34.2829C57.6122 34.4697 58.5106 35.4235 58.9366 36.6721Z" fill="url(#paint3_linear_1946_3793)"/>
<path d="M23.5041 45.8302C23.3496 46.6022 22.732 47.3742 21.96 47.6831L12.5411 51.2344C11.769 51.5433 10.6882 51.3888 10.0705 50.9256L2.19574 44.7493C1.5781 44.2861 1.26929 43.2052 1.26929 42.4332L2.81337 32.3967C2.96778 31.6246 3.58541 30.8526 4.35745 30.5438L13.7763 27.1468C14.5484 26.838 15.6292 26.9924 16.2469 27.61L24.1217 33.9407C24.7393 34.404 25.0481 35.4848 25.0481 36.2569L23.5041 45.8302Z" fill="url(#paint4_linear_1946_3793)"/>
<path d="M23.5041 45.8302C23.3496 46.6022 22.732 47.3742 21.96 47.6831L12.5411 51.2344C11.769 51.5433 10.6882 51.3888 10.0705 50.9256L2.19574 44.7493C1.5781 44.2861 1.26929 43.2052 1.26929 42.4332L2.81337 32.3967C2.96778 31.6246 3.58541 30.8526 4.35745 30.5438L13.7763 27.1468C14.5484 26.838 15.6292 26.9924 16.2469 27.61L24.1217 33.9407C24.7393 34.404 25.0481 35.4848 25.0481 36.2569L23.5041 45.8302Z" stroke="#FEC40C" stroke-width="0.99994" stroke-miterlimit="10"/>
<path d="M3.8956 41.0433L5.28528 33.4773C5.43968 32.5508 6.21173 31.7788 7.29258 31.6244C17.1747 30.5435 25.6672 41.8153 13.9321 48.9181C13.4689 49.2269 13.0057 49.2269 12.5425 49.0725C12.0792 48.9181 11.4616 48.7637 10.9984 48.4549C8.99107 47.0652 6.52054 45.3667 4.66764 43.0506C3.8956 42.5875 3.7412 41.8153 3.8956 41.0433Z" fill="url(#paint5_linear_1946_3793)"/>
<path d="M12.2326 46.9108C12.0782 47.374 11.615 47.6828 10.9973 47.5284C9.29884 46.7564 7.29153 45.0579 4.97541 42.7418C4.35778 42.1241 4.20337 41.1977 4.20337 41.1977C4.51219 37.6463 5.12982 35.639 5.90186 34.2493C6.21067 33.6317 7.13712 33.7861 7.44594 34.4037C8.83561 37.6463 10.2253 40.7345 11.3061 42.8962C12.0782 44.2859 12.5414 45.6755 12.2326 46.9108Z" fill="#FFEA51"/>
<path d="M7.90954 43.2049C7.90954 43.3593 7.90954 43.5137 7.75513 43.3593C6.67428 43.0505 5.74783 42.124 4.82138 40.58C4.35815 39.9623 4.35815 39.1903 4.35815 38.7271C4.35815 38.4182 5.2846 35.4845 5.90224 34.2492C5.90224 34.0948 6.21105 34.0948 6.21105 34.2492C6.21105 37.3375 6.82868 40.2713 7.90954 43.2049Z" fill="white"/>
<path d="M49.2506 60.8817C58.247 60.8817 65.5405 53.8124 65.5405 45.0904C65.5405 36.3683 58.247 29.2999 49.2506 29.2999C40.2542 29.2999 32.9598 36.3692 32.9598 45.0904C32.9598 53.8116 40.2534 60.8817 49.2506 60.8817Z" fill="#FF7900"/>
<path d="M49.7312 60.6238C58.7284 60.6238 66.022 53.5537 66.022 44.8325C66.022 36.1113 58.7284 29.0411 49.7312 29.0411C40.734 29.0411 33.4405 36.1113 33.4405 44.8325C33.4405 53.5537 40.734 60.6238 49.7312 60.6238Z" fill="url(#paint6_radial_1946_3793)"/>
<path d="M56.8835 30.8039C55.658 30.9674 54.4685 33.5639 54.4685 33.5639C54.4685 33.5639 48.6379 30.2445 43.6756 34.824C41.2573 37.5808 39.7952 41.1491 39.7952 45.0501C39.7952 52.7076 45.4261 59.0926 52.8938 60.5285C52.1627 60.6739 51.4062 60.7708 50.6382 60.8127C42.0763 60.3404 35.2764 53.4649 35.2764 45.0501C35.2764 36.3264 41.8635 29.2999 50.8566 29.2999H50.8632C52.9875 29.4453 55.0583 29.9439 56.8835 30.8039Z" fill="url(#paint7_linear_1946_3793)"/>
<path d="M48.6836 36.5251C48.4519 36.5251 48.2507 36.3592 48.2195 36.13C48.1784 35.8261 47.3438 28.5777 58.8127 19.9687C59.0189 19.815 59.313 19.8522 59.4699 20.0498C59.6292 20.248 59.5915 20.5334 59.3869 20.6869C48.3879 28.9433 49.1403 35.9444 49.1493 36.0142C49.1814 36.2623 48.999 36.4898 48.7436 36.521C48.7238 36.5235 48.7033 36.5251 48.6836 36.5251Z" fill="#6B3708"/>
<path d="M59.3881 20.6923C49.682 27.9797 49.1258 34.2859 49.1382 35.716C49.1324 35.6856 49.1258 35.6618 49.1201 35.6314C49.0823 35.3341 48.2699 28.319 59.163 19.8866C59.2813 19.8988 59.3938 19.9593 59.4686 20.0562C59.6255 20.2562 59.5877 20.5409 59.3881 20.6923Z" fill="#AA621A"/>
<path d="M59.0986 35.1336C59.0444 35.1336 58.9902 35.1254 58.9368 35.1057C58.6945 35.0202 58.5688 34.759 58.6583 34.5233C58.7824 34.1939 61.7946 26.3844 69.7674 21.9651C69.9917 21.8394 70.2784 21.9166 70.4074 22.1343C70.5355 22.352 70.4575 22.6297 70.2324 22.7537C62.5667 27.003 59.5677 34.7574 59.5381 34.8354C59.4691 35.0194 59.2892 35.1336 59.0986 35.1336Z" fill="#6B3708"/>
<path d="M70.2339 22.7472C63.2278 26.6302 60.122 33.4333 59.6159 34.6449C59.5724 34.548 59.5724 34.4387 59.6094 34.3361C59.735 34.0149 62.6405 26.4724 70.3029 22.0137C70.3464 22.0441 70.3842 22.081 70.4088 22.1295C70.5337 22.3472 70.4589 22.6256 70.2339 22.7472Z" fill="#AA621A"/>
<path d="M49.6173 53.6941C52.0159 53.6941 53.9602 51.8089 53.9602 49.4842C53.9602 47.1596 52.0159 45.2744 49.6173 45.2744C47.2187 45.2744 45.2743 47.1587 45.2743 49.4842C45.2743 51.8097 47.2187 53.6941 49.6173 53.6941Z" fill="url(#paint8_radial_1946_3793)"/>
<path d="M60.9272 42.2553C60.0815 42.5736 59.0319 42.0764 58.5827 41.1448C58.1337 40.2132 58.455 39.2 59.3008 38.8817C60.1464 38.5634 61.1961 39.0605 61.6452 39.9921C62.0944 40.9237 61.7729 41.937 60.9272 42.2553Z" fill="url(#paint9_linear_1946_3793)"/>
<path d="M60.3482 39.1682C59.5473 38.9492 59.328 40.1029 60.1302 40.3222C60.931 40.5412 61.1503 39.3875 60.3482 39.1682Z" fill="white"/>
<path d="M52.7592 45.8212C51.9136 46.1395 50.8639 45.6424 50.4148 44.7108C49.9657 43.7792 50.287 42.766 51.1328 42.4477C51.9785 42.1294 53.0281 42.6265 53.4772 43.5581C53.9264 44.4897 53.6049 45.5029 52.7592 45.8212Z" fill="url(#paint10_linear_1946_3793)"/>
<path d="M59.1938 45.1384C59.1938 45.1384 59.3462 45.9931 59.0057 46.4363C58.7781 46.7327 58.3227 47.3211 57.1846 47.0763C56.3707 46.7558 56.2353 46.2079 56.2353 46.2079C56.2353 46.2079 57.6097 46.7713 57.6226 46.7713C57.6355 46.7713 58.8253 46.0369 58.8253 46.0369L59.1938 45.1384Z" fill="#6B3708"/>
<path d="M56.5424 46.0562C56.8917 46.5575 57.5476 46.8108 58.106 46.5815C58.6644 46.3523 58.8972 45.7603 58.8519 45.1684" stroke="#AA621A" stroke-width="0.690008" stroke-miterlimit="10" stroke-linecap="round"/>
<path d="M50.9178 41.0716C50.8652 41.3255 50.0705 41.1824 49.6388 41.6161C49.2072 42.0497 49.0615 42.256 48.9565 42.237C48.8514 42.2181 48.7819 41.3996 49.6118 40.8363C50.4417 40.2729 51.0356 40.5039 50.9178 41.0716Z" fill="#AA621A"/>
<path d="M58.667 37.7112C58.8115 37.882 59.328 37.4665 59.8227 37.6259C60.3175 37.7853 60.5095 37.8842 60.5779 37.8292C60.6461 37.7742 60.3537 37.1311 59.5157 37.0284C58.6776 36.9256 58.3436 37.3294 58.667 37.7112Z" fill="#AA621A"/>
<path d="M59.7382 41.0828L60.3262 41.3179C60.4227 41.3565 60.4697 41.466 60.4311 41.5625C60.3925 41.6591 60.2829 41.706 60.1864 41.6674L59.5985 41.4324C59.5019 41.3938 59.4549 41.2842 59.4935 41.1877C59.5321 41.0912 59.6417 41.0442 59.7382 41.0828Z" fill="white"/>
<path d="M51.5427 44.5403L52.1306 44.7753C52.2272 44.8139 52.2741 44.9235 52.2355 45.02C52.1969 45.1165 52.0874 45.1635 51.9909 45.1249L51.4029 44.8898C51.3064 44.8512 51.2594 44.7417 51.298 44.6452C51.3366 44.5486 51.4461 44.5017 51.5427 44.5403Z" fill="white"/>
<path d="M52.2598 42.8071C51.459 42.5881 51.2396 43.7418 52.0418 43.9612C52.8426 44.1801 53.0619 43.0264 52.2598 42.8071Z" fill="white"/>
</g>
</g>
<defs>
<linearGradient id="paint0_linear_1946_3793" x1="18.5476" y1="19.5503" x2="43.4536" y2="9.32827" gradientUnits="userSpaceOnUse">
<stop offset="0.1317" stop-color="#FFCA00"/>
<stop offset="0.3966" stop-color="#FFC500"/>
<stop offset="0.7261" stop-color="#FFB500"/>
<stop offset="0.8892" stop-color="#FFAB00"/>
</linearGradient>
<linearGradient id="paint1_linear_1946_3793" x1="20.5469" y1="9.46377" x2="37.7541" y2="16.4657" gradientUnits="userSpaceOnUse">
<stop offset="0.1317" stop-color="#FFCA00"/>
<stop offset="0.3966" stop-color="#FFC500"/>
<stop offset="0.7261" stop-color="#FFB500"/>
<stop offset="0.8892" stop-color="#FFAB00"/>
</linearGradient>
<linearGradient id="paint2_linear_1946_3793" x1="60.5764" y1="33.3642" x2="34.4743" y2="59.5733" gradientUnits="userSpaceOnUse">
<stop offset="0.1317" stop-color="#FFCA00"/>
<stop offset="0.3966" stop-color="#FFC500"/>
<stop offset="0.7261" stop-color="#FFB500"/>
<stop offset="0.8892" stop-color="#FFAB00"/>
</linearGradient>
<linearGradient id="paint3_linear_1946_3793" x1="56.3407" y1="32.9071" x2="41.7198" y2="56.3627" gradientUnits="userSpaceOnUse">
<stop offset="0.1317" stop-color="#FFCA00"/>
<stop offset="0.3966" stop-color="#FFC500"/>
<stop offset="0.7261" stop-color="#FFB500"/>
<stop offset="0.8892" stop-color="#FFAB00"/>
</linearGradient>
<linearGradient id="paint4_linear_1946_3793" x1="9.9911" y1="50.8891" x2="16.3303" y2="27.0938" gradientUnits="userSpaceOnUse">
<stop offset="0.1317" stop-color="#FFCA00"/>
<stop offset="0.3966" stop-color="#FFC500"/>
<stop offset="0.7261" stop-color="#FFB500"/>
<stop offset="0.8892" stop-color="#FFAB00"/>
</linearGradient>
<linearGradient id="paint5_linear_1946_3793" x1="4.24499" y1="43.8718" x2="18.8672" y2="35.2154" gradientUnits="userSpaceOnUse">
<stop offset="0.1317" stop-color="#FFCA00"/>
<stop offset="0.3966" stop-color="#FFC500"/>
<stop offset="0.7261" stop-color="#FFB500"/>
<stop offset="0.8892" stop-color="#FFAB00"/>
</linearGradient>
<radialGradient id="paint6_radial_1946_3793" cx="0" cy="0" r="1" gradientUnits="userSpaceOnUse" gradientTransform="translate(64.5744 28.8554) scale(38.5194 37.3387)">
<stop offset="0.4824" stop-color="#FFFF1D"/>
<stop offset="0.8926" stop-color="#FF8500"/>
</radialGradient>
<linearGradient id="paint7_linear_1946_3793" x1="39.5075" y1="59.2194" x2="56.5745" y2="27.4725" gradientUnits="userSpaceOnUse">
<stop offset="0.5399" stop-color="#331803"/>
<stop offset="0.8926" stop-color="#FFD814"/>
</linearGradient>
<radialGradient id="paint8_radial_1946_3793" cx="0" cy="0" r="1" gradientUnits="userSpaceOnUse" gradientTransform="translate(49.5639 49.4841) scale(4.34295 4.20979)">
<stop stop-color="#FF8500"/>
<stop offset="0.09" stop-color="#FF8600" stop-opacity="0.9744"/>
<stop offset="0.2167" stop-color="#FF8A01" stop-opacity="0.9024"/>
<stop offset="0.365" stop-color="#FF9103" stop-opacity="0.7842"/>
<stop offset="0.5298" stop-color="#FF9B05" stop-opacity="0.6196"/>
<stop offset="0.7082" stop-color="#FFA708" stop-opacity="0.4084"/>
<stop offset="0.8951" stop-color="#FFB60B" stop-opacity="0.1551"/>
<stop offset="1" stop-color="#FFC00E" stop-opacity="0"/>
</radialGradient>
<linearGradient id="paint9_linear_1946_3793" x1="61.4465" y1="39.8369" x2="58.6118" y2="41.393" gradientUnits="userSpaceOnUse">
<stop offset="0.2959" stop-color="#AA621A"/>
<stop offset="0.984" stop-color="#452B21"/>
</linearGradient>
<linearGradient id="paint10_linear_1946_3793" x1="52.9618" y1="43.3219" x2="50.3446" y2="45.4153" gradientUnits="userSpaceOnUse">
<stop offset="0.2959" stop-color="#AA621A"/>
<stop offset="0.984" stop-color="#452B21"/>
</linearGradient>
<clipPath id="clip0_1946_3793">
<rect width="70.0042" height="66" fill="white" transform="translate(0.497803)"/>
</clipPath>
<clipPath id="clip1_1946_3793">
<rect width="70" height="65.996" fill="white" transform="translate(0.497803)"/>
</clipPath>
</defs>
</svg>
