<svg width="21" height="20" viewBox="0 0 21 20" fill="none" xmlns="http://www.w3.org/2000/svg">
<path d="M16.3333 12.5C14.4917 12.5 13 13.9917 13 15.8333C13 16.4583 13.175 17.05 13.4833 17.55C14.0583 18.5167 15.1167 19.1667 16.3333 19.1667C17.55 19.1667 18.6083 18.5167 19.1833 17.55C19.4917 17.05 19.6667 16.4583 19.6667 15.8333C19.6667 13.9917 18.175 12.5 16.3333 12.5ZM18.0583 15.475L16.2833 17.1167C16.1667 17.225 16.0083 17.2833 15.8583 17.2833C15.7 17.2833 15.5417 17.225 15.4167 17.1L14.5917 16.275C14.35 16.0333 14.35 15.6333 14.5917 15.3917C14.8333 15.15 15.2333 15.15 15.475 15.3917L15.875 15.7917L17.2083 14.5583C17.4583 14.325 17.8583 14.3417 18.0917 14.5917C18.325 14.8417 18.3083 15.2333 18.0583 15.475Z" fill="#FFB038"/>
<path d="M18.8334 6.29165V6.66665C18.8334 7.12498 18.4584 7.49998 18.0001 7.49998H3.00008C2.54175 7.49998 2.16675 7.12498 2.16675 6.66665V6.28331C2.16675 4.37498 3.70841 2.83331 5.61675 2.83331H15.3751C17.2834 2.83331 18.8334 4.38331 18.8334 6.29165Z" fill="#FFB038"/>
<path d="M2.16675 9.58331V13.7166C2.16675 15.625 3.70841 17.1666 5.61675 17.1666H10.8334C11.3167 17.1666 11.7334 16.7583 11.6917 16.275C11.5751 15 11.9834 13.6166 13.1167 12.5166C13.5834 12.0583 14.1584 11.7083 14.7834 11.5083C15.8251 11.175 16.8334 11.2166 17.7251 11.5166C18.2667 11.7 18.8334 11.3083 18.8334 10.7333V9.57497C18.8334 9.11664 18.4584 8.74164 18.0001 8.74164H3.00008C2.54175 8.74997 2.16675 9.12497 2.16675 9.58331ZM7.16675 14.375H5.50008C5.15841 14.375 4.87508 14.0916 4.87508 13.75C4.87508 13.4083 5.15841 13.125 5.50008 13.125H7.16675C7.50841 13.125 7.79175 13.4083 7.79175 13.75C7.79175 14.0916 7.50841 14.375 7.16675 14.375Z" fill="#FFB038"/>
</svg>
